<svg width="24" height="28" viewBox="0 0 24 28" fill="none" xmlns="http://www.w3.org/2000/svg">
<path d="M4.6198 10.3221C4.98217 6.96748 7.81411 4.42499 11.1882 4.42499V4.42499C14.5623 4.42499 17.3942 6.96748 17.7566 10.3221L18.0781 13.2977C18.1223 13.7073 18.1444 13.9121 18.1767 14.1136C18.3111 14.954 18.5787 15.7676 18.9696 16.5236C19.0632 16.7049 19.167 16.8828 19.3746 17.2387L20.1102 18.4996C20.8895 19.8355 21.2791 20.5035 20.9908 21.0054C20.7025 21.5074 19.9292 21.5074 18.3826 21.5074H3.9938C2.44721 21.5074 1.67391 21.5074 1.38561 21.0054C1.09731 20.5035 1.48695 19.8355 2.26623 18.4996L3.00178 17.2387C3.20938 16.8828 3.31318 16.7049 3.40686 16.5236C3.79768 15.7676 4.06535 14.954 4.19976 14.1136C4.23198 13.9121 4.25411 13.7073 4.29836 13.2977L4.6198 10.3221Z" stroke="#111111" stroke-width="2"/>
<path d="M6.91779 22.0412C6.91779 22.6721 7.02825 23.2969 7.24287 23.8798C7.45749 24.4627 7.77206 24.9923 8.16862 25.4384C8.56518 25.8846 9.03597 26.2385 9.5541 26.4799C10.0722 26.7213 10.6276 26.8456 11.1884 26.8456C11.7492 26.8456 12.3045 26.7213 12.8227 26.4799C13.3408 26.2385 13.8116 25.8846 14.2082 25.4384C14.6047 24.9923 14.9193 24.4627 15.1339 23.8798C15.3485 23.2969 15.459 22.6721 15.459 22.0412" stroke="#111111" stroke-width="2" stroke-linecap="round"/>
<circle cx="21.3303" cy="2.82351" r="2.66912" fill="#FE7062"/>
</svg>
