<svg width="24" height="25" viewBox="0 0 24 25" fill="none" xmlns="http://www.w3.org/2000/svg">
<path fill-rule="evenodd" clip-rule="evenodd" d="M10.0802 2.10393C5.80971 2.10393 2.3478 5.71635 2.3478 10.1725C2.3478 14.6287 5.80971 18.2411 10.0802 18.2411C14.3507 18.2411 17.8126 14.6287 17.8126 10.1725C17.8126 5.71635 14.3507 2.10393 10.0802 2.10393ZM1.1582 10.1725C1.1582 5.03079 5.15271 0.86261 10.0802 0.86261C15.0077 0.86261 19.0022 5.03079 19.0022 10.1725C19.0022 15.3142 15.0077 19.4824 10.0802 19.4824C5.15271 19.4824 1.1582 15.3142 1.1582 10.1725Z" fill="#111111" stroke="#111111" stroke-width="0.8"/>
<path fill-rule="evenodd" clip-rule="evenodd" d="M15.94 15.6033L22.8803 23.2377L22.0624 24.1374L15.1221 16.503L15.94 15.6033Z" fill="#111111" stroke="#111111" stroke-width="0.8" stroke-linejoin="round"/>
</svg>
