<svg width="30" height="32" viewBox="0 0 30 32" fill="none" xmlns="http://www.w3.org/2000/svg">
<path fill-rule="evenodd" clip-rule="evenodd" d="M2.06263 13C2.06263 7.25624 6.52486 2.6 12.0293 2.6C17.5337 2.6 21.996 7.25624 21.996 13C21.996 18.7438 17.5337 23.4 12.0293 23.4C6.52486 23.4 2.06263 18.7438 2.06263 13ZM12.0293 1C5.67802 1 0.529297 6.37258 0.529297 13C0.529297 19.6274 5.67802 25 12.0293 25C14.8563 25 17.4451 23.9356 19.4476 22.1698L27.475 31L28.5293 29.8403L20.5482 21.0611C22.4006 18.9309 23.5293 16.103 23.5293 13C23.5293 6.37258 18.3806 1 12.0293 1Z" fill="white"/>
<path d="M19.4476 22.1698L19.8176 21.8335C19.6338 21.6313 19.3218 21.6141 19.1169 21.7948L19.4476 22.1698ZM27.475 31L27.1051 31.3363C27.1998 31.4406 27.3342 31.5 27.475 31.5C27.6159 31.5 27.7502 31.4406 27.845 31.3363L27.475 31ZM28.5293 29.8403L28.8993 30.1766C29.0726 29.9859 29.0726 29.6947 28.8993 29.504L28.5293 29.8403ZM20.5482 21.0611L20.1709 20.7331C20.0046 20.9244 20.0077 21.2099 20.1783 21.3975L20.5482 21.0611ZM12.0293 2.1C6.22887 2.1 1.56263 7.00036 1.56263 13H2.56263C2.56263 7.51211 6.82084 3.1 12.0293 3.1V2.1ZM22.496 13C22.496 7.00036 17.8297 2.1 12.0293 2.1V3.1C17.2377 3.1 21.496 7.51211 21.496 13H22.496ZM12.0293 23.9C17.8297 23.9 22.496 18.9996 22.496 13H21.496C21.496 18.4879 17.2377 22.9 12.0293 22.9V23.9ZM1.56263 13C1.56263 18.9996 6.22887 23.9 12.0293 23.9V22.9C6.82084 22.9 2.56263 18.4879 2.56263 13H1.56263ZM1.0293 13C1.0293 6.62846 5.97401 1.5 12.0293 1.5V0.5C5.38204 0.5 0.0292969 6.11671 0.0292969 13H1.0293ZM12.0293 24.5C5.97401 24.5 1.0293 19.3715 1.0293 13H0.0292969C0.0292969 19.8833 5.38204 25.5 12.0293 25.5V24.5ZM19.1169 21.7948C17.2004 23.4847 14.7276 24.5 12.0293 24.5V25.5C14.985 25.5 17.6898 24.3864 19.7783 22.5449L19.1169 21.7948ZM27.845 30.6637L19.8176 21.8335L19.0776 22.5062L27.1051 31.3363L27.845 30.6637ZM28.1593 29.504L27.1051 30.6637L27.845 31.3363L28.8993 30.1766L28.1593 29.504ZM20.1783 21.3975L28.1593 30.1766L28.8993 29.504L20.9182 20.7248L20.1783 21.3975ZM23.0293 13C23.0293 15.9803 21.9456 18.6922 20.1709 20.7331L20.9255 21.3892C22.8556 19.1697 24.0293 16.2257 24.0293 13H23.0293ZM12.0293 1.5C18.0846 1.5 23.0293 6.62846 23.0293 13H24.0293C24.0293 6.11671 18.6766 0.5 12.0293 0.5V1.5Z" fill="white"/>
</svg>
