<svg width="38" height="37" viewBox="0 0 38 37" fill="none" xmlns="http://www.w3.org/2000/svg">
<g clip-path="url(#clip0_343_163)">
<path d="M12.0644 24.1463C11.0858 25.1106 10.8542 26.5241 11.3846 27.7093C11.534 28.0038 11.915 28.0774 12.1391 27.8566L13.3417 26.664L14.0962 27.4075L12.8935 28.5927C12.6694 28.8136 12.7441 29.189 13.0429 29.3363C14.2531 29.859 15.7546 29.6307 16.6659 28.6664C17.5698 27.7756 17.8686 26.5094 17.4951 25.3978L19.4522 23.469L21.4094 25.3978C21.0359 26.5094 21.3347 27.8492 22.2385 28.6664C23.2171 29.6307 24.6514 29.8516 25.8615 29.3363C26.1603 29.189 26.235 28.8136 26.0109 28.5927L24.8082 27.4075L25.5627 26.664L26.7654 27.8566C26.8401 27.9302 27.0642 28.0038 27.221 28.0038C27.3779 28.0038 27.5198 27.8566 27.5945 27.7093C28.1249 26.5167 27.8933 25.037 26.9148 24.1463C26.0109 23.2555 24.7261 22.9537 23.5981 23.3291L21.6409 21.4003L23.5981 19.4716C24.7261 19.8397 26.0856 19.5452 26.9148 18.6544C27.8933 17.69 28.1174 16.2766 27.5945 15.084C27.4451 14.7895 27.0642 14.7159 26.8401 14.9367L25.5552 16.122L24.8008 15.3784L26.0034 14.1859C26.2275 13.965 26.1528 13.5896 25.854 13.4423C24.6439 12.9196 23.1424 13.1478 22.2311 14.1122C21.3272 15.003 21.0284 16.2692 21.4019 17.3808L19.4448 19.3096L17.4876 17.3808C17.8611 16.2692 17.5623 14.9294 16.6584 14.1122C15.6799 13.1478 14.2456 12.9196 13.0355 13.4423C12.7367 13.5896 12.662 13.965 12.8861 14.1859L14.0887 15.3784L13.3343 16.122L12.1316 14.9367C11.9075 14.7159 11.5265 14.7895 11.3771 15.084C10.8468 16.2766 11.0783 17.7563 12.0569 18.6544C12.9608 19.5452 14.2456 19.8397 15.3736 19.4716L17.3307 21.4003L15.3736 23.3291C14.2456 22.961 12.9608 23.2555 12.0569 24.1463H12.0644ZM23.0752 24.2199C23.2246 24.3671 23.4487 24.3671 23.6056 24.2935C24.5094 23.9254 25.488 24.0726 26.1678 24.7426C26.6981 25.2652 26.9222 25.9352 26.8475 26.5977L25.869 25.6333C25.7196 25.4861 25.4133 25.4861 25.1892 25.6333L23.755 27.0468C23.6056 27.194 23.6056 27.4958 23.755 27.7167L24.7335 28.6811C24.1285 28.7547 23.374 28.5338 22.9258 28.0112C22.246 27.3412 22.0219 26.3032 22.4701 25.4861C22.5448 25.3389 22.5448 25.118 22.3954 24.9634L20.132 22.8064L20.8865 22.0629L23.0752 24.2199ZM15.8367 18.5734C15.6873 18.4262 15.4632 18.4262 15.3064 18.4998C14.4025 18.8679 13.4239 18.7207 12.7441 18.0508C12.2138 17.5281 11.9897 16.8582 12.0644 16.1956L13.0429 17.16C13.1923 17.3072 13.4986 17.3072 13.7227 17.16L15.157 15.7465C15.3064 15.5993 15.3064 15.2975 15.157 15.0766L14.1784 14.1122C14.8582 14.0386 15.5379 14.2595 16.0608 14.7822C16.7406 15.4521 16.9647 16.4901 16.5165 17.3072C16.4418 17.4545 16.4418 17.6753 16.5912 17.8299L18.7799 19.9869L18.0254 20.7304L15.8367 18.5734ZM15.8367 24.2199C15.9861 24.0726 19.5344 20.5758 22.3207 17.8299C22.4701 17.6827 22.4701 17.4618 22.3954 17.3072C22.0219 16.4165 22.1713 15.4521 22.8511 14.7822C23.3815 14.2595 24.0612 14.0386 24.7335 14.1122L23.755 15.0766C23.6056 15.2239 23.6056 15.5257 23.755 15.7465L25.1892 17.16C25.3386 17.3072 25.6449 17.3072 25.869 17.16L26.8475 16.1956C26.9222 16.8655 26.6981 17.5354 26.1678 18.0508C25.488 18.7207 24.4347 18.9415 23.6056 18.4998C23.4562 18.4262 23.2321 18.4262 23.0752 18.5734C22.3954 19.2434 17.3457 24.2199 16.5912 24.9634C16.4418 25.1106 16.4418 25.3315 16.5165 25.4861C16.89 26.3769 16.7406 27.3412 16.0608 28.0112C15.5305 28.5338 14.8507 28.7547 14.1784 28.6811L15.157 27.7167C15.3064 27.5695 15.3064 27.2676 15.157 27.0468L13.7227 25.6333C13.5733 25.4861 13.267 25.4861 13.0429 25.6333L12.0644 26.5977C11.9897 25.9278 12.2138 25.2579 12.7441 24.7426C13.4239 24.0726 14.4772 23.8518 15.3064 24.2935C15.5305 24.3671 15.6799 24.3671 15.8367 24.2199Z" fill="black" stroke="black" stroke-width="0.4" stroke-miterlimit="10"/>
<path d="M10.0245 2.45135C10.5623 2.45135 11.003 2.8857 11.003 3.41574C11.003 3.94578 10.5623 4.38013 10.0245 4.38013C9.48663 4.38013 9.0459 3.94578 9.0459 3.41574C9.0459 2.8857 9.48663 2.45135 10.0245 2.45135Z" fill="black" stroke="black" stroke-width="0.4" stroke-miterlimit="10"/>
<path d="M7.23834 2.45135C7.77618 2.45135 8.21691 2.8857 8.21691 3.41574C8.21691 3.94578 7.77618 4.38013 7.23834 4.38013C6.7005 4.38013 6.25977 3.94578 6.25977 3.41574C6.25977 2.8857 6.7005 2.45135 7.23834 2.45135Z" fill="black" stroke="black" stroke-width="0.4" stroke-miterlimit="10"/>
<path d="M4.37017 2.45135C4.90802 2.45135 5.34875 2.8857 5.34875 3.41574C5.34875 3.94578 4.90802 4.38013 4.37017 4.38013C3.83233 4.38013 3.3916 3.94578 3.3916 3.41574C3.3916 2.8857 3.83233 2.45135 4.37017 2.45135Z" fill="black" stroke="black" stroke-width="0.4" stroke-miterlimit="10"/>
<path d="M34.8327 0.147095H3.1673C1.50896 0.147095 0.149414 1.48693 0.149414 3.12123V33.8785C0.149414 35.5128 1.50896 36.8526 3.1673 36.8526H34.8327C36.4911 36.8526 37.8506 35.5128 37.8506 33.8785V3.12123C37.8506 1.48693 36.4911 0.147095 34.8327 0.147095ZM16.1353 3.86476H36.872V5.71992H16.1353V3.86476ZM36.872 2.97399H16.1353V1.11148H34.8327C35.886 1.11148 36.7899 1.92863 36.872 2.96663V2.97399ZM3.1673 1.11148H15.2314V5.71992H1.05329V3.12123C1.05329 2.00961 2.03186 1.11148 3.1673 1.11148ZM34.8327 35.8882H3.1673C2.03933 35.8882 1.05329 34.9975 1.05329 33.8049V6.6843H36.872V33.8785C36.872 34.9901 35.9682 35.8809 34.8327 35.8809V35.8882Z" fill="black" stroke="black" stroke-width="0.4" stroke-miterlimit="10"/>
<path d="M33.6223 9.43766H4.36973C4.14563 9.43766 3.91406 9.65851 3.91406 9.88672V32.6271C3.91406 32.8479 4.13816 33.0761 4.36973 33.0761H33.6223C33.8464 33.0761 34.078 32.8553 34.078 32.6271V9.87936C34.078 9.65851 33.8539 9.4303 33.6223 9.4303V9.43766ZM33.092 32.178H4.82541V10.402H33.0994V32.1706L33.092 32.178Z" fill="black" stroke="black" stroke-width="0.4" stroke-miterlimit="10"/>
</g>
<defs>
<clipPath id="clip0_343_163">
<rect width="38" height="37" fill="white"/>
</clipPath>
</defs>
</svg>
