<svg width="28" height="45" viewBox="0 0 28 45" fill="none" xmlns="http://www.w3.org/2000/svg">
<g clip-path="url(#clip0_356_151)">
<path d="M17.7868 31.1537C15.8221 31.1537 14.2324 29.5653 14.2324 27.6022C14.2324 25.6392 15.8221 24.0508 17.7868 24.0508C19.7514 24.0508 21.3412 25.6392 21.3412 27.6022C21.3412 29.5653 19.7514 31.1537 17.7868 31.1537ZM17.7868 24.9499C16.347 24.9499 15.2147 26.0813 15.2147 27.5198C15.2147 28.9584 16.347 30.0897 17.7868 30.0897C19.2265 30.0897 20.3588 28.9584 20.3588 27.5198C20.3588 26.1562 19.2265 24.9499 17.7868 24.9499Z" fill="#121212" stroke="#121212" stroke-width="0.8" stroke-miterlimit="10"/>
<path d="M27.2425 36.6757H21.1086C20.8836 36.6757 20.6512 36.4509 20.6512 36.2186C20.6512 35.9864 20.8761 35.7616 21.1086 35.7616H26.7851V1.20615H1.20714V35.6942H14.4498C14.6747 35.6942 14.9072 35.9189 14.9072 36.1512C14.9072 36.3835 14.6822 36.6082 14.4498 36.6082H0.757223C0.532263 36.6082 0.299805 36.3835 0.299805 36.1512V0.756603C0.299805 0.524336 0.524765 0.299561 0.757223 0.299561H27.2425C27.4675 0.299561 27.6999 0.524336 27.6999 0.756603V36.2186C27.6999 36.4434 27.475 36.6757 27.2425 36.6757Z" fill="#121212" stroke="#121212" stroke-width="0.8" stroke-miterlimit="10"/>
<path d="M21.0412 44.6927C20.9663 44.6927 20.8163 44.6927 20.7413 44.6177L17.7118 42.4224L14.6824 44.6177C14.5324 44.6927 14.3824 44.7676 14.225 44.6177C14.075 44.5428 14 44.393 14 44.1607V32.817C14 32.5923 14.225 32.36 14.4574 32.36C14.6899 32.36 14.9148 32.5848 14.9148 32.817V43.2541L17.4869 41.4409C17.6369 41.2911 17.8618 41.2911 18.0193 41.4409L20.5913 43.2541V32.817C20.5913 32.5923 20.8163 32.36 21.0487 32.36C21.2812 32.36 21.5062 32.5848 21.5062 32.817V44.2356C21.5062 44.3855 21.4312 44.5353 21.2812 44.6927H21.0562H21.0412Z" fill="#121212" stroke="#121212" stroke-width="0.8" stroke-miterlimit="10"/>
<path d="M15.8147 34.6303C15.2823 34.6303 14.8324 34.3306 14.5249 33.8735L13.8425 32.6597C13.7675 32.5848 13.6926 32.4349 13.5426 32.4349L12.3353 31.9779C11.6529 31.7531 11.278 30.9964 11.353 30.3146L11.5779 29.0259C11.5779 28.876 11.5779 28.8011 11.503 28.6512L10.8206 27.5199C10.4456 26.913 10.5956 26.0813 11.1205 25.6318L12.1028 24.8001C12.1778 24.7252 12.2528 24.5753 12.2528 24.5004L12.4778 23.2117C12.6278 22.5299 13.2351 21.9979 13.9175 21.9979H15.2823C15.4323 21.9979 15.5072 21.923 15.6647 21.848L16.647 21.0164C17.1794 20.5593 18.0118 20.5593 18.5367 21.0164L19.519 21.848C19.594 21.923 19.744 21.9979 19.894 21.9979H21.4087C22.166 21.9979 22.7734 22.5299 22.8484 23.2117L23.0734 24.5004C23.0734 24.6502 23.1484 24.7252 23.2234 24.8001L24.2057 25.6318C24.7381 26.0888 24.8881 26.9205 24.5056 27.5199L23.8233 28.6512C23.7483 28.7262 23.7483 28.876 23.7483 29.0259L23.9732 30.3146C24.1232 30.9964 23.6733 31.7531 22.9909 31.9779L21.7011 32.4349C21.5512 32.5099 21.4762 32.5848 21.4012 32.6597L20.7188 33.7911C20.3439 34.398 19.5865 34.6977 18.9041 34.4729L17.6144 34.0159C17.4644 33.9409 17.3894 33.9409 17.2394 34.0159L15.9497 34.4729C16.0996 34.5478 15.9497 34.6228 15.7997 34.6228L15.8147 34.6303ZM14.075 22.8296C13.775 22.8296 13.5426 23.0543 13.5426 23.2866L13.3176 24.5753C13.2426 24.9499 13.0927 25.2571 12.7852 25.4819L11.8029 26.3136C11.5779 26.4634 11.5779 26.7706 11.6529 26.9954L12.3353 28.1268C12.4853 28.4265 12.5603 28.8086 12.4853 29.1083L12.2603 30.397C12.1853 30.6218 12.3353 30.929 12.6353 31.0039L13.925 31.4609C14.225 31.6108 14.5324 31.8355 14.6824 32.1427L15.3648 33.2741C15.5147 33.4989 15.7397 33.5738 16.0471 33.4989L17.3369 33.0418C17.6369 32.892 18.0193 32.892 18.3942 33.0418L19.684 33.4989C19.909 33.5738 20.2164 33.4989 20.3664 33.2741L21.0487 32.1427C21.1987 31.843 21.5062 31.6108 21.8061 31.4609L23.0959 31.0039C23.3208 30.929 23.4708 30.6293 23.4708 30.397L23.2459 29.1083C23.1709 28.7336 23.2459 28.4265 23.3958 28.1268L24.0782 26.9954C24.2282 26.7706 24.1532 26.4634 23.9282 26.3136L22.9459 25.4819C22.646 25.2571 22.4885 24.9499 22.4135 24.5753L22.1885 23.2866C21.9636 23.0618 21.7311 22.8296 21.4312 22.8296H20.0664C19.6915 22.8296 19.384 22.6797 19.0841 22.4549L18.1018 21.6233C17.8768 21.4734 17.5694 21.4734 17.4194 21.6233L16.4371 22.4549C16.1371 22.6797 15.8297 22.8296 15.4547 22.8296H14.09H14.075Z" fill="#121212" stroke="#121212" stroke-width="0.8" stroke-miterlimit="10"/>
<path d="M20.1334 5.89645H7.86562C7.64066 5.89645 7.4082 5.67167 7.4082 5.4394C7.4082 5.20714 7.63316 4.98236 7.86562 4.98236H20.2084C20.4334 4.98236 20.6658 5.20714 20.6658 5.4394C20.6658 5.67167 20.4409 5.89645 20.1334 5.89645Z" fill="#121212" stroke="#121212" stroke-width="0.8" stroke-miterlimit="10"/>
<path d="M21.1157 8.76608H6.8832C6.65824 8.76608 6.42578 8.5413 6.42578 8.30903C6.42578 8.07677 6.65074 7.85199 6.8832 7.85199H21.1157C21.3406 7.85199 21.5731 8.07677 21.5731 8.30903C21.5731 8.5413 21.3481 8.76608 21.1157 8.76608Z" fill="#121212" stroke="#121212" stroke-width="0.8" stroke-miterlimit="10"/>
<path d="M23.0053 11.5683H4.99355C4.76859 11.5683 4.53613 11.3435 4.53613 11.1112C4.53613 10.8789 4.76109 10.6542 4.99355 10.6542H23.0053C23.2303 10.6542 23.4628 10.8789 23.4628 11.1112C23.4628 11.3435 23.2378 11.5683 23.0053 11.5683Z" fill="#121212" stroke="#121212" stroke-width="0.8" stroke-miterlimit="10"/>
<path d="M21.1157 14.4379H6.8832C6.65824 14.4379 6.42578 14.2131 6.42578 13.9808C6.42578 13.7486 6.65074 13.5238 6.8832 13.5238H21.1157C21.3406 13.5238 21.5731 13.7486 21.5731 13.9808C21.5731 14.2131 21.3481 14.4379 21.1157 14.4379Z" fill="#121212" stroke="#121212" stroke-width="0.8" stroke-miterlimit="10"/>
<path d="M20.1334 17.2401H7.86562C7.64066 17.2401 7.4082 17.0154 7.4082 16.7831C7.4082 16.5508 7.63316 16.326 7.86562 16.326H20.2084C20.4334 16.326 20.6658 16.5508 20.6658 16.7831C20.5908 17.0079 20.4409 17.2401 20.1334 17.2401Z" fill="#121212" stroke="#121212" stroke-width="0.8" stroke-miterlimit="10"/>
</g>
<defs>
<clipPath id="clip0_356_151">
<rect width="28" height="45" fill="white"/>
</clipPath>
</defs>
</svg>
