<svg width="47" height="41" viewBox="0 0 47 41" fill="none" xmlns="http://www.w3.org/2000/svg">
<g clip-path="url(#clip0_294_542)">
<path d="M23.5971 9.51892H10.1123C9.63804 9.51892 9.2373 9.92986 9.2373 10.4014C9.2373 10.873 9.64472 11.284 10.1123 11.284H23.5971C24.0713 11.284 24.4721 10.873 24.4721 10.4014C24.4721 9.85576 24.0646 9.51892 23.5971 9.51892Z" fill="black"/>
<path d="M23.5971 13.7362H10.1123C9.63804 13.7362 9.2373 14.1472 9.2373 14.6187C9.2373 15.0903 9.64472 15.5012 10.1123 15.5012H23.5971C24.0713 15.5012 24.4721 15.0903 24.4721 14.6187C24.4721 14.1472 24.0646 13.7362 23.5971 13.7362Z" fill="black"/>
<path d="M23.5971 18.0208H10.1123C9.63804 18.0208 9.2373 18.4317 9.2373 18.9033C9.2373 19.3748 9.64472 19.7858 10.1123 19.7858H23.5971C24.0713 19.7858 24.4721 19.3748 24.4721 18.9033C24.4721 18.3576 24.0646 18.0208 23.5971 18.0208Z" fill="black"/>
<path d="M23.5971 22.2379H10.1123C9.63804 22.2379 9.2373 22.6489 9.2373 23.1204C9.2373 23.592 9.64472 23.9356 10.1123 23.9356H23.5971C24.0713 23.9356 24.4721 23.5246 24.4721 23.0531C24.4721 22.5815 24.0646 22.2379 23.5971 22.2379Z" fill="black"/>
<path d="M23.5971 26.5159H10.1123C9.63804 26.5159 9.2373 26.9268 9.2373 27.3984C9.2373 27.87 9.64472 28.2809 10.1123 28.2809H23.5971C24.0713 28.2809 24.4721 27.87 24.4721 27.3984C24.4721 26.9268 24.0646 26.5159 23.5971 26.5159Z" fill="black"/>
<path d="M23.5971 30.733H10.1123C9.63804 30.733 9.2373 31.144 9.2373 31.6156C9.2373 32.0871 9.64472 32.4981 10.1123 32.4981H23.5971C24.0713 32.4981 24.4721 32.0871 24.4721 31.6156C24.4721 31.144 24.0646 30.733 23.5971 30.733Z" fill="black"/>
<path d="M23.5971 35.0176H10.1123C9.63804 35.0176 9.2373 35.4285 9.2373 35.9001C9.2373 36.3717 9.64472 36.7826 10.1123 36.7826H23.5971C24.0713 36.7826 24.4721 36.3717 24.4721 35.9001C24.4721 35.3544 24.0646 35.0176 23.5971 35.0176Z" fill="black"/>
<path d="M39.6398 39.2348H28.379C28.5126 38.9654 28.5794 38.6892 28.5794 38.3523H29.1204C30.6031 38.3523 31.8187 37.261 31.9523 35.7654H32.4933C34.0428 35.7654 35.3919 34.4719 35.3919 32.8416V2.92364C35.3919 1.36071 34.1096 -0.00012207 32.4933 -0.00012207H14.6938C13.211 -0.00012207 11.9955 1.0845 11.8619 2.5868H11.3209C9.83814 2.5868 8.62257 3.67142 8.48899 5.17372H7.94799C6.39847 5.17372 5.04931 6.46718 5.04931 8.09748V38.0087C5.04931 38.4197 5.1161 38.8239 5.31647 39.2348H0.874947C0.400739 39.2348 0 39.6458 0 40.1174C0 40.5889 0.407418 40.9999 0.874947 40.9999H39.6398C40.114 40.9999 40.5147 40.5889 40.5147 40.1174C40.4479 39.639 40.0405 39.2348 39.6398 39.2348ZM14.6938 1.83902H32.56C33.2346 1.83902 33.7756 2.3847 33.7756 3.06511V32.9764C33.7756 33.6568 33.2346 34.2025 32.56 34.2025H32.019V5.57793C32.019 4.01499 30.7367 2.65417 29.1204 2.65417H13.5517C13.6852 2.17586 14.1594 1.83902 14.7004 1.83902H14.6938ZM11.3209 4.42594H29.1872C29.8617 4.42594 30.4027 4.97162 30.4027 5.65203V35.5633C30.4027 36.2437 29.8617 36.7894 29.1872 36.7894H28.6462V8.22548C28.6462 6.66255 27.3638 5.30172 25.7475 5.30172H10.1788C10.3123 4.75604 10.7866 4.4192 11.3276 4.4192L11.3209 4.42594ZM7.94799 39.2416C7.27341 39.2416 6.73241 38.6959 6.73241 38.0155V8.09074C6.73241 7.41033 7.27341 6.86465 7.94799 6.86465H25.8143C26.4888 6.86465 27.0298 7.41033 27.0298 8.09074V38.0087C27.0298 38.6892 26.4888 39.2348 25.8143 39.2348H7.95467L7.94799 39.2416Z" fill="black"/>
<path d="M27.2351 33.4734C33.5059 33.4734 38.5894 28.3459 38.5894 22.0209C38.5894 15.6958 33.5059 10.5684 27.2351 10.5684C20.9643 10.5684 15.8809 15.6958 15.8809 22.0209C15.8809 28.3459 20.9643 33.4734 27.2351 33.4734Z" fill="white"/>
<path d="M37.5692 27.5465C38.4913 27.5465 39.2389 26.7924 39.2389 25.8623C39.2389 24.9321 38.4913 24.1781 37.5692 24.1781C36.647 24.1781 35.8994 24.9321 35.8994 25.8623C35.8994 26.7924 36.647 27.5465 37.5692 27.5465Z" fill="white"/>
<path d="M41.7289 9.25466C40.9141 8.43277 39.5716 8.43277 38.7568 9.25466L33.5271 14.5296C31.7505 12.8858 29.4529 11.9696 27.0084 11.9696C21.732 11.9696 17.4174 16.3215 17.4174 21.6436C17.4174 24.7897 18.9068 27.5922 21.2511 29.3841C21.5383 29.5795 21.8723 29.5323 22.1127 29.2898C22.3064 29.0001 22.2597 28.6633 22.0192 28.4208C19.9087 26.8242 18.6597 24.3585 18.6597 21.6503C18.6129 17.0087 22.3999 13.1889 27.0017 13.1889C29.1123 13.1889 31.1227 13.9637 32.6588 15.4121L27.9568 20.1548L25.2251 17.3994C24.4103 16.5775 23.0678 16.5775 22.253 17.3994C21.4382 18.2213 21.4382 19.5754 22.253 20.3973L27.5294 25.7193C27.7698 25.9619 28.1505 25.9619 28.391 25.7193L35.0098 19.0432C35.297 19.8651 35.444 20.7813 35.444 21.6571C35.3972 26.2987 31.657 30.1184 27.0017 30.1184C26.6678 30.1184 26.3806 30.4081 26.3806 30.745C26.3806 31.0818 26.6678 31.3243 27.0017 31.3243C32.2781 31.3243 36.5928 26.9724 36.5928 21.6503C36.5928 20.4444 36.3523 19.2318 35.9249 18.0731L36.8332 17.1569C37.4544 18.5581 37.795 20.1076 37.795 21.6571C37.795 27.6528 32.9527 32.5369 27.0084 32.5369C21.0641 32.5369 16.2219 27.6528 16.2219 21.6571C16.2219 15.6613 21.0641 10.7772 27.0084 10.7772C28.5913 10.7772 30.1275 11.114 31.5635 11.7944C31.8507 11.9426 32.2314 11.7944 32.3783 11.5047C32.5253 11.2151 32.3783 10.8243 32.0911 10.6829C30.5082 9.95528 28.785 9.57129 27.0552 9.57129C20.4363 9.57129 15.0664 14.9877 15.0664 21.6638C15.0664 28.3399 20.4363 33.7563 27.0552 33.7563C33.674 33.7563 39.044 28.3399 39.044 21.6638C39.044 19.7775 38.6098 17.9384 37.795 16.2946L41.7757 12.2795C42.5437 11.4104 42.5437 10.1035 41.7289 9.28161V9.25466ZM40.8673 11.3835C40.0525 12.2054 28.6848 23.6646 27.9234 24.4393L23.0812 19.508C22.7472 19.1712 22.7472 18.5918 23.0812 18.2011C23.4151 17.8171 23.9895 17.8643 24.3769 18.2011L27.5427 21.3943C27.7832 21.6368 28.1639 21.6368 28.4043 21.3943L39.625 10.0765C39.959 9.73971 40.5334 9.73971 40.9207 10.0765C41.2547 10.4605 41.2547 10.9927 40.874 11.3835H40.8673Z" fill="black"/>
</g>
<defs>
<clipPath id="clip0_294_542">
<rect width="47" height="41" fill="white"/>
</clipPath>
</defs>
</svg>
