<svg width="40" height="39" viewBox="0 0 40 39" fill="none" xmlns="http://www.w3.org/2000/svg">
<g clip-path="url(#clip0_294_397)">
<path d="M39.1391 5.67229C39.1391 5.41533 39.0105 5.21618 38.8177 5.02346C31.9383 -0.102874 32.3241 0.0962699 32.0026 0.03203C31.8097 -0.0322098 33.237 0.03203 10.7153 0.03203C10.2588 0.03203 9.87305 0.423893 9.87305 0.873572V7.35537C9.87305 7.81147 10.2652 8.19691 10.7153 8.19691C11.1653 8.19691 11.5575 7.80505 11.5575 7.35537V1.65087H31.0254V5.73653C31.0254 6.19263 31.4176 6.57807 31.8676 6.57807H37.5768V37.3746H11.6218V31.6701C11.6218 31.214 11.2296 30.8286 10.7796 30.8286C10.3295 30.8286 9.93734 31.2205 9.93734 31.6701V38.1519C9.93734 38.608 10.3295 38.9935 10.7796 38.9935H38.3612C38.8176 38.9935 39.2034 38.6016 39.2034 38.1519V5.67229H39.1391ZM32.652 2.42818L35.8988 4.88856H32.652V2.42818Z" fill="black"/>
<path d="M32.6514 33.2247H22.9174C22.461 33.2247 22.0752 33.6166 22.0752 34.0663C22.0752 34.516 22.4674 34.9078 22.9174 34.9078H32.6514C33.1078 34.9078 33.4936 34.516 33.4936 34.0663C33.4936 33.5459 33.1014 33.2247 32.6514 33.2247Z" fill="black"/>
<path d="M32.6518 29.139H16.4243C15.9678 29.139 15.582 29.5309 15.582 29.9806C15.582 30.4303 15.9742 30.8221 16.4243 30.8221H32.6453C33.1018 30.8221 33.4876 30.4303 33.4876 29.9806C33.4876 29.5309 33.0954 29.139 32.6453 29.139H32.6518Z" fill="black"/>
<path d="M32.6519 25.124H23.7602C23.3037 25.124 22.918 25.5159 22.918 25.9656C22.918 26.4152 23.3102 26.8071 23.7602 26.8071H32.7162C33.1727 26.8071 33.5584 26.4152 33.5584 25.9656C33.4941 25.4452 33.1019 25.124 32.6519 25.124Z" fill="black"/>
<path d="M32.6519 21.0385H23.7602C23.3037 21.0385 22.918 21.4303 22.918 21.88C22.918 22.3297 23.3102 22.7215 23.7602 22.7215H32.7162C33.1727 22.7215 33.5584 22.3297 33.5584 21.88C33.4941 21.4239 33.1019 21.0385 32.6519 21.0385Z" fill="black"/>
<path d="M32.6519 17.017H23.7602C23.3037 17.017 22.918 17.4088 22.918 17.8585C22.918 18.3082 23.3102 18.7001 23.7602 18.7001H32.7162C33.1727 18.7001 33.5584 18.3082 33.5584 17.8585C33.4941 17.3382 33.1019 17.017 32.6519 17.017Z" fill="black"/>
<path d="M32.6519 12.9314H23.7602C23.3037 12.9314 22.918 13.3233 22.918 13.7729C22.918 14.2226 23.3102 14.6145 23.7602 14.6145H32.7162C33.1727 14.6145 33.5584 14.2226 33.5584 13.7729C33.4941 13.3168 33.1019 12.9314 32.6519 12.9314Z" fill="black"/>
<path d="M32.6518 8.90997H16.4243C15.9678 8.90997 15.582 9.30184 15.582 9.75152C15.582 10.2012 15.9742 10.5931 16.4243 10.5931H32.6453C33.1018 10.5931 33.4876 10.2012 33.4876 9.75152C33.4876 9.23117 33.0954 8.90997 32.6453 8.90997H32.6518Z" fill="black"/>
<path d="M19.671 19.4132C19.671 14.0299 15.3248 9.68726 9.93705 9.68726C4.54932 9.68726 0.203125 14.0363 0.203125 19.4132C0.203125 22.3297 1.56613 25.1819 3.83567 26.9999L3.44348 29.7879C3.37919 30.4367 4.02855 30.8928 4.61361 30.6294L8.05327 28.8821C14.0904 30.1798 19.671 25.5095 19.671 19.4132ZM7.60322 27.3918L5.33369 28.5609L5.59086 26.8072C5.65515 26.486 5.52657 26.2226 5.2694 26.0299C3.12845 24.5395 1.89403 22.0727 1.89403 19.4132C1.89403 14.9421 5.52657 11.3061 10.0078 11.3061C14.489 11.3061 18.1215 14.9356 18.1215 19.4132C18.1215 23.8907 14.4247 27.5202 9.94348 27.5202C8.3876 27.5202 8.124 27.1284 7.60965 27.3918H7.60322Z" fill="black"/>
<path d="M9.9375 12.1541C8.70308 12.1541 7.66797 13.1947 7.66797 14.4217V19.4774C7.66797 20.7108 8.70308 21.7451 9.9375 21.7451C11.1719 21.7451 12.207 20.7044 12.207 19.4774V14.4217C12.207 13.1241 11.1655 12.1541 9.9375 12.1541ZM10.5869 19.4132C10.5869 19.7344 10.3297 20.062 9.9375 20.062C9.54532 20.062 9.28815 19.805 9.28815 19.4132V14.3575C9.28815 14.0363 9.54532 13.7087 9.9375 13.7087C10.3297 13.7087 10.5869 13.9656 10.5869 14.3575V19.4132Z" fill="black"/>
<path d="M9.9375 22.2012C8.70308 22.2012 7.66797 23.2354 7.66797 24.4688C7.66797 25.7022 8.70308 26.7365 9.9375 26.7365C11.1719 26.7365 12.207 25.6958 12.207 24.4688C12.207 23.2419 11.1655 22.2012 9.9375 22.2012ZM9.9375 25.1177C9.61604 25.1177 9.28815 24.8607 9.28815 24.4688C9.28815 24.077 9.54532 23.82 9.9375 23.82C10.3297 23.82 10.5869 24.077 10.5869 24.4688C10.5869 24.8607 10.3297 25.1177 9.9375 25.1177Z" fill="black"/>
</g>
<defs>
<clipPath id="clip0_294_397">
<rect width="39" height="39" fill="white" transform="translate(0.203125 -0.00012207)"/>
</clipPath>
</defs>
</svg>
