<svg width="33" height="33" viewBox="0 0 33 33" fill="none" xmlns="http://www.w3.org/2000/svg">
<circle cx="16.7444" cy="16.5419" r="15.9778" fill="#F2F2FF"/>
<path fill-rule="evenodd" clip-rule="evenodd" d="M13.2806 26.5618C13.2098 26.4915 13.1536 26.4081 13.1152 26.3162C13.0769 26.2243 13.0571 26.1258 13.0571 26.0263C13.0571 25.9269 13.0769 25.8284 13.1152 25.7365C13.1536 25.6446 13.2098 25.5611 13.2806 25.4909L21.8714 16.9513L13.2806 8.41161C13.1378 8.26961 13.0575 8.07701 13.0575 7.87618C13.0575 7.67536 13.1378 7.48276 13.2806 7.34075C13.4234 7.19875 13.6171 7.11897 13.8191 7.11897C14.0211 7.11897 14.2149 7.19875 14.3577 7.34075L23.4855 16.4158C23.5564 16.4861 23.6126 16.5695 23.6509 16.6614C23.6892 16.7533 23.709 16.8518 23.709 16.9513C23.709 17.0507 23.6892 17.1492 23.6509 17.2411C23.6126 17.333 23.5564 17.4164 23.4855 17.4867L14.3577 26.5618C14.287 26.6322 14.2031 26.6881 14.1107 26.7262C14.0183 26.7643 13.9192 26.7839 13.8191 26.7839C13.7191 26.7839 13.62 26.7643 13.5276 26.7262C13.4352 26.6881 13.3513 26.6322 13.2806 26.5618Z" fill="#625DF8"/>
</svg>
