<svg width="42" height="42" viewBox="0 0 42 42" fill="none" xmlns="http://www.w3.org/2000/svg">
<g clip-path="url(#clip0_294_368)">
<path d="M40.4479 34.7185H37.0324V11.6904C37.0324 11.2141 36.6241 10.799 36.1479 10.799H31.0246V1.44211C31.0246 0.965763 30.6163 0.550659 30.1333 0.550659H11.4091C10.9328 0.550659 10.5178 0.958958 10.5178 1.44211V10.799H5.39446C4.91819 10.799 4.50316 11.2073 4.50316 11.6904V34.7185H1.09443C0.61816 34.7185 0.203125 35.1268 0.203125 35.6099V36.8416C0.203125 39.4411 2.31912 41.5575 4.91819 41.5575H36.4813C39.0803 41.5575 41.1963 39.4411 41.1963 36.8416V35.6099C41.2644 35.1336 40.8561 34.7185 40.4479 34.7185ZM12.2255 2.25871H29.3032V26.1782H12.2255V2.25871ZM6.27896 12.507H10.5178V27.0629C10.5178 27.5392 10.926 27.9543 11.4091 27.9543H30.2013C30.6776 27.9543 31.0858 27.546 31.0858 27.0629V12.507H35.3926V34.7185H6.28577V12.507H6.27896ZM39.5566 36.8348C39.5566 38.4748 38.189 39.8426 36.5493 39.8426H4.98623C3.3465 39.8426 1.97893 38.4748 1.97893 36.8348V36.4265H39.5566V36.8348Z" fill="black"/>
<path d="M14.8249 6.56629H26.7793C27.2555 6.56629 27.6706 6.15799 27.6706 5.67484C27.6706 5.19169 27.2623 4.78339 26.7793 4.78339H14.8249C14.3486 4.78339 13.9336 5.19169 13.9336 5.67484C13.9336 6.15799 14.3418 6.56629 14.8249 6.56629Z" fill="black"/>
<path d="M14.8249 10.799H26.7793C27.2555 10.799 27.6706 10.3907 27.6706 9.9075C27.6706 9.42435 27.2623 9.01605 26.7793 9.01605H14.8249C14.3486 9.01605 13.9336 9.42435 13.9336 9.9075C13.9336 10.3907 14.3418 10.799 14.8249 10.799Z" fill="black"/>
<path d="M14.8249 15.1065H26.7793C27.2555 15.1065 27.6706 14.6982 27.6706 14.2151C27.6706 13.7319 27.2623 13.3236 26.7793 13.3236H14.8249C14.3486 13.3236 13.9336 13.7319 13.9336 14.2151C13.9336 14.6982 14.3418 15.1065 14.8249 15.1065Z" fill="black"/>
<path d="M14.8249 19.346H26.7793C27.2555 19.346 27.6706 18.9377 27.6706 18.4546C27.6706 17.9714 27.2623 17.5631 26.7793 17.5631H14.8249C14.3486 17.5631 13.9336 17.9714 13.9336 18.4546C13.9336 18.9377 14.3418 19.346 14.8249 19.346Z" fill="black"/>
<path d="M14.8249 23.6468H26.7793C27.2555 23.6468 27.6706 23.2385 27.6706 22.7553C27.6706 22.2722 27.2623 21.8639 26.7793 21.8639H14.8249C14.3486 21.8639 13.9336 22.2722 13.9336 22.7553C13.9336 23.2385 14.3418 23.6468 14.8249 23.6468Z" fill="black"/>
</g>
<defs>
<clipPath id="clip0_294_368">
<rect width="41" height="41" fill="white" transform="translate(0.203125 0.550659)"/>
</clipPath>
</defs>
</svg>
