<svg width="28" height="45" viewBox="0 0 28 45" fill="none" xmlns="http://www.w3.org/2000/svg">
<g clip-path="url(#clip0_266_345)">
<path d="M17.6162 19.6139C16.3051 18.7272 14.6249 19.0883 13.7427 20.4196C13.0044 21.5327 11.8942 21.6701 11.4626 21.6701C10.0593 21.6701 9.10107 20.6891 8.81606 19.6758C8.81606 19.6758 8.81063 19.657 8.80792 19.6462C8.8052 19.6354 8.80249 19.6246 8.79706 19.6112C8.68577 19.1881 8.65591 18.9859 8.65591 18.5359C8.65591 16.1131 11.164 13.4128 14.7742 13.4128C18.3843 13.4128 20.5884 16.2075 21.1313 17.7597C21.1232 17.7328 21.1123 17.7058 21.1042 17.6762C20.0537 14.639 17.152 12.4561 13.7373 12.4561C9.44037 12.4561 5.95508 15.9164 5.95508 20.1852C5.95508 24.0012 8.72377 27.2675 12.5701 27.2675C15.6374 27.2675 17.6976 25.5589 18.6422 23.2062C19.1607 21.9207 18.7942 20.4062 17.6134 19.6139" fill="#003668"/>
<path d="M21.1797 17.9107C20.7237 16.3961 18.5929 13.4128 14.7738 13.4128C11.1636 13.4128 8.6582 16.1132 8.6582 18.5386C8.6582 18.9887 8.68535 19.1908 8.79664 19.6139C8.75049 19.4279 8.72606 19.242 8.72606 19.0614C8.72606 16.5336 11.2722 14.7846 13.8916 14.7846C17.4366 14.7846 20.3111 17.6385 20.3111 21.1581C20.3111 23.9177 18.7124 26.3054 16.3888 27.4534C19.3828 26.3782 21.5245 23.5296 21.5245 20.1852C21.5245 19.3929 21.4159 18.6949 21.1825 17.9107" fill="#E6002D"/>
</g>
<path d="M5.46031 31.0168V30.498H8.23525V31.0168H7.05346L8.28406 32.5307L7.86747 32.8807L6.87044 31.6287L5.8891 32.9633L5.45508 32.6134L6.68568 31.0168H5.46031ZM9.30375 34.1942C9.30375 34.3577 9.27063 34.5125 9.20439 34.6566C9.13816 34.8008 9.04752 34.9274 8.93596 35.0365C8.82441 35.1455 8.69193 35.2316 8.5368 35.2967C8.38341 35.36 8.21957 35.3934 8.047 35.3934C7.87444 35.3934 7.71408 35.3618 7.55895 35.2967C7.40382 35.2334 7.2696 35.1455 7.15804 35.0365C7.04649 34.9274 6.95759 34.8008 6.88961 34.6566C6.82338 34.5125 6.78852 34.3595 6.78852 34.1942C6.78852 34.0289 6.82163 33.8759 6.88961 33.7317C6.95585 33.5875 7.04475 33.4609 7.15804 33.3519C7.2696 33.2429 7.40382 33.1567 7.55895 33.0917C7.71408 33.0284 7.87793 32.9967 8.047 32.9967C8.21608 32.9967 8.38341 33.0284 8.5368 33.0917C8.69019 33.155 8.82441 33.2429 8.93596 33.3519C9.04752 33.4609 9.13816 33.5875 9.20439 33.7317C9.27063 33.8759 9.30375 34.0289 9.30375 34.1942ZM8.71285 34.1889C8.71285 34.006 8.64662 33.8495 8.51414 33.7177C8.38167 33.5858 8.2248 33.5207 8.04003 33.5207C7.85527 33.5207 7.70362 33.5858 7.57464 33.7177C7.44391 33.8495 7.37941 34.006 7.37941 34.1889C7.37941 34.3718 7.44391 34.5318 7.57464 34.6619C7.70536 34.7903 7.8605 34.8553 8.04003 34.8553C8.21957 34.8553 8.38167 34.7903 8.51414 34.6619C8.64662 34.5318 8.71285 34.3753 8.71285 34.1889ZM9.11375 32.9422V31.8872H8.21434V31.3614H9.11375V30.3556H9.71685V32.9422H9.11375Z" fill="#595857"/>
<path d="M10.4297 33.4399H14.8745V33.9762H12.9501V35.2334H12.3488V33.9762H10.4297V33.4399ZM11.3779 31.0555H13.921V30.4365H14.5172V32.7822H10.7888V30.4383H11.3797V31.0572L11.3779 31.0555ZM13.921 31.5795H11.3779V32.253H13.921V31.5795Z" fill="#595857"/>
<path d="M18.7264 35.295H15.6865V34.611L17.4226 32.9809C17.4488 32.9563 17.4784 32.9282 17.5098 32.8965C17.766 32.6539 18.1529 32.2864 18.1529 31.8397C18.1529 31.3931 17.9141 30.841 17.2431 30.841C16.708 30.841 16.3471 31.1856 16.2809 31.7641L16.2652 31.8819L15.6883 31.7958L15.7057 31.6727C15.9027 30.44 16.8317 30.3082 17.2222 30.3082C18.1355 30.3082 18.7264 30.9236 18.7264 31.8731C18.7264 32.4816 18.3238 32.8825 17.9978 33.2043L17.9438 33.2588L16.3454 34.7622H18.7264V35.295Z" fill="#595857"/>
<path d="M22.3607 33.8407H21.8221V30.3749H21.3131L19.082 33.7599V34.3735H21.28V35.2932H21.8221V34.3735H22.4548V33.8407H22.3607ZM19.6729 33.8407L21.28 31.3561V33.8407H19.6729Z" fill="#595857"/>
<rect x="1.25645" y="1.10612" width="25.3963" height="42.7" rx="1.35" stroke="black" stroke-width="1.3"/>
<rect x="10.4551" y="4.45612" width="7" height="1" fill="#111111"/>
<defs>
<clipPath id="clip0_266_345">
<rect width="16" height="15" fill="white" transform="translate(5.95508 12.4561)"/>
</clipPath>
</defs>
</svg>
