<svg width="39" height="40" viewBox="0 0 39 40" fill="none" xmlns="http://www.w3.org/2000/svg">
<circle cx="19.5" cy="19.5419" r="19.5" fill="#F2F2FF"/>
<path fill-rule="evenodd" clip-rule="evenodd" d="M15.2727 31.7708C15.1863 31.6851 15.1177 31.5832 15.0709 31.4711C15.0241 31.359 15 31.2388 15 31.1174C15 30.996 15.0241 30.8758 15.0709 30.7636C15.1177 30.6515 15.1863 30.5496 15.2727 30.4639L25.7573 20.0418L15.2727 9.61959C15.0984 9.44628 15.0005 9.21122 15.0005 8.96613C15.0005 8.72103 15.0984 8.48597 15.2727 8.31266C15.447 8.13936 15.6835 8.04199 15.93 8.04199C16.1765 8.04199 16.4129 8.13936 16.5873 8.31266L27.7273 19.3883C27.8137 19.474 27.8823 19.5759 27.9291 19.688C27.9759 19.8001 28 19.9203 28 20.0418C28 20.1632 27.9759 20.2834 27.9291 20.3955C27.8823 20.5076 27.8137 20.6095 27.7273 20.6952L16.5873 31.7708C16.501 31.8568 16.3986 31.925 16.2858 31.9715C16.173 32.018 16.0521 32.042 15.93 32.042C15.8079 32.042 15.687 32.018 15.5742 31.9715C15.4614 31.925 15.359 31.8568 15.2727 31.7708Z" fill="#625DF8"/>
</svg>
