<svg width="77" height="62" viewBox="0 0 77 62" fill="none" xmlns="http://www.w3.org/2000/svg">
<rect x="24.9336" y="17.1454" width="27.4375" height="27.4375" rx="2" fill="url(#paint0_linear_196_1326)"/>
<g filter="url(#filter0_bi_196_1326)">
<path d="M28.3633 6.85632C30.2574 6.85632 31.793 5.3208 31.793 3.42664C31.793 1.53247 30.2574 -0.00305176 28.3633 -0.00305176H21.5039C13.9272 -0.00305176 7.78516 6.13904 7.78516 13.7157V20.5751C7.78516 22.4692 9.32068 24.0048 11.2148 24.0048C13.109 24.0048 14.6445 22.4692 14.6445 20.5751V13.7157C14.6445 9.92737 17.7156 6.85632 21.5039 6.85632H28.3633Z" fill="#F1F1F1" fill-opacity="0.1"/>
<path d="M28.3633 6.85632C30.2574 6.85632 31.793 5.3208 31.793 3.42664C31.793 1.53247 30.2574 -0.00305176 28.3633 -0.00305176H21.5039C13.9272 -0.00305176 7.78516 6.13904 7.78516 13.7157V20.5751C7.78516 22.4692 9.32068 24.0048 11.2148 24.0048C13.109 24.0048 14.6445 22.4692 14.6445 20.5751V13.7157C14.6445 9.92737 17.7156 6.85632 21.5039 6.85632H28.3633Z" fill="url(#paint1_linear_196_1326)" fill-opacity="0.2"/>
<path d="M14.6445 48.0126V37.7235H62.6602V48.0126C62.6602 51.8009 59.5891 54.8719 55.8008 54.8719H48.9414C47.0472 54.8719 45.5117 56.4075 45.5117 58.3016C45.5117 60.1958 47.0472 61.7313 48.9414 61.7313H55.8008C63.3774 61.7313 69.5195 55.5892 69.5195 48.0126V37.7235H72.9492C74.8434 37.7235 76.3789 36.188 76.3789 34.2938C76.3789 32.3997 74.8434 30.8641 72.9492 30.8641H4.35547C2.4613 30.8641 0.925781 32.3997 0.925781 34.2938C0.925781 36.188 2.46131 37.7235 4.35547 37.7235H7.78516V48.0126C7.78516 55.5892 13.9272 61.7313 21.5039 61.7313H28.3633C30.2574 61.7313 31.793 60.1958 31.793 58.3016C31.793 56.4075 30.2574 54.8719 28.3633 54.8719H21.5039C17.7156 54.8719 14.6445 51.8009 14.6445 48.0126Z" fill="#F1F1F1" fill-opacity="0.1"/>
<path d="M14.6445 48.0126V37.7235H62.6602V48.0126C62.6602 51.8009 59.5891 54.8719 55.8008 54.8719H48.9414C47.0472 54.8719 45.5117 56.4075 45.5117 58.3016C45.5117 60.1958 47.0472 61.7313 48.9414 61.7313H55.8008C63.3774 61.7313 69.5195 55.5892 69.5195 48.0126V37.7235H72.9492C74.8434 37.7235 76.3789 36.188 76.3789 34.2938C76.3789 32.3997 74.8434 30.8641 72.9492 30.8641H4.35547C2.4613 30.8641 0.925781 32.3997 0.925781 34.2938C0.925781 36.188 2.46131 37.7235 4.35547 37.7235H7.78516V48.0126C7.78516 55.5892 13.9272 61.7313 21.5039 61.7313H28.3633C30.2574 61.7313 31.793 60.1958 31.793 58.3016C31.793 56.4075 30.2574 54.8719 28.3633 54.8719H21.5039C17.7156 54.8719 14.6445 51.8009 14.6445 48.0126Z" fill="url(#paint2_linear_196_1326)" fill-opacity="0.2"/>
<path d="M66.0898 24.0048C64.1957 24.0048 62.6602 22.4692 62.6602 20.5751V13.7157C62.6602 9.92737 59.5891 6.85632 55.8008 6.85632H48.9414C47.0472 6.85632 45.5117 5.3208 45.5117 3.42664C45.5117 1.53247 47.0472 -0.00305176 48.9414 -0.00305176H55.8008C63.3774 -0.00305176 69.5195 6.13904 69.5195 13.7157V20.5751C69.5195 22.4692 67.984 24.0048 66.0898 24.0048Z" fill="#F1F1F1" fill-opacity="0.1"/>
<path d="M66.0898 24.0048C64.1957 24.0048 62.6602 22.4692 62.6602 20.5751V13.7157C62.6602 9.92737 59.5891 6.85632 55.8008 6.85632H48.9414C47.0472 6.85632 45.5117 5.3208 45.5117 3.42664C45.5117 1.53247 47.0472 -0.00305176 48.9414 -0.00305176H55.8008C63.3774 -0.00305176 69.5195 6.13904 69.5195 13.7157V20.5751C69.5195 22.4692 67.984 24.0048 66.0898 24.0048Z" fill="url(#paint3_linear_196_1326)" fill-opacity="0.2"/>
<path d="M14.6445 37.6235H14.5445V37.7235V48.0126C14.5445 51.8561 17.6603 54.9719 21.5039 54.9719H28.3633C30.2022 54.9719 31.693 56.4627 31.693 58.3016C31.693 60.1406 30.2022 61.6313 28.3633 61.6313H21.5039C13.9825 61.6313 7.88516 55.534 7.88516 48.0126V37.7235V37.6235H7.78516H4.35547C2.51653 37.6235 1.02578 36.1328 1.02578 34.2938C1.02578 32.4549 2.51653 30.9641 4.35547 30.9641H72.9492C74.7882 30.9641 76.2789 32.4549 76.2789 34.2938C76.2789 36.1328 74.7882 37.6235 72.9492 37.6235H69.5195H69.4195V37.7235V48.0126C69.4195 55.534 63.3222 61.6313 55.8008 61.6313H48.9414C47.1025 61.6313 45.6117 60.1406 45.6117 58.3016C45.6117 56.4627 47.1025 54.9719 48.9414 54.9719H55.8008C59.6443 54.9719 62.7602 51.8561 62.7602 48.0126V37.7235V37.6235H62.6602H14.6445ZM31.693 3.42664C31.693 5.26557 30.2022 6.75632 28.3633 6.75632H21.5039C17.6603 6.75632 14.5445 9.87214 14.5445 13.7157V20.5751C14.5445 22.414 13.0538 23.9048 11.2148 23.9048C9.37591 23.9048 7.88516 22.414 7.88516 20.5751V13.7157C7.88516 6.19427 13.9825 0.0969482 21.5039 0.0969482H28.3633C30.2022 0.0969482 31.693 1.5877 31.693 3.42664ZM66.0898 23.9048C64.2509 23.9048 62.7602 22.414 62.7602 20.5751V13.7157C62.7602 9.87214 59.6443 6.75632 55.8008 6.75632H48.9414C47.1025 6.75632 45.6117 5.26557 45.6117 3.42664C45.6117 1.5877 47.1025 0.0969482 48.9414 0.0969482H55.8008C63.3222 0.0969482 69.4195 6.19427 69.4195 13.7157V20.5751C69.4195 22.414 67.9288 23.9048 66.0898 23.9048Z" stroke="url(#paint4_linear_196_1326)" stroke-opacity="0.1" stroke-width="0.2"/>
</g>
<defs>
<filter id="filter0_bi_196_1326" x="-2.07422" y="-3.00305" width="81.4531" height="67.7344" filterUnits="userSpaceOnUse" color-interpolation-filters="sRGB">
<feFlood flood-opacity="0" result="BackgroundImageFix"/>
<feGaussianBlur in="BackgroundImageFix" stdDeviation="1.5"/>
<feComposite in2="SourceAlpha" operator="in" result="effect1_backgroundBlur_196_1326"/>
<feBlend mode="normal" in="SourceGraphic" in2="effect1_backgroundBlur_196_1326" result="shape"/>
<feColorMatrix in="SourceAlpha" type="matrix" values="0 0 0 0 0 0 0 0 0 0 0 0 0 0 0 0 0 0 127 0" result="hardAlpha"/>
<feOffset dy="0.5"/>
<feGaussianBlur stdDeviation="1"/>
<feComposite in2="hardAlpha" operator="arithmetic" k2="-1" k3="1"/>
<feColorMatrix type="matrix" values="0 0 0 0 1 0 0 0 0 1 0 0 0 0 1 0 0 0 0.4 0"/>
<feBlend mode="normal" in2="shape" result="effect2_innerShadow_196_1326"/>
</filter>
<linearGradient id="paint0_linear_196_1326" x1="24.9336" y1="17.1454" x2="57.2541" y2="25.3522" gradientUnits="userSpaceOnUse">
<stop stop-color="#FFD482"/>
<stop offset="1" stop-color="#FF377F"/>
</linearGradient>
<linearGradient id="paint1_linear_196_1326" x1="0.925781" y1="-0.00305176" x2="87.2259" y2="26.7798" gradientUnits="userSpaceOnUse">
<stop stop-color="#FFD482"/>
<stop offset="1" stop-color="#FF377F"/>
</linearGradient>
<linearGradient id="paint2_linear_196_1326" x1="0.925781" y1="-0.00305176" x2="87.2259" y2="26.7798" gradientUnits="userSpaceOnUse">
<stop stop-color="#FFD482"/>
<stop offset="1" stop-color="#FF377F"/>
</linearGradient>
<linearGradient id="paint3_linear_196_1326" x1="0.925781" y1="-0.00305176" x2="87.2259" y2="26.7798" gradientUnits="userSpaceOnUse">
<stop stop-color="#FFD482"/>
<stop offset="1" stop-color="#FF377F"/>
</linearGradient>
<linearGradient id="paint4_linear_196_1326" x1="3.28369" y1="2.80306" x2="76.3789" y2="2.80306" gradientUnits="userSpaceOnUse">
<stop stop-color="#FFC282"/>
<stop offset="1" stop-color="#FF4980"/>
</linearGradient>
</defs>
</svg>
