<svg width="116" height="112" viewBox="0 0 116 112" fill="none" xmlns="http://www.w3.org/2000/svg">
<path d="M68.6893 109.61C68.6893 109.61 78.9193 93.78 79.9593 86.45C79.9593 86.45 97.9993 56.97 111.489 60.24C111.489 60.24 119.439 65.99 112.679 83.47C112.679 83.47 103.897 103.23 84.8193 110.959H66.4552L68.6893 109.61Z" fill="url(#paint0_linear_539_626)"/>
<path d="M30.9894 72.63L30.1895 72.44L35.3094 51.38L36.0995 51.57L30.9894 72.63Z" fill="#D8DEF7"/>
<path d="M54.6096 110.94C54.6096 110.94 60.043 89.998 35.5052 50.0143C35.5052 50.0143 19.7796 26.62 4.63963 38.06C4.63963 38.06 -4.8734 45.7294 10.3566 66.6094C10.3566 66.6094 37.228 102.249 54.6096 110.94Z" fill="url(#paint1_linear_539_626)"/>
<path d="M54.7501 108.75C54.7501 108.75 57.1201 100.95 49.5801 78.52C49.5801 78.52 53.9201 64.68 58.7701 59.49L66.4301 47.39H74.3401L68.6901 40.98L91.7001 3.22998L86.8501 48.04L83.8501 69.74L76.6601 73.3L81.6901 75.83C81.6901 75.83 76.2501 106.65 65.7801 111.17L53.7501 110.96L54.7401 108.73L54.7501 108.75Z" fill="url(#paint2_linear_539_626)"/>
<path d="M36.7 85.33H35.25C28.6226 85.33 23.25 90.7025 23.25 97.33V98.78C23.25 105.407 28.6226 110.78 35.25 110.78H36.7C43.3274 110.78 48.7 105.407 48.7 98.78V97.33C48.7 90.7025 43.3274 85.33 36.7 85.33Z" fill="url(#paint3_linear_539_626)"/>
<path d="M53.7601 110.98C52.9901 110.98 51.8201 110.2 49.3901 108.56C48.3901 107.89 47.1701 107.08 45.6701 106.1L46.1201 105.42C47.6201 106.39 48.8401 107.21 49.8501 107.88C52.2601 109.49 53.5701 110.41 53.9101 110.09C56.0601 108.15 55.0801 96.61 49.7401 81.37C43.6701 64 32.1001 41.76 19.4901 36.24C15.6401 34.55 11.8501 34.49 8.24006 36.06C4.77006 37.56 2.66007 39.88 1.97007 42.94C-0.589925 54.3 16.2801 73.54 24.3901 82.8C26.3201 85 27.7101 86.58 28.3701 87.52L27.7101 87.99C27.0701 87.09 25.6201 85.44 23.7801 83.34C15.5801 73.99 -1.46993 54.53 1.18007 42.77C1.93007 39.44 4.20009 36.93 7.92009 35.32C11.7501 33.66 15.7701 33.73 19.8301 35.5C32.6701 41.12 44.1101 62.75 50.5301 81.11C55.5501 95.47 57.2401 108.2 54.4701 110.71C54.2601 110.9 54.0401 110.99 53.7801 110.99L53.7601 110.98Z" fill="#625DF8"/>
<path d="M66.4907 111.23L66.0907 110.52C75.7307 105.06 81.0607 79.08 81.6907 75.86L74.7507 73.07L83.3707 69.71L91.4007 4.3L69.2507 40.4L75.4007 47.41H66.4307C64.8407 49.73 48.3107 74.13 50.5107 81.12L49.7307 81.37C47.3107 73.69 65.1207 47.87 65.8807 46.78L66.0007 46.6H73.6007L68.2307 40.49L68.3907 40.23L92.6607 0.679993L84.1107 70.3L76.9507 73.09L82.6007 75.36L82.5407 75.69C82.3207 76.9 77.0407 105.27 66.4807 111.25L66.4907 111.23Z" fill="#625DF8"/>
<path d="M54.5198 110.62L53.8398 110.17C81.0298 68.69 82.7099 17.5 82.7299 16.98L83.5399 17C83.5299 17.51 81.8398 68.93 54.5198 110.61V110.62Z" fill="#625DF8"/>
<path d="M38.3506 85.77L16.8906 51.32L17.5806 50.89L39.0506 85.34L38.3506 85.77Z" fill="#625DF8"/>
<path d="M48.6771 100.611L47.8115 101.15L53.742 110.663L54.6075 110.124L48.6771 100.611Z" fill="#625DF8"/>
<path d="M85.3303 110.85L85.0303 110.09C107.09 101.3 115.67 79.82 114.52 68.07C114.09 63.7 112.33 60.91 109.67 60.41C99.1003 58.4 80.1503 86.16 79.9603 86.44L79.2803 85.99C80.0403 84.87 97.3903 59.5 108.58 59.5C109 59.5 109.42 59.54 109.82 59.61C112.86 60.18 114.87 63.23 115.33 67.99C116.5 79.99 107.78 101.91 85.3303 110.85Z" fill="#625DF8"/>
<path d="M82.0801 110.92L81.4102 110.45L108.08 72.67L108.75 73.14L82.0801 110.92Z" fill="#625DF8"/>
<path d="M84.0248 80.4678L83.2461 80.6909L88.8381 100.205L89.6168 99.9824L84.0248 80.4678Z" fill="#625DF8"/>
<path d="M109.321 88.9073L93.2383 93.8334L93.4784 94.6175L109.561 89.6914L109.321 88.9073Z" fill="#625DF8"/>
<path d="M35.7104 111.32C28.3904 111.32 22.4404 105.37 22.4404 98.05C22.4404 90.73 28.3904 84.78 35.7104 84.78C43.0304 84.78 48.9804 90.73 48.9804 98.05C48.9804 105.37 43.0304 111.32 35.7104 111.32ZM35.7104 85.59C28.8404 85.59 23.2504 91.18 23.2504 98.05C23.2504 104.92 28.8404 110.51 35.7104 110.51C42.5804 110.51 48.1704 104.92 48.1704 98.05C48.1704 91.18 42.5804 85.59 35.7104 85.59Z" fill="#625DF8"/>
<path d="M22.8405 103.07C18.9405 103.07 15.7705 99.9 15.7705 96C15.7705 92.1 18.9405 88.93 22.8405 88.93C26.7405 88.93 29.9105 92.1 29.9105 96C29.9105 99.9 26.7405 103.07 22.8405 103.07ZM22.8405 89.74C19.3905 89.74 16.5805 92.55 16.5805 96C16.5805 99.45 19.3905 102.26 22.8405 102.26C26.2905 102.26 29.1005 99.45 29.1005 96C29.1005 92.55 26.2905 89.74 22.8405 89.74Z" fill="white"/>
<defs>
<linearGradient id="paint0_linear_539_626" x1="90.3995" y1="75.17" x2="76.194" y2="121.529" gradientUnits="userSpaceOnUse">
<stop stop-color="#FACF5C"/>
<stop offset="0.929181" stop-color="#FD8378"/>
</linearGradient>
<linearGradient id="paint1_linear_539_626" x1="1.48963" y1="72.08" x2="55.1215" y2="110.94" gradientUnits="userSpaceOnUse">
<stop stop-color="#FACF5C"/>
<stop offset="0.81916" stop-color="#FD8378"/>
</linearGradient>
<linearGradient id="paint2_linear_539_626" x1="94.043" y1="25.3657" x2="55.7961" y2="129.543" gradientUnits="userSpaceOnUse">
<stop stop-color="#72D9FD"/>
<stop offset="0.14" stop-color="#6FCCFD"/>
<stop offset="0.4" stop-color="#6AABFD"/>
<stop offset="0.75" stop-color="#6175FD"/>
<stop offset="1" stop-color="#5B4BFD"/>
</linearGradient>
<linearGradient id="paint3_linear_539_626" x1="29.2053" y1="90.2034" x2="23.25" y2="121.894" gradientUnits="userSpaceOnUse">
<stop stop-color="#72D9FD"/>
<stop offset="0.14" stop-color="#6FCCFD"/>
<stop offset="0.4" stop-color="#6AABFD"/>
<stop offset="0.75" stop-color="#6175FD"/>
<stop offset="1" stop-color="#5B4BFD"/>
</linearGradient>
</defs>
</svg>
