<svg width="130" height="119" viewBox="0 0 130 119" fill="none" xmlns="http://www.w3.org/2000/svg">
<path d="M50.0529 117.084C50.0529 117.084 39.098 100.132 37.9843 92.2831C37.9843 92.2831 18.6659 60.714 4.21991 64.2157C4.21991 64.2157 -4.29348 70.3732 2.94557 89.0919C2.94557 89.0919 12.3507 110.252 32.7798 118.529H52.4453L50.0529 117.084Z" fill="url(#paint0_linear_196_930)"/>
<path d="M90.4246 77.4837L91.2812 77.2803L85.7984 54.7279L84.9524 54.9314L90.4246 77.4837Z" fill="#D8DEF7"/>
<path d="M65.1307 118.509C65.1307 118.509 59.3123 96.0825 85.5889 53.2655C85.5889 53.2655 102.429 28.2134 118.642 40.4641C118.642 40.4641 128.829 48.677 112.52 71.0366C112.52 71.0366 83.7441 109.202 65.1307 118.509Z" fill="url(#paint1_linear_196_930)"/>
<path d="M64.9802 116.163C64.9802 116.163 62.4423 107.811 70.5166 83.7911C70.5166 83.7911 65.8691 68.9704 60.6754 63.4126L52.4726 50.4552H44.002L50.0524 43.591L25.4119 3.16592L30.6055 51.1513L33.8181 74.389L41.5176 78.2012L36.1312 80.9105C36.1312 80.9105 41.9567 113.915 53.1686 118.755L66.0511 118.53L64.9909 116.142L64.9802 116.163Z" fill="url(#paint2_linear_196_930)"/>
<path d="M84.3098 91.0838H85.8625C92.9596 91.0838 98.7129 96.8371 98.7129 103.934V105.487C98.7129 112.584 92.9596 118.337 85.8625 118.337H84.3098C77.2127 118.337 71.4594 112.584 71.4594 105.487V103.934C71.4594 96.8371 77.2127 91.0838 84.3098 91.0838Z" fill="url(#paint3_linear_196_930)"/>
<path d="M66.0403 118.551C66.8648 118.551 68.1177 117.716 70.7199 115.96C71.7908 115.242 73.0972 114.375 74.7035 113.325L74.2217 112.597C72.6154 113.636 71.3089 114.514 70.2273 115.232C67.6466 116.956 66.2437 117.941 65.8796 117.598C63.5773 115.521 64.6267 103.163 70.3452 86.8431C76.8453 68.2422 89.2352 44.4262 102.739 38.5151C106.862 36.7053 110.92 36.641 114.786 38.3223C118.502 39.9286 120.761 42.413 121.5 45.6898C124.242 57.8548 106.176 78.4582 97.4915 88.3744C95.4247 90.7303 93.9362 92.4222 93.2295 93.4289L93.9362 93.9322C94.6216 92.9684 96.1743 91.2015 98.1447 88.9527C106.926 78.9401 125.184 58.1011 122.346 45.5078C121.543 41.9418 119.112 39.2539 115.129 37.5299C111.027 35.7522 106.722 35.8272 102.375 37.7226C88.6248 43.7409 76.3741 66.9036 69.4992 86.5646C64.1234 101.942 62.3137 115.574 65.28 118.262C65.5048 118.466 65.7404 118.562 66.0189 118.562L66.0403 118.551Z" fill="#625DF8"/>
<path d="M52.4082 118.819L52.8365 118.059C42.5134 112.212 36.8057 84.3908 36.1311 80.9426L43.5629 77.9549L34.332 74.3568L25.733 4.31171L49.4526 42.9698L42.8668 50.4766H52.4724C54.1751 52.961 71.8764 79.09 69.5205 86.5753L70.3558 86.8431C72.9473 78.6188 53.8753 50.9692 53.0614 49.8019L52.9329 49.6092H44.7943L50.5449 43.0662L50.3735 42.7878L24.3837 0.435181L33.5396 74.9886L41.2069 77.9763L35.1566 80.4072L35.2208 80.7606C35.4564 82.0563 41.1106 112.437 52.4189 118.84L52.4082 118.819Z" fill="#625DF8"/>
<path d="M65.2269 118.166L65.9551 117.684C36.8383 73.2646 35.0393 18.4471 35.0179 17.8903L34.1505 17.9117C34.1612 18.4578 35.9709 73.5215 65.2269 118.155V118.166Z" fill="#625DF8"/>
<path d="M82.5418 91.5549L105.522 54.6637L104.784 54.2032L81.7922 91.0944L82.5418 91.5549Z" fill="#625DF8"/>
<path d="M71.4833 107.447L72.4102 108.025L66.0595 118.212L65.1326 117.634L71.4833 107.447Z" fill="#625DF8"/>
<path d="M32.2332 118.412L32.5545 117.598C8.93123 108.185 -0.256756 85.1832 0.974739 72.6006C1.43521 67.9209 3.3199 64.9332 6.16839 64.3978C17.4874 62.2454 37.7803 91.9725 37.9837 92.2723L38.7119 91.7904C37.8981 90.5911 19.3186 63.4233 7.33566 63.4233C6.8859 63.4233 6.43612 63.4661 6.00777 63.5411C2.75235 64.1515 0.599937 67.4176 0.107342 72.5149C-1.14557 85.3653 8.19235 108.839 32.2332 118.412Z" fill="#625DF8"/>
<path d="M35.7132 118.487L36.4307 117.984L7.87078 77.5266L7.15329 78.0299L35.7132 118.487Z" fill="#625DF8"/>
<path d="M33.631 85.8769L34.4648 86.1158L28.4766 107.013L27.6427 106.774L33.631 85.8769Z" fill="#625DF8"/>
<path d="M6.54256 94.9145L23.7646 100.19L23.5075 101.029L6.28539 95.7541L6.54256 94.9145Z" fill="#625DF8"/>
<path d="M85.3697 118.915C93.2085 118.915 99.5801 112.544 99.5801 104.705C99.5801 96.8663 93.2085 90.4947 85.3697 90.4947C77.531 90.4947 71.1594 96.8663 71.1594 104.705C71.1594 112.544 77.531 118.915 85.3697 118.915ZM85.3697 91.3621C92.7266 91.3621 98.7127 97.3482 98.7127 104.705C98.7127 112.062 92.7266 118.048 85.3697 118.048C78.0129 118.048 72.0268 112.062 72.0268 104.705C72.0268 97.3482 78.0129 91.3621 85.3697 91.3621Z" fill="#625DF8"/>
<path d="M99.1517 110.081C103.328 110.081 106.723 106.686 106.723 102.51C106.723 98.3334 103.328 94.9388 99.1517 94.9388C94.9753 94.9388 91.5806 98.3334 91.5806 102.51C91.5806 106.686 94.9753 110.081 99.1517 110.081ZM99.1517 95.8062C102.846 95.8062 105.855 98.8153 105.855 102.51C105.855 106.204 102.846 109.213 99.1517 109.213C95.4572 109.213 92.448 106.204 92.448 102.51C92.448 98.8153 95.4572 95.8062 99.1517 95.8062Z" fill="white"/>
<defs>
<linearGradient id="paint0_linear_196_930" x1="26.2368" y1="80.7404" x2="44.8601" y2="154.43" gradientUnits="userSpaceOnUse">
<stop stop-color="#FAC75F"/>
<stop offset="1" stop-color="#FA5F7B"/>
</linearGradient>
<linearGradient id="paint1_linear_196_930" x1="121.784" y1="53.9717" x2="133.475" y2="136.342" gradientUnits="userSpaceOnUse">
<stop stop-color="#FACF5C"/>
<stop offset="1" stop-color="#FD8378"/>
</linearGradient>
<linearGradient id="paint2_linear_196_930" x1="37.3022" y1="-1.75858" x2="56.9721" y2="203.682" gradientUnits="userSpaceOnUse">
<stop stop-color="#72D9FD"/>
<stop offset="0.14" stop-color="#6FCCFD"/>
<stop offset="0.4" stop-color="#6AABFD"/>
<stop offset="0.75" stop-color="#6175FD"/>
<stop offset="1" stop-color="#5B4BFD"/>
</linearGradient>
<linearGradient id="paint3_linear_196_930" x1="89.7552" y1="80.5634" x2="85.0862" y2="137.752" gradientUnits="userSpaceOnUse">
<stop stop-color="#72D9FD"/>
<stop offset="0.14" stop-color="#6FCCFD"/>
<stop offset="0.4" stop-color="#6AABFD"/>
<stop offset="0.75" stop-color="#6175FD"/>
<stop offset="1" stop-color="#5B4BFD"/>
</linearGradient>
</defs>
</svg>
