<svg width="95" height="133" viewBox="0 0 95 133" fill="none" xmlns="http://www.w3.org/2000/svg">
<path d="M57.0679 10.3499C54.2164 10.3499 51.8975 8.03099 51.8975 5.17953C51.8975 2.32808 54.2164 0.00912476 57.0679 0.00912476C59.9193 0.00912476 62.2383 2.32808 62.2383 5.17953C62.2383 8.03099 59.9193 10.3499 57.0679 10.3499ZM57.0679 0.59316C54.5371 0.59316 52.4815 2.64872 52.4815 5.17953C52.4815 7.71034 54.5371 9.76591 57.0679 9.76591C59.5987 9.76591 61.6543 7.71034 61.6543 5.17953C61.6543 2.64872 59.5987 0.59316 57.0679 0.59316Z" fill="#625DF8"/>
<path d="M85.8923 132.14C80.9123 132.14 76.8623 128.09 76.8623 123.11C76.8623 118.13 80.9123 114.08 85.8923 114.08C90.8723 114.08 94.9223 118.13 94.9223 123.11C94.9223 128.09 90.8723 132.14 85.8923 132.14ZM85.8923 115.1C81.4723 115.1 77.8823 118.69 77.8823 123.11C77.8823 127.53 81.4723 131.12 85.8923 131.12C90.3123 131.12 93.9023 127.53 93.9023 123.11C93.9023 118.69 90.3123 115.1 85.8923 115.1Z" fill="#625DF8"/>
<path d="M51.8984 45.4909H44.1015V37.6941H43.2305V45.4909H35.4336V46.3619H43.2305V54.1672H44.1015V46.3619H51.8984V45.4909Z" fill="#625DF8"/>
<path d="M22.3562 20.5111H12.1949V10.35H11.0597V20.5111H0.898438V21.6463H11.0597V31.8074H12.1949V21.6463H22.3562V20.5111Z" fill="#625DF8"/>
</svg>
