<svg width="64" height="66" viewBox="0 0 64 66" fill="none" xmlns="http://www.w3.org/2000/svg">
<path d="M58.2808 19.5045C55.4293 19.5045 53.1104 17.1855 53.1104 14.334C53.1104 11.4826 55.4293 9.16364 58.2808 9.16364C61.1322 9.16364 63.4512 11.4826 63.4512 14.334C63.4512 17.1855 61.1322 19.5045 58.2808 19.5045ZM58.2808 9.74767C55.75 9.74767 53.6944 11.8032 53.6944 14.334C53.6944 16.8649 55.75 18.9204 58.2808 18.9204C60.8116 18.9204 62.8671 16.8649 62.8671 14.334C62.8671 11.8032 60.8116 9.74767 58.2808 9.74767Z" fill="#625DF8"/>
<path d="M46.9885 58.1603H39.9693V51.1412H39.1852V58.1603H32.166V58.9444H39.1852V65.9711H39.9693V58.9444H46.9885V58.1603Z" fill="#625DF8"/>
<path d="M24.4159 12.0937H12.8492V0.527161H11.557V12.0937H-0.00976562V13.3859H11.557V24.9524H12.8492V13.3859H24.4159V12.0937Z" fill="#625DF8"/>
</svg>
