<svg width="94" height="158" viewBox="0 0 94 158" fill="none" xmlns="http://www.w3.org/2000/svg">
<circle cx="2.57715" cy="2.92526" r="2" fill="#E3E3E3" fill-opacity="0.8"/>
<circle cx="2.57715" cy="13.1049" r="2" fill="#E3E3E3" fill-opacity="0.8"/>
<circle cx="2.57715" cy="23.2845" r="2" fill="#E3E3E3" fill-opacity="0.8"/>
<circle cx="2.57715" cy="33.4641" r="2" fill="#E3E3E3" fill-opacity="0.8"/>
<circle cx="2.57715" cy="43.6437" r="2" fill="#E3E3E3" fill-opacity="0.8"/>
<circle cx="2.57715" cy="53.8233" r="2" fill="#E3E3E3" fill-opacity="0.8"/>
<circle cx="2.57715" cy="64.0029" r="2" fill="#E3E3E3" fill-opacity="0.8"/>
<circle cx="2.57715" cy="74.1825" r="2" fill="#E3E3E3" fill-opacity="0.8"/>
<circle cx="2.57715" cy="84.3621" r="2" fill="#E3E3E3" fill-opacity="0.8"/>
<circle cx="2.57715" cy="94.5417" r="2" fill="#E3E3E3" fill-opacity="0.8"/>
<circle cx="2.57715" cy="104.721" r="2" fill="#E3E3E3" fill-opacity="0.8"/>
<circle cx="2.57715" cy="114.901" r="2" fill="#E3E3E3" fill-opacity="0.8"/>
<circle cx="2.57715" cy="125.08" r="2" fill="#E3E3E3" fill-opacity="0.8"/>
<circle cx="2.57715" cy="135.26" r="2" fill="#E3E3E3" fill-opacity="0.8"/>
<circle cx="2.57715" cy="145.44" r="2" fill="#E3E3E3" fill-opacity="0.8"/>
<circle cx="2.57715" cy="155.619" r="2" fill="#E3E3E3" fill-opacity="0.8"/>
<circle cx="20.3916" cy="2.92526" r="2" fill="#E3E3E3" fill-opacity="0.8"/>
<circle cx="20.3916" cy="13.1049" r="2" fill="#E3E3E3" fill-opacity="0.8"/>
<circle cx="20.3916" cy="23.2845" r="2" fill="#E3E3E3" fill-opacity="0.8"/>
<circle cx="20.3916" cy="33.4641" r="2" fill="#E3E3E3" fill-opacity="0.8"/>
<circle cx="20.3916" cy="43.6437" r="2" fill="#E3E3E3" fill-opacity="0.8"/>
<circle cx="20.3916" cy="53.8233" r="2" fill="#E3E3E3" fill-opacity="0.8"/>
<circle cx="20.3916" cy="64.0029" r="2" fill="#E3E3E3" fill-opacity="0.8"/>
<circle cx="20.3916" cy="74.1825" r="2" fill="#E3E3E3" fill-opacity="0.8"/>
<circle cx="20.3916" cy="84.3621" r="2" fill="#E3E3E3" fill-opacity="0.8"/>
<circle cx="20.3916" cy="94.5417" r="2" fill="#E3E3E3" fill-opacity="0.8"/>
<circle cx="20.3916" cy="104.721" r="2" fill="#E3E3E3" fill-opacity="0.8"/>
<circle cx="20.3916" cy="114.901" r="2" fill="#E3E3E3" fill-opacity="0.8"/>
<circle cx="20.3916" cy="125.08" r="2" fill="#E3E3E3" fill-opacity="0.8"/>
<circle cx="20.3916" cy="135.26" r="2" fill="#E3E3E3" fill-opacity="0.8"/>
<circle cx="20.3916" cy="145.44" r="2" fill="#E3E3E3" fill-opacity="0.8"/>
<circle cx="20.3916" cy="155.619" r="2" fill="#E3E3E3" fill-opacity="0.8"/>
<circle cx="38.2061" cy="2.92526" r="2" fill="#E3E3E3" fill-opacity="0.8"/>
<circle cx="38.2061" cy="13.1049" r="2" fill="#E3E3E3" fill-opacity="0.8"/>
<circle cx="38.2061" cy="23.2845" r="2" fill="#E3E3E3" fill-opacity="0.8"/>
<circle cx="38.2061" cy="33.4641" r="2" fill="#E3E3E3" fill-opacity="0.8"/>
<circle cx="38.2061" cy="43.6437" r="2" fill="#E3E3E3" fill-opacity="0.8"/>
<circle cx="38.2061" cy="53.8233" r="2" fill="#E3E3E3" fill-opacity="0.8"/>
<circle cx="38.2061" cy="64.0029" r="2" fill="#E3E3E3" fill-opacity="0.8"/>
<circle cx="38.2061" cy="74.1825" r="2" fill="#E3E3E3" fill-opacity="0.8"/>
<circle cx="38.2061" cy="84.3621" r="2" fill="#E3E3E3" fill-opacity="0.8"/>
<circle cx="38.2061" cy="94.5417" r="2" fill="#E3E3E3" fill-opacity="0.8"/>
<circle cx="38.2061" cy="104.721" r="2" fill="#E3E3E3" fill-opacity="0.8"/>
<circle cx="38.2061" cy="114.901" r="2" fill="#E3E3E3" fill-opacity="0.8"/>
<circle cx="38.2061" cy="125.08" r="2" fill="#E3E3E3" fill-opacity="0.8"/>
<circle cx="38.2061" cy="135.26" r="2" fill="#E3E3E3" fill-opacity="0.8"/>
<circle cx="38.2061" cy="145.44" r="2" fill="#E3E3E3" fill-opacity="0.8"/>
<circle cx="38.2061" cy="155.619" r="2" fill="#E3E3E3" fill-opacity="0.8"/>
<circle cx="56.0205" cy="2.92526" r="2" fill="#E3E3E3" fill-opacity="0.8"/>
<circle cx="56.0205" cy="13.1049" r="2" fill="#E3E3E3" fill-opacity="0.8"/>
<circle cx="56.0205" cy="23.2845" r="2" fill="#E3E3E3" fill-opacity="0.8"/>
<circle cx="56.0205" cy="33.4641" r="2" fill="#E3E3E3" fill-opacity="0.8"/>
<circle cx="56.0205" cy="43.6437" r="2" fill="#E3E3E3" fill-opacity="0.8"/>
<circle cx="56.0205" cy="53.8233" r="2" fill="#E3E3E3" fill-opacity="0.8"/>
<circle cx="56.0205" cy="64.0029" r="2" fill="#E3E3E3" fill-opacity="0.8"/>
<circle cx="56.0205" cy="74.1825" r="2" fill="#E3E3E3" fill-opacity="0.8"/>
<circle cx="56.0205" cy="84.3621" r="2" fill="#E3E3E3" fill-opacity="0.8"/>
<circle cx="56.0205" cy="94.5417" r="2" fill="#E3E3E3" fill-opacity="0.8"/>
<circle cx="56.0205" cy="104.721" r="2" fill="#E3E3E3" fill-opacity="0.8"/>
<circle cx="56.0205" cy="114.901" r="2" fill="#E3E3E3" fill-opacity="0.8"/>
<circle cx="56.0205" cy="125.08" r="2" fill="#E3E3E3" fill-opacity="0.8"/>
<circle cx="56.0205" cy="135.26" r="2" fill="#E3E3E3" fill-opacity="0.8"/>
<circle cx="56.0205" cy="145.44" r="2" fill="#E3E3E3" fill-opacity="0.8"/>
<circle cx="56.0205" cy="155.619" r="2" fill="#E3E3E3" fill-opacity="0.8"/>
<circle cx="73.834" cy="2.92526" r="2" fill="#E3E3E3" fill-opacity="0.8"/>
<circle cx="73.834" cy="13.1049" r="2" fill="#E3E3E3" fill-opacity="0.8"/>
<circle cx="73.834" cy="23.2845" r="2" fill="#E3E3E3" fill-opacity="0.8"/>
<circle cx="73.834" cy="33.4641" r="2" fill="#E3E3E3" fill-opacity="0.8"/>
<circle cx="73.834" cy="43.6437" r="2" fill="#E3E3E3" fill-opacity="0.8"/>
<circle cx="73.834" cy="53.8233" r="2" fill="#E3E3E3" fill-opacity="0.8"/>
<circle cx="73.834" cy="64.0029" r="2" fill="#E3E3E3" fill-opacity="0.8"/>
<circle cx="73.834" cy="74.1825" r="2" fill="#E3E3E3" fill-opacity="0.8"/>
<circle cx="73.834" cy="84.3621" r="2" fill="#E3E3E3" fill-opacity="0.8"/>
<circle cx="73.834" cy="94.5417" r="2" fill="#E3E3E3" fill-opacity="0.8"/>
<circle cx="73.834" cy="104.721" r="2" fill="#E3E3E3" fill-opacity="0.8"/>
<circle cx="73.834" cy="114.901" r="2" fill="#E3E3E3" fill-opacity="0.8"/>
<circle cx="73.834" cy="125.08" r="2" fill="#E3E3E3" fill-opacity="0.8"/>
<circle cx="73.834" cy="135.26" r="2" fill="#E3E3E3" fill-opacity="0.8"/>
<circle cx="73.834" cy="145.44" r="2" fill="#E3E3E3" fill-opacity="0.8"/>
<circle cx="73.834" cy="155.619" r="2" fill="#E3E3E3" fill-opacity="0.8"/>
<circle cx="91.6484" cy="2.92526" r="2" fill="#E3E3E3" fill-opacity="0.8"/>
<circle cx="91.6484" cy="13.1049" r="2" fill="#E3E3E3" fill-opacity="0.8"/>
<circle cx="91.6484" cy="23.2845" r="2" fill="#E3E3E3" fill-opacity="0.8"/>
<circle cx="91.6484" cy="33.4641" r="2" fill="#E3E3E3" fill-opacity="0.8"/>
<circle cx="91.6484" cy="43.6437" r="2" fill="#E3E3E3" fill-opacity="0.8"/>
<circle cx="91.6484" cy="53.8233" r="2" fill="#E3E3E3" fill-opacity="0.8"/>
<circle cx="91.6484" cy="64.0029" r="2" fill="#E3E3E3" fill-opacity="0.8"/>
<circle cx="91.6484" cy="74.1825" r="2" fill="#E3E3E3" fill-opacity="0.8"/>
<circle cx="91.6484" cy="84.3621" r="2" fill="#E3E3E3" fill-opacity="0.8"/>
<circle cx="91.6484" cy="94.5417" r="2" fill="#E3E3E3" fill-opacity="0.8"/>
<circle cx="91.6484" cy="104.721" r="2" fill="#E3E3E3" fill-opacity="0.8"/>
<circle cx="91.6484" cy="114.901" r="2" fill="#E3E3E3" fill-opacity="0.8"/>
<circle cx="91.6484" cy="125.08" r="2" fill="#E3E3E3" fill-opacity="0.8"/>
<circle cx="91.6484" cy="135.26" r="2" fill="#E3E3E3" fill-opacity="0.8"/>
<circle cx="91.6484" cy="145.44" r="2" fill="#E3E3E3" fill-opacity="0.8"/>
<circle cx="91.6484" cy="155.619" r="2" fill="#E3E3E3" fill-opacity="0.8"/>
</svg>
