<svg width="47" height="41" viewBox="0 0 47 41" fill="none" xmlns="http://www.w3.org/2000/svg">
<path d="M41.6606 40.4127C38.8092 40.4127 36.4902 38.0937 36.4902 35.2423C36.4902 32.3908 38.8092 30.0719 41.6606 30.0719C44.5121 30.0719 46.8311 32.3908 46.8311 35.2423C46.8311 38.0937 44.5121 40.4127 41.6606 40.4127ZM41.6606 30.6559C39.1298 30.6559 37.0743 32.7115 37.0743 35.2423C37.0743 37.7731 39.1298 39.8286 41.6606 39.8286C44.1915 39.8286 46.247 37.7731 46.247 35.2423C46.247 32.7115 44.1915 30.6559 41.6606 30.6559Z" fill="#625DF8"/>
<path d="M19.2275 9.45547H10.3522V0.580307H9.36067V9.45547H0.485352V10.447H9.36067V19.3319H10.3522V10.447H19.2275V9.45547Z" fill="#625DF8"/>
</svg>
