<svg width="6983" height="671" viewBox="0 0 6983 671" fill="none" xmlns="http://www.w3.org/2000/svg">
<path fill-rule="evenodd" clip-rule="evenodd" d="M2.48135 110.494C159.068 -15.369 367.643 -28.3329 538.735 46.8656C588.311 68.6557 630.9 91.0026 671.57 112.343C806.344 183.061 920.058 242.729 1197.23 234.466C1339.17 230.234 1427.51 184.581 1519.02 137.293C1596.15 97.4302 1675.53 56.4051 1791.18 38.049C1823.77 32.8754 1854.85 30.176 1884.33 29.4542C1929.31 27.3617 1974.44 31.0279 2018.46 40.1068C2113.51 58.0184 2181.08 94.066 2215.93 117.033C2231.52 125.006 2246.6 132.92 2261.43 140.7C2396.2 211.418 2509.92 271.086 2787.08 262.823C2920.68 258.84 3006.08 211.772 3091.71 164.583C3173.75 119.367 3256 74.0402 3381.03 66.4061C3591.33 53.566 3792.12 154.258 3809.43 170.602L3829.42 367.684C3064 393.642 1589.29 427.547 1589.98 384.377C1590.09 377.239 1590.3 368.47 1590.57 358.354C847.061 377.177 -0.402957 388.748 0.11939 356.02C0.277022 346.144 0.626312 333.146 1.03925 317.779C2.43123 265.979 4.54643 187.265 2.48135 110.494Z" fill="#F2F2FF"/>
<path fill-rule="evenodd" clip-rule="evenodd" d="M3153.87 166.603C3310.45 40.7399 3519.03 27.7759 3690.12 102.975C3727.92 119.586 3761.61 135.729 3793.46 150.989C3941.85 222.081 4050.3 274.037 4347.35 265.182C4491.54 260.883 4580.8 221.559 4674.2 180.406C4750.27 146.895 4829.09 112.17 4942.56 94.1578C4975.16 88.9843 5006.23 86.2849 5035.72 85.563C5080.7 83.4706 5125.82 87.1367 5169.85 96.2156C5264.9 114.127 5332.47 150.175 5367.32 173.143C5382.9 181.115 5397.99 189.029 5412.81 196.809C5547.59 267.527 5661.3 327.195 5938.47 318.932C6080.42 314.7 6168.76 269.047 6260.26 221.759C6337.39 181.896 6416.78 140.871 6532.42 122.515C6799.92 80.0535 6965.44 204.253 6982.76 220.598L6980.8 423.793C6215.39 449.751 4740.67 483.656 4741.36 440.486C4741.48 433.348 4741.69 424.579 4741.96 414.463C3998.45 433.286 3150.98 444.857 3151.51 412.129C3151.66 402.253 3152.01 389.254 3152.43 373.888C3153.82 322.088 3155.93 243.374 3153.87 166.603Z" fill="#F2F2FF"/>
<rect x="0.119141" y="323.745" width="6982.64" height="346.971" fill="#F2F2FF"/>
</svg>
