<svg width="1980" height="1177" viewBox="0 0 1980 1177" fill="none" xmlns="http://www.w3.org/2000/svg">
<path d="M0 331.857H2015V933.461H0V331.857Z" fill="#F0F0FE"/>
<path d="M1560.24 1099.97C1732.39 1153.2 1940.76 1141.23 2095.53 1046.94C2091.43 973.846 2094.31 898.272 2094.38 866.553C2094.45 834.833 620.374 877.029 -144.586 905.071L-143.633 1054.36C-126.084 1066.16 41.1924 1155.45 308.06 1121.13C560.287 1088.68 637.671 978.675 899.138 969.879C1259.75 957.748 1345.06 1033.42 1560.24 1099.97Z" fill="#F0F0FE"/>
<path d="M1837.09 1125.24C1991.23 1176.48 2176.84 1162.1 2313.61 1066.03C2309.03 992.991 2310.63 917.39 2310.29 885.672C2309.95 853.955 996.374 913.173 314.779 950.049L317.527 1099.31C333.321 1110.91 483.581 1198.27 721.053 1160.86C945.497 1125.5 1013.09 1014.61 1246.07 1002.8C1567.4 986.5 1644.41 1061.19 1837.09 1125.24Z" fill="url(#paint0_linear_595_451)" fill-opacity="0.4"/>
<path d="M588.767 42.2827C306.512 -45.7321 -9.54181 105.765 -9.54181 105.765C-9.54181 105.765 -21.0729 299.151 -21.2958 340.846C-21.5188 382.541 1527.56 340.361 2292.65 307.59L2292.41 111.347C2274.92 95.7374 2108.07 -22.5351 1841.04 21.1621C1588.66 62.4618 1510.75 206.653 1249.24 216.818C888.574 230.837 810.654 111.473 588.767 42.2827Z" fill="#F9F2FF" fill-opacity="0.5"/>
<defs>
<linearGradient id="paint0_linear_595_451" x1="1660.76" y1="1057.71" x2="1716.95" y2="964.073" gradientUnits="userSpaceOnUse">
<stop stop-color="#F2F2FF"/>
<stop offset="1" stop-color="#F5F2FF" stop-opacity="0"/>
</linearGradient>
</defs>
</svg>
