<svg width="430" height="297" viewBox="0 0 430 297" fill="none" xmlns="http://www.w3.org/2000/svg">
<circle cx="267.194" cy="42.7427" r="2" fill="#E3E3E3" fill-opacity="0.8"/>
<circle cx="267.194" cy="52.9223" r="2" fill="#E3E3E3" fill-opacity="0.8"/>
<circle cx="267.194" cy="63.1019" r="2" fill="#E3E3E3" fill-opacity="0.8"/>
<circle cx="267.194" cy="73.2815" r="2" fill="#E3E3E3" fill-opacity="0.8"/>
<circle cx="267.194" cy="83.4611" r="2" fill="#E3E3E3" fill-opacity="0.8"/>
<circle cx="267.194" cy="93.6407" r="2" fill="#E3E3E3" fill-opacity="0.8"/>
<circle cx="267.194" cy="103.82" r="2" fill="#E3E3E3" fill-opacity="0.8"/>
<circle cx="267.194" cy="114" r="2" fill="#E3E3E3" fill-opacity="0.8"/>
<circle cx="267.194" cy="124.18" r="2" fill="#E3E3E3" fill-opacity="0.8"/>
<circle cx="267.194" cy="134.359" r="2" fill="#E3E3E3" fill-opacity="0.8"/>
<circle cx="267.194" cy="144.539" r="2" fill="#E3E3E3" fill-opacity="0.8"/>
<circle cx="267.194" cy="154.718" r="2" fill="#E3E3E3" fill-opacity="0.8"/>
<circle cx="267.194" cy="164.898" r="2" fill="#E3E3E3" fill-opacity="0.8"/>
<circle cx="267.194" cy="175.078" r="2" fill="#E3E3E3" fill-opacity="0.8"/>
<circle cx="267.194" cy="185.257" r="2" fill="#E3E3E3" fill-opacity="0.8"/>
<circle cx="267.194" cy="195.437" r="2" fill="#E3E3E3" fill-opacity="0.8"/>
<circle cx="285.009" cy="42.7427" r="2" fill="#E3E3E3" fill-opacity="0.8"/>
<circle cx="285.009" cy="52.9223" r="2" fill="#E3E3E3" fill-opacity="0.8"/>
<circle cx="285.009" cy="63.1019" r="2" fill="#E3E3E3" fill-opacity="0.8"/>
<circle cx="285.009" cy="73.2815" r="2" fill="#E3E3E3" fill-opacity="0.8"/>
<circle cx="285.009" cy="83.4611" r="2" fill="#E3E3E3" fill-opacity="0.8"/>
<circle cx="285.009" cy="93.6407" r="2" fill="#E3E3E3" fill-opacity="0.8"/>
<circle cx="285.009" cy="103.82" r="2" fill="#E3E3E3" fill-opacity="0.8"/>
<circle cx="285.009" cy="114" r="2" fill="#E3E3E3" fill-opacity="0.8"/>
<circle cx="285.009" cy="124.18" r="2" fill="#E3E3E3" fill-opacity="0.8"/>
<circle cx="285.009" cy="134.359" r="2" fill="#E3E3E3" fill-opacity="0.8"/>
<circle cx="285.009" cy="144.539" r="2" fill="#E3E3E3" fill-opacity="0.8"/>
<circle cx="285.009" cy="154.718" r="2" fill="#E3E3E3" fill-opacity="0.8"/>
<circle cx="285.009" cy="164.898" r="2" fill="#E3E3E3" fill-opacity="0.8"/>
<circle cx="285.009" cy="175.078" r="2" fill="#E3E3E3" fill-opacity="0.8"/>
<circle cx="285.009" cy="185.257" r="2" fill="#E3E3E3" fill-opacity="0.8"/>
<circle cx="285.009" cy="195.437" r="2" fill="#E3E3E3" fill-opacity="0.8"/>
<circle cx="302.823" cy="42.7427" r="2" fill="#E3E3E3" fill-opacity="0.8"/>
<circle cx="302.823" cy="52.9223" r="2" fill="#E3E3E3" fill-opacity="0.8"/>
<circle cx="302.823" cy="63.1019" r="2" fill="#E3E3E3" fill-opacity="0.8"/>
<circle cx="302.823" cy="73.2815" r="2" fill="#E3E3E3" fill-opacity="0.8"/>
<circle cx="302.823" cy="83.4611" r="2" fill="#E3E3E3" fill-opacity="0.8"/>
<circle cx="302.823" cy="93.6407" r="2" fill="#E3E3E3" fill-opacity="0.8"/>
<circle cx="302.823" cy="103.82" r="2" fill="#E3E3E3" fill-opacity="0.8"/>
<circle cx="302.823" cy="114" r="2" fill="#E3E3E3" fill-opacity="0.8"/>
<circle cx="302.823" cy="124.18" r="2" fill="#E3E3E3" fill-opacity="0.8"/>
<circle cx="302.823" cy="134.359" r="2" fill="#E3E3E3" fill-opacity="0.8"/>
<circle cx="302.823" cy="144.539" r="2" fill="#E3E3E3" fill-opacity="0.8"/>
<circle cx="302.823" cy="154.718" r="2" fill="#E3E3E3" fill-opacity="0.8"/>
<circle cx="302.823" cy="164.898" r="2" fill="#E3E3E3" fill-opacity="0.8"/>
<circle cx="302.823" cy="175.078" r="2" fill="#E3E3E3" fill-opacity="0.8"/>
<circle cx="302.823" cy="185.257" r="2" fill="#E3E3E3" fill-opacity="0.8"/>
<circle cx="302.823" cy="195.437" r="2" fill="#E3E3E3" fill-opacity="0.8"/>
<circle cx="320.638" cy="42.7427" r="2" fill="#E3E3E3" fill-opacity="0.8"/>
<circle cx="320.638" cy="52.9223" r="2" fill="#E3E3E3" fill-opacity="0.8"/>
<circle cx="320.638" cy="63.1019" r="2" fill="#E3E3E3" fill-opacity="0.8"/>
<circle cx="320.638" cy="73.2815" r="2" fill="#E3E3E3" fill-opacity="0.8"/>
<circle cx="320.638" cy="83.4611" r="2" fill="#E3E3E3" fill-opacity="0.8"/>
<circle cx="320.638" cy="93.6407" r="2" fill="#E3E3E3" fill-opacity="0.8"/>
<circle cx="320.638" cy="103.82" r="2" fill="#E3E3E3" fill-opacity="0.8"/>
<circle cx="320.638" cy="114" r="2" fill="#E3E3E3" fill-opacity="0.8"/>
<circle cx="320.638" cy="124.18" r="2" fill="#E3E3E3" fill-opacity="0.8"/>
<circle cx="320.638" cy="134.359" r="2" fill="#E3E3E3" fill-opacity="0.8"/>
<circle cx="320.638" cy="144.539" r="2" fill="#E3E3E3" fill-opacity="0.8"/>
<circle cx="320.638" cy="154.718" r="2" fill="#E3E3E3" fill-opacity="0.8"/>
<circle cx="320.638" cy="164.898" r="2" fill="#E3E3E3" fill-opacity="0.8"/>
<circle cx="320.638" cy="175.078" r="2" fill="#E3E3E3" fill-opacity="0.8"/>
<circle cx="320.638" cy="185.257" r="2" fill="#E3E3E3" fill-opacity="0.8"/>
<circle cx="320.638" cy="195.437" r="2" fill="#E3E3E3" fill-opacity="0.8"/>
<circle cx="338.451" cy="42.7427" r="2" fill="#E3E3E3" fill-opacity="0.8"/>
<circle cx="338.451" cy="52.9223" r="2" fill="#E3E3E3" fill-opacity="0.8"/>
<circle cx="338.451" cy="63.1019" r="2" fill="#E3E3E3" fill-opacity="0.8"/>
<circle cx="338.451" cy="73.2815" r="2" fill="#E3E3E3" fill-opacity="0.8"/>
<circle cx="338.451" cy="83.4611" r="2" fill="#E3E3E3" fill-opacity="0.8"/>
<circle cx="338.451" cy="93.6407" r="2" fill="#E3E3E3" fill-opacity="0.8"/>
<circle cx="338.451" cy="103.82" r="2" fill="#E3E3E3" fill-opacity="0.8"/>
<circle cx="338.451" cy="114" r="2" fill="#E3E3E3" fill-opacity="0.8"/>
<circle cx="338.451" cy="124.18" r="2" fill="#E3E3E3" fill-opacity="0.8"/>
<circle cx="338.451" cy="134.359" r="2" fill="#E3E3E3" fill-opacity="0.8"/>
<circle cx="338.451" cy="144.539" r="2" fill="#E3E3E3" fill-opacity="0.8"/>
<circle cx="338.451" cy="154.718" r="2" fill="#E3E3E3" fill-opacity="0.8"/>
<circle cx="338.451" cy="164.898" r="2" fill="#E3E3E3" fill-opacity="0.8"/>
<circle cx="338.451" cy="175.078" r="2" fill="#E3E3E3" fill-opacity="0.8"/>
<circle cx="338.451" cy="185.257" r="2" fill="#E3E3E3" fill-opacity="0.8"/>
<circle cx="338.451" cy="195.437" r="2" fill="#E3E3E3" fill-opacity="0.8"/>
<circle cx="356.266" cy="42.7427" r="2" fill="#E3E3E3" fill-opacity="0.8"/>
<circle cx="356.266" cy="52.9223" r="2" fill="#E3E3E3" fill-opacity="0.8"/>
<circle cx="356.266" cy="63.1019" r="2" fill="#E3E3E3" fill-opacity="0.8"/>
<circle cx="356.266" cy="73.2815" r="2" fill="#E3E3E3" fill-opacity="0.8"/>
<circle cx="356.266" cy="83.4611" r="2" fill="#E3E3E3" fill-opacity="0.8"/>
<circle cx="356.266" cy="93.6407" r="2" fill="#E3E3E3" fill-opacity="0.8"/>
<circle cx="356.266" cy="103.82" r="2" fill="#E3E3E3" fill-opacity="0.8"/>
<circle cx="356.266" cy="114" r="2" fill="#E3E3E3" fill-opacity="0.8"/>
<circle cx="356.266" cy="124.18" r="2" fill="#E3E3E3" fill-opacity="0.8"/>
<circle cx="356.266" cy="134.359" r="2" fill="#E3E3E3" fill-opacity="0.8"/>
<circle cx="356.266" cy="144.539" r="2" fill="#E3E3E3" fill-opacity="0.8"/>
<circle cx="356.266" cy="154.718" r="2" fill="#E3E3E3" fill-opacity="0.8"/>
<circle cx="356.266" cy="164.898" r="2" fill="#E3E3E3" fill-opacity="0.8"/>
<circle cx="356.266" cy="175.078" r="2" fill="#E3E3E3" fill-opacity="0.8"/>
<circle cx="356.266" cy="185.257" r="2" fill="#E3E3E3" fill-opacity="0.8"/>
<circle cx="356.266" cy="195.437" r="2" fill="#E3E3E3" fill-opacity="0.8"/>
<g clip-path="url(#clip0_584_252)">
<path d="M372.342 293.61C372.342 293.61 382.572 277.78 383.612 270.45C383.612 270.45 401.652 240.97 415.142 244.24C415.142 244.24 423.092 249.99 416.332 267.47C416.332 267.47 407.549 287.23 388.472 294.959H370.108L372.342 293.61Z" fill="url(#paint0_linear_584_252)"/>
<path d="M325.642 187.27C312.722 170.47 251.272 87.2299 251.272 87.2299C225.012 48.7599 132.052 94.1899 112.952 106.43C51.9816 127.63 25.4916 129.07 4.12164 190.72C2.78164 194.6 3.91164 210.87 20.6816 226.42L32.9716 235.31C25.5116 255.36 16.7716 281.53 16.7716 294.12H132.032C135.112 294.23 138.272 294.23 141.492 294.12H218.222C218.222 294.12 225.252 270.07 229.072 251.68C233.982 246.04 238.752 239.73 243.302 232.62C243.382 232.49 243.462 232.36 243.542 232.23C253.772 247.39 263.462 260.25 267.782 261.8L274.872 280.16L334.742 293.02C334.742 293.02 368.172 242.55 325.632 187.27H325.642Z" fill="url(#paint1_linear_584_252)"/>
<path d="M256.781 195.56C259.251 184.47 249.161 240.37 249.161 240.37L243.701 230.75C243.701 230.75 251.261 220.3 256.771 195.56H256.781Z" fill="#482A28"/>
<path d="M141.942 4.75994C157.772 -9.77006 170.902 13.4999 187.652 22.3699C199.642 28.7199 193.832 54.7099 187.072 57.8099C181.602 60.3099 184.682 65.0099 179.052 67.1399C178.102 67.4999 177.002 67.7299 176.102 67.2699C175.482 66.9499 175.062 66.3399 174.662 65.7599C172.922 63.2099 171.152 60.5899 170.382 57.5999C169.812 55.3699 169.822 53.0399 169.482 50.7699C168.852 46.5299 167.012 42.5099 164.482 39.0399C162.942 36.9299 161.082 34.9599 158.682 33.9099C156.172 32.8199 153.292 32.7599 150.602 32.4999C149.042 32.3499 147.072 32.3299 146.102 30.8699C145.072 29.3199 146.192 26.4999 144.972 25.1899C137.392 17.0999 140.052 6.46994 141.922 4.74994L141.942 4.75994Z" fill="#482A28"/>
<path d="M177.901 47.7199C177.771 46.8299 177.441 45.9499 176.971 45.0599L180.521 39.2099C186.141 34.2899 183.431 29.8099 180.671 28.6599C178.951 27.9399 177.051 29.8399 175.871 31.3599C172.881 26.7499 165.501 22.1399 148.151 21.5899C148.151 21.5899 146.981 32.5999 144.261 35.9399C141.541 39.2799 138.771 61.8099 141.611 67.0999C142.041 67.8999 143.161 68.6199 144.771 69.0799C142.621 81.3899 140.741 94.1699 140.161 103.78C140.161 103.78 136.191 128.63 152.081 128.3C176.601 127.8 185.431 92.9599 185.431 92.9599C183.271 88.7599 177.901 47.7099 177.901 47.7099V47.7199Z" fill="#FFDACC"/>
<path d="M143.012 80.6699C143.542 76.2299 143.792 74.7999 144.622 68.8499C144.622 68.8499 168.192 67.1899 175.722 55.5699C175.722 55.5699 158.412 82.6999 143.012 80.6699Z" fill="#482A28"/>
<path d="M145.261 43.1099C145.211 44.3299 145.611 45.3399 146.171 45.3699C146.731 45.3899 147.221 44.4199 147.281 43.1999C147.331 41.9799 146.931 40.9699 146.371 40.9399C145.811 40.9199 145.321 41.8899 145.261 43.1099Z" fill="#3B261C"/>
<path d="M153.841 43.4899C153.791 44.7099 154.191 45.7199 154.751 45.7499C155.311 45.7699 155.801 44.7999 155.861 43.5799C155.911 42.3599 155.511 41.3499 154.951 41.3199C154.391 41.2999 153.901 42.2699 153.841 43.4899Z" fill="#3B261C"/>
<path d="M153.472 33.3599C153.472 33.3599 158.832 30.2199 161.962 33.7299C165.082 37.2499 162.932 37.8599 162.362 37.7699C161.782 37.6799 155.872 33.8499 153.952 35.7899C153.952 35.7899 151.542 35.7899 153.482 33.3599H153.472Z" fill="#482A28"/>
<path d="M143.062 32.1499C145.262 29.2799 149.322 32.5999 149.322 32.5999C151.042 35.1899 148.642 34.9799 148.642 34.9799C146.902 32.8799 139.492 36.7999 143.062 32.1399V32.1499Z" fill="#482A28"/>
<path d="M153.971 26.8999C156.571 26.8499 159.331 26.5999 161.621 27.8199C164.291 29.2399 165.801 32.3899 168.621 33.4699C169.831 33.9299 171.211 33.9499 172.441 33.5099C174.881 32.6399 178.051 30.3399 178.101 27.7499C178.151 25.1599 175.251 22.3599 173.401 20.5599C170.561 17.7999 166.501 16.5299 162.551 16.4899C158.591 16.4499 154.701 17.5399 151.011 18.9899C149.651 19.5199 148.271 20.1299 147.301 21.2099C146.511 22.0799 145.581 24.0599 146.741 24.9899C147.881 25.9099 149.531 26.4999 150.961 26.7299C151.961 26.8899 152.971 26.9299 153.981 26.9099L153.971 26.8999Z" fill="#482A28"/>
<path d="M147.861 51.5099L158.631 52.4299C158.631 52.4299 155.001 57.1999 150.391 57.0399C147.781 56.9499 147.871 51.5099 147.871 51.5099H147.861Z" fill="#BF5151"/>
<path d="M243.962 230.91C268.832 190.26 255.532 139.6 255.392 139.09L254.802 139.25C254.942 139.75 268.172 190.17 243.432 230.59L243.952 230.91H243.962Z" fill="#231F20"/>
<path d="M160.382 140.79C169.112 140.79 176.322 138.1 181.872 132.76C193.992 121.09 195.642 99.6099 194.892 83.6499L194.282 83.6799C195.622 112.38 188.042 125.97 181.442 132.32C175.232 138.3 166.852 140.89 156.552 140.02C148.762 139.36 142.692 136.3 138.492 130.94C129.182 119.03 132.172 99.5299 132.202 99.3299L131.602 99.2299C131.602 99.2299 130.812 104.26 131.212 110.66C131.582 116.58 133.062 124.97 138.012 131.3C142.312 136.8 148.532 139.93 156.492 140.61C157.812 140.72 159.102 140.78 160.362 140.78L160.382 140.79Z" fill="#231F20"/>
<path d="M110.422 48.7799C110.422 48.7799 107.022 63.2199 83.8416 66.1999C60.6616 69.1799 32.4416 85.9599 43.3916 136.93C46.1416 149.74 62.0516 148.44 79.2316 143.49C92.3916 139.7 129.112 108.52 132.752 81.8499C136.392 55.1799 125.032 53.6599 125.032 53.6599L110.422 48.7799Z" fill="white"/>
<path d="M122.082 29.0399C122.082 29.0399 137.502 31.5399 138.312 32.2799C139.122 33.0299 142.872 47.2899 133.072 52.8599C123.282 58.4299 110.422 48.7699 110.422 48.7699C110.422 48.7699 101.442 26.0799 103.362 26.2499C105.282 26.4199 114.152 33.3699 114.152 33.3699L122.092 29.0399H122.082Z" fill="white"/>
<path d="M133.062 66.0199C133.062 66.0199 129.072 116.9 137.272 127.59L127.192 130.35C127.192 130.35 119.072 122.45 111.592 104.22C104.112 85.9899 133.062 66.0099 133.062 66.0099V66.0199Z" fill="white"/>
<path d="M137.761 121.21C137.761 121.21 145.171 124.53 142.381 126C139.581 127.48 130.111 129.35 130.111 129.35C130.111 129.35 130.081 123.35 137.761 121.21Z" fill="white"/>
<path d="M97.8516 131.99C97.8516 131.99 103.592 135.21 100.672 137.63C97.7516 140.05 66.3516 146.41 66.3516 146.41C66.3516 146.41 89.3316 130.92 97.8516 131.99Z" fill="white"/>
<path d="M29.7217 36.9799C5.14169 48.7799 1.79169 75.6499 5.68169 96.1299C15.0317 145.43 57.6017 146.09 58.0217 146.04" fill="white"/>
<path d="M29.7217 36.9799C5.14169 48.7799 1.79169 75.6499 5.68169 96.1299C15.0317 145.43 57.6017 146.09 58.0217 146.04" stroke="black" stroke-miterlimit="10"/>
<path d="M83.8517 66.1899C86.0417 65.9099 87.9517 65.5399 89.7217 65.1299H89.7417C89.7417 65.1299 94.3317 77.5299 87.1217 83.2899C79.9117 89.0499 61.3517 88.1399 57.6417 94.1999C53.9317 100.27 61.0217 106.53 59.0217 113.08C57.5217 117.98 50.4217 129.55 41.8517 128.09C35.8517 83.9799 62.0717 68.9799 83.8517 66.1799V66.1899Z" fill="#EA9A2D"/>
<path d="M103.362 26.2499C105.282 26.4199 114.152 33.3699 114.152 33.3699L122.092 29.0399C122.092 29.0399 123.812 29.3199 126.072 29.7099C127.402 30.9099 129.732 33.1499 128.902 33.4999C127.762 33.9799 115.312 32.7899 115.292 37.7999C115.272 42.8099 118.172 46.7699 115.562 48.5899C114.632 49.2299 113.702 49.8099 112.792 50.3099C111.332 49.4399 110.432 48.7799 110.432 48.7799C110.432 48.7799 101.452 26.0899 103.372 26.2599L103.362 26.2499Z" fill="#EA9A2D"/>
<path d="M139.342 35.9599C137.842 37.2399 135.412 36.2599 134.752 35.8499C134.022 35.3999 134.492 31.2899 134.492 31.2699C136.502 31.6899 138.072 32.0599 138.312 32.2799C138.552 32.4999 139.022 33.9599 139.342 35.9499V35.9599Z" fill="#0C090C"/>
<path d="M122.261 34.8699L125.701 32.9099C125.701 32.9099 123.181 32.3799 122.321 33.3299C121.461 34.2799 122.261 34.8699 122.261 34.8699Z" fill="#0C090C"/>
<path d="M27.9014 46.3199L29.7314 36.9799C35.2014 34.8999 41.2714 34.0699 47.6914 34.5599C49.7514 34.7199 51.2914 36.5199 51.1314 38.5799C50.9714 40.6399 49.1714 42.1799 47.1114 42.0199C39.9414 41.4699 33.4214 43.0699 27.9014 46.3299V46.3199Z" fill="#EA9A2D"/>
<path d="M132.752 81.8399L139.322 95.5199L131.912 99.2799C131.912 99.2799 130.512 92.1999 132.752 81.8399Z" fill="#D8D6D7"/>
<path d="M65.7617 80.0699C73.4517 74.7499 81.4917 67.5699 80.0117 64.2199C79.6717 63.4499 71.5017 67.6799 63.7617 71.8899C63.7117 71.8199 63.6617 71.7499 63.6117 71.6799C72.5917 65.7699 83.4317 56.7299 79.9217 54.5999C78.3417 53.6399 72.5017 56.3999 66.3817 59.8299C72.7017 53.9999 78.4317 47.0799 75.7617 44.8999C74.1917 43.6199 64.1017 50.9399 56.8817 56.5099C62.9917 50.2899 68.9617 42.6099 66.4917 41.4099C62.4817 39.4599 31.9517 63.7999 31.5617 64.1099C31.5617 64.1099 31.5517 64.1099 31.5417 64.1199C31.5317 64.0599 28.8717 53.5399 26.1217 53.4899C23.3717 53.4299 22.0517 79.2899 22.0517 79.2899L22.1117 79.1999C21.6717 83.1099 21.9017 86.5499 22.2517 87.2399L16.7617 187.99C18.5617 188.41 14.4817 231.09 48.9117 225.44C87.4617 219.12 77.0517 195.22 73.4417 183.66C59.9417 140.49 38.8517 103.79 38.8517 103.79C38.8517 103.79 54.0317 97.9799 65.7517 80.0699H65.7617Z" fill="#FFDACC"/>
<path d="M139.632 38.2799C139.632 38.2799 142.282 40.3199 144.522 39.1999C146.762 38.0799 145.152 44.9799 139.332 43.6299L139.622 38.2799H139.632Z" fill="#EA9A2D"/>
<path d="M126.911 54.4099C126.911 54.4099 115.131 52.4799 110.431 48.7799L107.481 54.4099C107.481 54.4099 119.881 60.9999 131.651 60.4999C131.651 60.4999 130.571 54.2199 126.921 54.4099H126.911Z" fill="#6950A1"/>
<path d="M33.2518 234.58L49.3118 244.82L26.8018 253.01L33.2518 234.58Z" fill="#482A28"/>
<path d="M148.992 42.1199C148.992 42.1199 146.552 48.5399 144.212 48.7699L146.602 51.5099" stroke="#111111" stroke-width="0.7" stroke-linecap="round" stroke-linejoin="round"/>
<path d="M302.862 234.58C277.962 234.68 231.492 258.45 231.492 258.45L196.262 270.87C196.102 270.11 194.112 267.29 191.302 264.54L191.402 264.57C191.402 264.57 174.082 245.33 171.982 247.11C169.892 248.88 174.452 258.72 174.482 258.78H174.462C173.402 258.78 134.912 259.17 133.042 263.18C131.882 265.67 141.362 267.87 150.022 268.84C140.902 269.07 128.462 269.75 128.052 271.74C127.352 275.12 136.162 276.88 144.742 277.42C137.832 278.62 131.562 280.16 130.942 281.9C129.562 285.76 143.672 285.94 154.372 284.87C154.372 284.96 154.372 285.04 154.382 285.13C145.722 286.74 136.722 288.61 136.942 289.42C137.912 292.95 148.672 293.45 157.992 292.74C178.196 296.803 193.832 294.19 193.832 294.19L328.072 295.26C344.342 299.23 358.052 234.36 302.882 234.59L302.862 234.58Z" fill="#FFDACC"/>
<path d="M100.521 135.27L96.4614 134.43L92.4814 137.79C92.4814 137.79 100.441 139 100.521 135.27Z" fill="#D8D6D7"/>
<path d="M140.581 124.35L136.521 123.51L132.541 126.87C132.541 126.87 140.501 128.08 140.581 124.35Z" fill="#D8D6D7"/>
<path d="M91.4417 212.61C104.502 185.21 87.6317 160.99 87.4617 160.75L86.9717 161.1C87.1417 161.34 103.802 185.27 90.9017 212.34L91.4517 212.6L91.4417 212.61Z" fill="#231F20"/>
<path d="M38.661 104.01L39.061 103.56L32.911 97.9599L32.501 98.4099L38.661 104.01Z" fill="#231F20"/>
<path d="M195.958 270.826L194.918 282.369L195.526 282.424L196.566 270.881L195.958 270.826Z" fill="#231F20"/>
<path d="M334.642 256.63L333.842 256.44L338.962 235.38L339.752 235.57L334.642 256.63Z" fill="#D8DEF7"/>
<path d="M91.9512 137.34C91.9512 137.34 107.321 126.96 125.281 101.87" stroke="black" stroke-width="0.7" stroke-linecap="round" stroke-linejoin="round"/>
<path d="M33.2513 234.58C33.2513 234.58 17.0513 278.7 17.1213 292.89" stroke="black" stroke-width="0.7" stroke-linecap="round" stroke-linejoin="round"/>
<path d="M212.911 72.4499C212.911 72.4499 241.871 66.4499 259.071 98.1799L305.901 160.98" stroke="black" stroke-width="0.7" stroke-linecap="round" stroke-linejoin="round"/>
<path d="M107.472 54.4099C107.472 54.4099 119.562 60.4999 131.642 60.4999" stroke="black" stroke-miterlimit="10"/>
<path d="M146.111 30.8799C146.111 30.8799 145.641 30.2899 145.631 28.7899C145.631 28.7899 145.971 26.3399 144.991 25.1999C144.011 24.0599 138.121 18.0599 140.411 7.67994C140.411 7.67994 142.421 -1.49006 156.661 0.689939C156.661 0.689939 162.481 2.35994 169.241 8.16994" stroke="black" stroke-width="0.7" stroke-linecap="round" stroke-linejoin="round"/>
<path d="M228.102 84.6399C228.102 84.6399 239.422 80.1899 257.172 106.84" stroke="white" stroke-linecap="round" stroke-linejoin="round"/>
<path d="M145.251 10.8299C145.251 10.8299 145.931 2.82994 153.831 4.01994" stroke="white" stroke-linecap="round" stroke-linejoin="round"/>
<path d="M121.392 170.57L119.552 188.01" stroke="white" stroke-linecap="round" stroke-linejoin="round"/>
<path d="M130.281 172.57L131.371 186.01" stroke="white" stroke-linecap="round" stroke-linejoin="round"/>
<path d="M358.262 294.94C358.262 294.94 363.695 273.998 339.158 234.014C339.158 234.014 323.432 210.62 308.292 222.06C308.292 222.06 298.779 229.729 314.009 250.609C314.009 250.609 340.88 286.249 358.262 294.94Z" fill="url(#paint2_linear_584_252)"/>
<path d="M358.401 292.75C358.401 292.75 360.771 284.95 353.231 262.52C353.231 262.52 357.571 248.68 362.421 243.49L370.081 231.39H377.991L372.341 224.98L395.351 187.23L390.501 232.04L387.501 253.74L380.311 257.3L385.341 259.83C385.341 259.83 379.901 290.65 369.431 295.17L357.401 294.96L358.391 292.73L358.401 292.75Z" fill="url(#paint3_linear_584_252)"/>
<path d="M340.351 269.33H338.901C332.274 269.33 326.901 274.703 326.901 281.33V282.78C326.901 289.407 332.274 294.78 338.901 294.78H340.351C346.979 294.78 352.351 289.407 352.351 282.78V281.33C352.351 274.703 346.979 269.33 340.351 269.33Z" fill="url(#paint4_linear_584_252)"/>
<path d="M357.411 294.98C356.641 294.98 355.471 294.2 353.041 292.56C352.041 291.89 350.821 291.08 349.321 290.1L349.771 289.42C351.271 290.39 352.491 291.21 353.501 291.88C355.911 293.49 357.221 294.41 357.561 294.09C359.711 292.15 358.731 280.61 353.391 265.37C347.321 248 335.751 225.76 323.141 220.24C319.291 218.55 315.501 218.49 311.891 220.06C308.421 221.56 306.311 223.88 305.621 226.94C303.061 238.3 319.931 257.54 328.041 266.8C329.971 269 331.361 270.58 332.021 271.52L331.361 271.99C330.721 271.09 329.271 269.44 327.431 267.34C319.231 257.99 302.181 238.53 304.831 226.77C305.581 223.44 307.851 220.93 311.571 219.32C315.401 217.66 319.421 217.73 323.481 219.5C336.321 225.12 347.761 246.75 354.181 265.11C359.201 279.47 360.891 292.2 358.121 294.71C357.911 294.9 357.691 294.99 357.431 294.99L357.411 294.98Z" fill="#625DF8"/>
<path d="M370.142 295.23L369.742 294.52C379.382 289.06 384.712 263.08 385.342 259.86L378.402 257.07L387.022 253.71L395.052 188.3L372.902 224.4L379.052 231.41H370.082C368.492 233.73 351.962 258.13 354.162 265.12L353.382 265.37C350.962 257.69 368.772 231.87 369.532 230.78L369.652 230.6H377.252L371.882 224.49L372.042 224.23L396.312 184.68L387.762 254.3L380.602 257.09L386.252 259.36L386.192 259.69C385.972 260.9 380.692 289.27 370.132 295.25L370.142 295.23Z" fill="#625DF8"/>
<path d="M358.171 294.62L357.491 294.17C384.681 252.69 386.361 201.5 386.381 200.98L387.191 201C387.181 201.51 385.491 252.93 358.171 294.61V294.62Z" fill="#625DF8"/>
<path d="M342.002 269.77L320.542 235.32L321.232 234.89L342.702 269.34L342.002 269.77Z" fill="#625DF8"/>
<path d="M352.328 284.611L351.463 285.15L357.393 294.663L358.259 294.124L352.328 284.611Z" fill="#625DF8"/>
<path d="M388.982 294.85L388.682 294.09C410.742 285.3 419.322 263.82 418.172 252.07C417.742 247.7 415.982 244.91 413.322 244.41C402.752 242.4 383.802 270.16 383.612 270.44L382.932 269.99C383.692 268.87 401.042 243.5 412.232 243.5C412.652 243.5 413.072 243.54 413.472 243.61C416.512 244.18 418.522 247.23 418.982 251.99C420.152 263.99 411.432 285.91 388.982 294.85Z" fill="#625DF8"/>
<path d="M385.732 294.92L385.062 294.45L411.732 256.67L412.402 257.14L385.732 294.92Z" fill="#625DF8"/>
<path d="M387.676 264.468L386.897 264.691L392.489 284.205L393.268 283.982L387.676 264.468Z" fill="#625DF8"/>
<path d="M412.972 272.907L396.89 277.833L397.13 278.617L413.212 273.691L412.972 272.907Z" fill="#625DF8"/>
<path d="M339.362 295.32C332.042 295.32 326.092 289.37 326.092 282.05C326.092 274.73 332.042 268.78 339.362 268.78C346.682 268.78 352.632 274.73 352.632 282.05C352.632 289.37 346.682 295.32 339.362 295.32ZM339.362 269.59C332.492 269.59 326.902 275.18 326.902 282.05C326.902 288.92 332.492 294.51 339.362 294.51C346.232 294.51 351.822 288.92 351.822 282.05C351.822 275.18 346.232 269.59 339.362 269.59Z" fill="#625DF8"/>
<path d="M326.492 287.07C322.592 287.07 319.422 283.9 319.422 280C319.422 276.1 322.592 272.93 326.492 272.93C330.392 272.93 333.562 276.1 333.562 280C333.562 283.9 330.392 287.07 326.492 287.07ZM326.492 273.74C323.042 273.74 320.232 276.55 320.232 280C320.232 283.45 323.042 286.26 326.492 286.26C329.942 286.26 332.752 283.45 332.752 280C332.752 276.55 329.942 273.74 326.492 273.74Z" fill="white"/>
<path d="M423.801 294.202H0.651367V295.222H423.801V294.202Z" fill="#625DF8"/>
</g>
<defs>
<linearGradient id="paint0_linear_584_252" x1="394.052" y1="259.17" x2="379.846" y2="305.529" gradientUnits="userSpaceOnUse">
<stop stop-color="#FACF5C"/>
<stop offset="0.929181" stop-color="#FD8378"/>
</linearGradient>
<linearGradient id="paint1_linear_584_252" x1="175.472" y1="72.0799" x2="175.472" y2="287.51" gradientUnits="userSpaceOnUse">
<stop stop-color="#A88AEE"/>
<stop offset="0.13" stop-color="#948AEE"/>
<stop offset="0.27" stop-color="#888AEE"/>
<stop offset="0.4" stop-color="#848AEE"/>
<stop offset="1" stop-color="#4E8AEE"/>
</linearGradient>
<linearGradient id="paint2_linear_584_252" x1="305.142" y1="256.08" x2="358.774" y2="294.94" gradientUnits="userSpaceOnUse">
<stop stop-color="#FACF5C"/>
<stop offset="0.81916" stop-color="#FD8378"/>
</linearGradient>
<linearGradient id="paint3_linear_584_252" x1="397.694" y1="209.366" x2="359.447" y2="313.543" gradientUnits="userSpaceOnUse">
<stop stop-color="#72D9FD"/>
<stop offset="0.14" stop-color="#6FCCFD"/>
<stop offset="0.4" stop-color="#6AABFD"/>
<stop offset="0.75" stop-color="#6175FD"/>
<stop offset="1" stop-color="#5B4BFD"/>
</linearGradient>
<linearGradient id="paint4_linear_584_252" x1="332.857" y1="274.203" x2="326.901" y2="305.894" gradientUnits="userSpaceOnUse">
<stop stop-color="#72D9FD"/>
<stop offset="0.14" stop-color="#6FCCFD"/>
<stop offset="0.4" stop-color="#6AABFD"/>
<stop offset="0.75" stop-color="#6175FD"/>
<stop offset="1" stop-color="#5B4BFD"/>
</linearGradient>
<clipPath id="clip0_584_252">
<rect width="429.27" height="296.06" fill="white" transform="translate(0.651367 -6.10352e-05)"/>
</clipPath>
</defs>
</svg>
