<svg width="323" height="229" viewBox="0 0 323 229" fill="none" xmlns="http://www.w3.org/2000/svg">
<mask id="mask0_662_257" style="mask-type:alpha" maskUnits="userSpaceOnUse" x="0" y="0" width="323" height="229">
<rect y="0.95166" width="322.525" height="228.048" fill="#D9D9D9"/>
</mask>
<g mask="url(#mask0_662_257)">
<path d="M74.0234 165.992C74.0234 165.992 87.2517 152.751 101.475 148.563C101.475 148.563 92.5181 180.528 83.4781 183.438C74.4381 186.348 74.0234 166.001 74.0234 166.001V165.992Z" fill="#F89D77"/>
<path d="M108.275 220.75L114.039 329.098C114.039 329.098 126.687 336.104 138.962 329.471L132.136 225.924L108.275 220.75Z" fill="#F89D77"/>
<path d="M158.617 224.689C158.617 224.689 89.449 258.072 80.5914 266.065C71.7339 274.058 64.8834 292.225 83.4776 300.525C90.7511 303.775 209.44 315.782 209.44 315.782L214.715 284.016L163.776 273.113C163.776 273.113 178.207 240.717 158.617 224.681V224.689Z" fill="#5383AC"/>
<path d="M234.969 215.096C234.969 215.096 248.943 274.016 232.439 283.361C224.826 287.673 192.522 283.411 177.295 278.933C147.762 270.26 128.33 244.191 128.33 244.191L146.335 313.8L109.711 322.946C109.711 322.946 65.2156 202.525 81.5706 197.642C98.788 192.501 155.466 212.136 155.466 212.136L234.969 215.096Z" fill="#61A3C5"/>
<path d="M152.488 153.853L152.513 154.657C152.729 162.551 153.176 172.327 153.666 181.572C153.682 181.796 153.691 182.012 153.707 182.244C154.553 198.073 155.474 212.135 155.474 212.135L234.976 215.096C234.976 215.096 234.238 195.245 232.438 174.317C232.405 174.01 232.38 173.695 232.363 173.38C231.841 167.485 231.244 161.531 230.555 155.926C230.531 155.702 230.506 155.478 230.481 155.254C229.494 147.394 228.333 140.288 226.973 135.089C226.906 134.857 226.848 134.625 226.782 134.401C226.376 132.917 225.944 131.59 225.496 130.479C223.838 126.35 220.985 122.925 217.593 120.114C217.311 119.882 217.029 119.658 216.738 119.426C205.857 110.944 190.249 108.34 190.249 108.34L165.716 117.967C165.716 117.967 161.802 122.137 158.244 127.428C158.053 127.709 157.862 127.991 157.688 128.282C155.341 131.88 153.251 135.902 152.687 139.434C152.67 139.5 152.662 139.55 152.654 139.616C152.621 139.824 152.596 140.056 152.579 140.321C152.339 142.817 152.347 147.717 152.505 153.853H152.488Z" fill="#9679B6"/>
<path d="M178.547 126.582C171.613 127.486 164.663 128.091 157.672 128.29C157.854 128.008 158.045 127.726 158.228 127.436C161.437 127.369 164.638 127.22 167.84 126.963C171.074 126.706 174.301 126.341 177.51 125.91L178.539 126.582H178.547Z" fill="#FDFEFF"/>
<path d="M187.429 124.393C194.943 123.124 202.432 121.673 209.946 120.446C212.202 120.073 214.466 119.741 216.73 119.434C217.012 119.666 217.294 119.882 217.585 120.123C208.901 121.341 200.268 123.016 191.634 124.559C190.058 124.841 188.483 125.106 186.898 125.363C187.073 125.048 187.255 124.724 187.429 124.401V124.393Z" fill="#FDFEFF"/>
<path d="M232.389 173.786C232.389 173.786 220.637 171.713 214.408 158.886L190.232 213.437L234.968 215.104L232.389 173.786Z" fill="#7C60A9"/>
<path d="M196.436 134.152C196.436 134.152 160.973 152.651 148.026 156.208L174.566 177.484L196.428 134.16L196.436 134.152Z" fill="#7C60A9"/>
<path d="M151.659 140.321C164.721 141.026 177.642 140.247 190.672 138.671C202.432 137.237 214.201 135.553 226.052 135.089C225.986 134.857 225.928 134.625 225.861 134.401C220.296 134.542 214.731 134.981 209.191 135.578C195.076 137.079 181.01 139.409 166.794 139.757C161.777 139.873 156.759 139.732 151.767 139.434C151.75 139.5 151.742 139.55 151.733 139.616C151.7 139.824 151.675 140.056 151.65 140.321H151.659Z" fill="#FDFEFF"/>
<path d="M193.675 112.362C193.675 112.362 187.662 124.567 184.062 130.172L172.601 122.701L164.49 130.172L160.915 123.713" stroke="#1B2649" stroke-linecap="round" stroke-linejoin="round"/>
<path d="M172.592 122.701L171.92 128.621" stroke="#1B2649" stroke-linecap="round" stroke-linejoin="round"/>
<path d="M152.488 153.853L152.513 154.658C178.431 157.336 204.572 157.792 230.547 155.926C230.523 155.702 230.498 155.478 230.473 155.255C226.251 155.528 222.022 155.76 217.8 155.926C202.507 156.531 187.197 156.374 171.928 155.445C165.443 155.056 158.966 154.525 152.497 153.853H152.488Z" fill="#FDFEFF"/>
<path d="M153.666 181.572C153.683 181.796 153.691 182.012 153.707 182.244C168.163 182.327 182.718 181.149 197.05 179.566C208.885 178.256 220.736 176.589 232.447 174.317C232.414 174.01 232.389 173.695 232.372 173.38C220.404 175.561 208.404 177.46 196.295 178.786C182.113 180.337 167.914 180.967 153.683 181.572H153.666Z" fill="#FDFEFF"/>
<path d="M152.397 86.1018C149.47 85.8531 147.065 83.8548 146.7 81.3756C146.492 79.9411 146.891 78.3491 146.177 77.0722C145.456 75.7787 143.764 75.1402 142.735 74.0126C141.4 72.5615 141.342 70.3808 142.23 68.5317C143.2 66.492 147.836 63.9547 145.879 61.7657C145.132 60.9283 143.905 60.5303 142.852 59.983C141.873 59.4689 140.994 58.7807 140.521 57.8852C140.048 56.9897 140.015 55.8538 140.637 54.9251C142.86 51.6167 150.025 51.4592 153.451 49.0048C154.637 48.1591 155.707 47.1724 156.992 46.4427C161.504 43.8806 167.235 45.1243 171.705 46.9899C172.957 47.5123 174.367 48.0927 175.769 47.645C176.648 47.3714 177.336 46.7412 178.149 46.3349C179.907 45.4643 182.097 45.7711 183.648 46.6417C185.041 47.4294 186.758 49.1375 186.832 50.6963C186.874 51.5918 186.443 52.5702 186.874 53.3497C187.438 54.3861 188.881 54.552 190.15 54.469C191.85 54.3695 193.376 54.6349 194.686 55.5967C196.071 56.6166 196.304 58.4573 195.839 60.0825C195.375 61.7077 194.33 63.2085 193.434 64.7342C193.135 65.2482 192.845 65.7789 192.812 66.3262C192.704 67.885 194.512 68.8137 196.105 69.4438C198.85 70.5383 199.621 72.7854 198.684 75.4221C197.747 78.0589 194.803 80.3723 195.051 83.0173C195.275 85.3639 197.971 86.8315 198.626 89.0786C199.09 90.6788 198.385 92.5694 196.868 93.7882C195.35 94.9988 193.102 95.4797 191.278 94.9657C192.14 96.6323 191.369 98.9125 189.519 100.123C187.761 101.276 185.381 101.4 183.407 100.903C181.433 100.405 179.75 99.3934 178.066 98.4399C169.698 93.7136 162.74 86.9393 152.406 86.0687L152.397 86.1018Z" fill="#1B2649"/>
<path d="M190.241 108.348C190.241 108.348 181.035 125.04 165.708 117.975L165.418 107.511L165.227 100.604L165.095 95.77L183.755 85.2561C185.505 93.7551 186.625 102.519 190.241 108.357V108.348Z" fill="#F89D77"/>
<path d="M179.923 94.9822C180.637 107.038 170.651 110.969 165.484 110.139L165.219 100.596L179.915 94.9822H179.923Z" fill="#ED6B5E"/>
<path d="M183.3 71.5913C184.005 75.5796 183.723 79.6425 183.963 82.1052C184.038 82.8597 184.071 83.5645 184.054 84.2444C184.013 85.795 183.739 87.188 183.208 88.6224C182.512 90.5295 181.384 92.561 179.816 95.2392C177.361 99.4431 172.742 101.466 168.114 102.014C158.336 103.174 155.01 98.1828 153.833 89.6755C153.625 88.1249 153.476 86.4666 153.385 84.7005C153.343 83.9625 153.31 83.208 153.285 82.4368C153.003 74.5017 150.291 70.4056 151.892 67.1221C152 66.9645 152.124 66.807 152.249 66.6578C155.093 63.0592 159.29 60.7707 163.835 60.1488C164.714 60.0327 165.551 59.9415 166.364 59.8834C166.547 59.8669 166.729 59.8586 166.912 59.8503C166.986 59.8503 167.061 59.8337 167.136 59.8337C167.335 59.8171 167.542 59.8088 167.749 59.8088C167.89 59.8088 168.04 59.8005 168.18 59.7922C168.504 59.7922 168.827 59.7922 169.143 59.7922C179.136 59.9995 182.271 65.7042 183.3 71.5747V71.5913Z" fill="#F89D77"/>
<path d="M164.481 74.5514C165.949 71.3343 168.67 74.7256 168.015 74.0539" stroke="#1B2649" stroke-linecap="round" stroke-linejoin="round"/>
<path d="M155.69 75.7538C157.158 72.5367 159.879 75.928 159.223 75.2563" stroke="#1B2649" stroke-linecap="round" stroke-linejoin="round"/>
<path d="M161.314 77.7437C161.48 78.8382 161.596 80.0736 161.272 81.1515C160.982 82.1134 160.244 82.7435 159.473 83.3322C159.473 83.1664 160.484 84.3521 162.334 83.722" stroke="#ED6B5E" stroke-linecap="round" stroke-linejoin="round"/>
<path d="M166.688 78.2496C166.754 78.8964 166.414 79.4519 165.925 79.5017C165.444 79.5514 164.996 79.0622 164.938 78.4237C164.872 77.777 165.212 77.2214 165.701 77.1717C166.182 77.1219 166.63 77.6112 166.688 78.2496Z" fill="#1B2649"/>
<path d="M158.643 79.1368C158.709 79.7836 158.369 80.3391 157.88 80.3889C157.399 80.4386 156.951 79.9494 156.893 79.311C156.827 78.6642 157.167 78.1087 157.656 78.0589C158.137 78.0092 158.585 78.4984 158.643 79.1368Z" fill="#1B2649"/>
<path d="M158.576 87.3538C158.576 87.3538 161.429 86.7568 167.044 85.6125C167.044 85.6125 167.276 91.7484 163.146 92.1381C159.638 92.4615 158.584 87.3538 158.584 87.3538H158.576Z" fill="white"/>
<path d="M149.934 71.326C151.692 72.2215 153.799 71.7903 155.715 71.3426C156.901 71.0689 158.12 70.7787 159.148 70.1237C160.185 69.4769 161.023 68.3824 161.031 67.1636C161.031 66.7656 160.956 66.3593 161.023 65.9696C161.222 64.8336 162.59 64.2863 163.743 64.3858C164.887 64.4853 165.966 65.0077 167.118 65.1155C169.258 65.3228 171.448 63.9049 172.128 61.8652C172.003 63.5815 172.169 65.6379 172.575 67.3128C172.982 68.9877 174.019 70.5963 175.611 71.2597C176.54 71.6494 177.709 71.7737 178.215 72.6361C178.522 73.1585 176.614 75.2977 177.303 78.5149C178.19 82.6607 181.632 81.9642 182.768 81.7569C184.187 81.4999 184.303 79.8001 185.572 79.1036C185.945 78.8963 186.318 78.6641 186.55 78.3076C186.849 77.8433 186.857 77.2545 186.84 76.699C186.724 72.578 185.854 68.4736 184.286 64.6595C183.341 62.3627 182.13 60.1322 180.355 58.3827C177.543 55.6049 173.488 54.2866 169.532 54.3446C165.576 54.4027 161.727 55.7376 158.277 57.6696C155.756 59.0875 153.384 60.8536 151.667 63.1835C149.951 65.5052 149.586 68.4488 149.926 71.3177L149.934 71.326Z" fill="#1B2649"/>
<path d="M191.029 81.0109C191.85 83.5232 190.482 86.2263 187.977 87.0472C185.464 87.8681 182.761 86.5 181.94 83.9959C181.118 81.4835 182.487 78.7804 184.992 77.9595C187.505 77.1386 190.208 78.5068 191.029 81.0109Z" fill="#F89D77"/>
<path d="M188.856 81.5001C188.856 81.5001 188.707 80.1568 187.214 80.0324C185.721 79.9081 183.739 82.4702 185.887 85.1816" stroke="#ED6B5E" stroke-linecap="round" stroke-linejoin="round"/>
<path d="M121.064 104.012C121.064 104.012 122.068 83.9627 127.069 83.9959C130.975 84.0208 136.938 93.6972 142.437 105.272L121.064 104.012Z" fill="#C7D4D0"/>
<path d="M90.2703 247.674C93.7867 257.748 99.8659 313.8 96.9134 321.08C93.9609 328.36 87.3177 340.698 87.3177 340.698C87.3177 340.698 103.557 342.92 107.786 340.698C112.016 338.476 118.327 325.939 119.066 313.8C119.804 301.669 129.399 251.919 129.399 251.919C129.399 251.919 149.204 192.799 119.173 190.544C89.1423 188.289 81.6449 222.973 90.2786 247.674H90.2703Z" fill="#C7D4D0"/>
<path d="M190.515 263.221C190.622 293.626 219.31 304.472 219.31 309.936C219.31 315.392 201.595 340.872 205.286 340.872C208.976 340.872 219.31 342.697 223.001 340.872C226.691 339.048 251.058 312.963 245.153 306.901C239.248 300.832 221.524 278.992 225.961 265.65C230.39 252.301 234.081 223.18 219.318 205.585C219.318 205.585 190.34 211.29 190.523 263.221H190.515Z" fill="#C7D4D0"/>
<path d="M76.8105 131.806C76.8105 128.307 78.8093 114.294 81.8199 114.294C84.8304 114.294 105.017 112.03 105.017 112.03C105.017 112.03 102.678 107.793 105.689 104.783C108.691 101.782 121.372 104.277 121.372 104.277C121.372 104.277 113.866 96.7734 124.872 97.5031C135.886 98.2327 137.196 102.918 137.196 102.918C137.196 102.918 138.2 82.8682 143.201 82.9014C152.763 82.9677 174.733 140.952 171.731 142.958C168.728 144.956 166.472 143.713 166.472 143.713C166.472 143.713 174.924 163.538 209.466 168.845C217.594 170.097 219.327 175.959 217.204 179.118C232.639 184.135 251.913 192.907 261.99 204.914C276.752 222.509 273.061 251.629 268.633 264.979C264.204 278.328 281.919 300.169 287.824 306.23C293.729 312.299 268.682 339.065 264.992 340.889C261.301 342.705 250.967 340.889 247.277 340.889C243.586 340.889 261.99 314.729 261.99 309.265C261.99 303.8 232.995 292.955 233.194 262.549C233.236 255.966 228.036 250.908 220.19 247.541C220.007 247.757 219.808 247.947 219.593 248.113C218.772 248.752 217.752 249.092 216.74 249.332C209.383 251.073 201.795 248.279 194.754 245.535C194.754 245.535 195.483 249.125 189.213 248.395C182.935 247.666 171.44 243.793 156.412 252.234C156.412 252.234 146.817 301.984 146.079 314.115C145.34 326.246 139.029 338.783 134.799 341.013C130.57 343.236 114.331 341.013 114.331 341.013C114.331 341.013 120.974 328.675 123.926 321.395C126.879 314.115 121.712 257.69 117.283 247.989C115.243 243.511 109.429 235.162 103.756 226.157C103.756 226.157 99.4188 230.402 94.0031 221.92C88.5874 213.437 86.6716 196.199 86.6716 196.199C86.6716 196.199 82.9893 200.038 81.3223 197.957C79.6552 195.867 88.9938 164.309 98.3407 156.067C98.3407 156.067 93.8373 159.832 92.8337 156.067C91.8302 152.303 101.841 141.822 101.841 141.822C101.841 141.822 76.8105 135.313 76.8105 131.814V131.806Z" fill="white"/>
<path d="M104.593 111.814C108.383 111.715 112.306 112.345 116.055 112.867C120.019 113.423 124.158 113.962 127.973 115.231C128.288 115.338 128.255 115.886 127.89 115.844C124.1 115.372 120.359 114.468 116.569 113.937C112.555 113.373 108.483 113.265 104.477 112.718C103.946 112.644 104.104 111.831 104.601 111.814H104.593Z" fill="#C7D4D0"/>
<path d="M257.594 212.567C282.673 207.65 288.902 181.515 288.993 177.427C289.142 170.47 287.227 162.535 281.073 159.276C283.32 155.785 282.449 148.82 278.692 147.046C279.099 143.738 278.021 139.492 276.818 136.383C273.791 128.564 269.553 120.985 263.117 115.612C256.681 110.239 247.741 107.387 239.679 109.717C237.996 110.206 238.22 112.428 238.867 114.053C239.514 115.679 240.882 116.889 242.176 118.067C252.045 127.08 260.181 138.821 261.699 152.096C263.864 171.042 252.352 188.878 239.149 202.633C247.052 209.806 246.994 213.778 257.602 212.567H257.594Z" fill="white"/>
<path d="M144.246 87.3872C144.179 87.3374 139.51 96.3339 139.137 102.843C139.137 102.843 144.013 102.967 145.896 103.34C145.896 103.34 145.647 102.379 146.601 102.171C147.563 101.964 152.108 104.526 152.108 104.526C152.108 104.526 149.811 91.931 144.246 87.3872Z" fill="#EDEBEB"/>
<path d="M132.784 109.277C132.576 110.811 133.348 112.179 134.5 112.337C135.662 112.494 136.765 111.375 136.972 109.841C137.179 108.307 136.408 106.939 135.255 106.781C134.094 106.624 132.991 107.743 132.784 109.277Z" fill="#1B2649"/>
<path d="M119.912 107.528C119.704 109.062 120.476 110.43 121.628 110.587C122.789 110.745 123.893 109.625 124.1 108.092C124.307 106.558 123.536 105.189 122.383 105.032C121.222 104.874 120.119 105.994 119.912 107.528Z" fill="#1B2649"/>
<path d="M138.39 155.503C139.078 156.59 138.821 156.747 140.322 156.672C141.931 156.598 142.396 155.561 143.043 154.185C143.275 153.679 144.071 153.729 144.32 154.185C144.751 154.973 145.149 155.934 145.721 156.639C146.567 158.596 148.342 158.994 151.063 157.85C151.394 157.269 151.676 156.672 151.933 156.059C153.036 153.571 153.675 150.993 153.957 148.281C154.04 147.46 155.259 147.162 155.491 148.074C156.08 150.362 156.744 152.634 157.548 154.857C158.095 156.357 158.494 159.657 160.567 156.001C161.139 154.989 161.015 153.099 160.982 151.988C160.965 151.399 161.919 151.25 162.027 151.847C162.4 153.812 162.383 160.031 158.892 159.483C157.789 159.309 157.382 158.364 156.934 157.468C156.113 155.81 155.5 153.986 154.969 152.153C154.33 155.437 153.119 159.069 150.731 160.545C147.488 162.543 145.24 158.754 143.731 156.117C142.927 157.576 141.707 159.069 140.09 159.085C138.307 159.102 137.511 157.261 137.436 155.76C137.411 155.238 138.133 155.097 138.382 155.503H138.39Z" fill="#C7D4D0"/>
<path d="M99.7991 151.648C99.9318 151.507 100.23 151.565 100.264 151.772C101.002 156.125 105.712 154.434 108.217 152.858C108.632 152.593 109.345 152.933 109.279 153.464C109.08 155.039 108.872 157.17 109.95 158.43C110.191 159.508 110.747 159.749 111.609 159.177C112.223 159.127 112.754 158.895 113.201 158.488C114.064 157.891 114.595 157.137 115.034 156.2C115.358 155.503 116.336 156.109 116.046 156.797C115.101 159.011 112.397 161.523 109.71 160.686C107.57 160.014 107.819 156.938 107.885 154.757C105.845 155.943 103.175 156.739 101.043 155.661C99.542 154.906 98.5136 153.024 99.8157 151.656L99.7991 151.648Z" fill="#C7D4D0"/>
<path d="M144.195 85.8863C148.624 91.1764 151.444 97.818 152.638 104.559C152.696 104.874 152.232 105.015 152.149 104.692C150.532 97.9673 147.505 92.0056 143.482 86.4336C143.184 86.019 143.864 85.4883 144.195 85.8863Z" fill="#C7D4D0"/>
<path d="M109.968 133.771C109.968 133.771 116.18 140.719 116.188 148.016C116.188 153.356 113.998 155.371 110.747 155.147C103.258 154.633 103.018 136.333 96.3994 134.053C96.3994 134.053 106.169 134.327 109.968 133.771Z" fill="#F598AE"/>
<path d="M105.307 134.161C106.891 134.658 107.936 137.187 108.542 138.58C109.354 140.479 109.81 142.461 109.968 144.517C110.026 145.28 108.832 145.28 108.774 144.517C108.616 142.419 108.119 140.38 107.223 138.473C106.601 137.154 105.224 135.794 105.033 134.36C105.017 134.219 105.183 134.111 105.307 134.153V134.161Z" fill="#F8BAC8"/>
<path d="M76.8762 128.846C81.1391 126.947 80.9152 121.823 80.5917 117.901C80.5337 117.204 81.5538 117.138 81.7611 117.743C82.8642 121.035 83.6604 124.949 85.6177 127.859C87.7242 130.977 92.0286 132.171 95.5202 132.9C99.0284 133.638 102.644 133.771 106.219 133.647C109.893 133.514 113.542 132.867 117.216 132.776C117.647 132.768 117.755 133.448 117.324 133.539C113.459 134.401 109.329 134.65 105.373 134.766C101.516 134.882 97.6185 134.633 93.8615 133.688C90.6353 132.875 86.9612 131.64 84.8961 128.862C83.4862 126.963 82.632 124.609 81.8938 122.237C81.7114 125.429 80.7079 128.497 77.4982 129.924C76.7684 130.247 76.1298 129.169 76.8679 128.846H76.8762Z" fill="#C7D4D0"/>
<path d="M89.8888 114.567C91.4812 111.441 77.8134 110.977 77.0669 112.727C76.3122 114.476 79.1486 118.746 80.5668 119.236C83.4779 120.239 88.6945 116.914 89.8888 114.567Z" fill="#1B2649"/>
<path opacity="0.2" d="M87.4339 114.244C87.749 113.125 79.2564 112.171 78.8666 113.183C78.4768 114.194 86.9279 116.027 87.4339 114.244Z" fill="white"/>
<path d="M155.558 249.672C156.611 248.138 157.772 246.928 158.344 245.095C158.933 243.213 159.033 241.181 159.049 239.225C159.083 234.391 158.792 229.523 158.626 224.698C158.585 223.454 160.269 223.106 160.882 224.084C162.151 226.115 163.934 228.984 166.107 226.198C167.318 224.648 167.716 221.87 167.89 219.971C168.222 216.315 167.451 212.774 167.335 209.142C167.301 208.023 168.985 207.807 169.275 208.877C170.76 214.358 171.034 221.306 168.554 226.53C167.716 228.296 166.48 230.543 164.225 230.195C163.138 230.029 162.118 229.349 161.222 228.487C161.479 233.047 161.828 237.691 161.355 242.176C161.023 245.302 159.812 249.838 156.221 250.518C155.773 250.601 155.267 250.12 155.574 249.672H155.558Z" fill="#C7D4D0"/>
<path d="M103.855 197.94C103.996 197.534 104.535 197.542 104.676 197.94C105.323 199.773 105.307 201.73 105.555 203.645C105.887 206.149 106.401 208.612 107.065 211.049C107.397 212.268 108.326 217.202 109.478 217.832C110.507 218.396 111.56 216.613 112.423 216.215C113.127 215.892 114.015 216.265 114.007 217.127C113.949 227.484 115.79 237.649 119.431 247.342C119.713 248.088 118.543 248.379 118.245 247.666C114.537 238.652 112.447 229.175 111.983 219.466C111.394 220.195 110.805 220.834 109.545 220.585C107.687 220.22 107.015 217.981 106.426 216.447C104.469 211.348 101.973 203.338 103.855 197.932V197.94Z" fill="#C7D4D0"/>
<path d="M224.934 215.378C225.68 214.549 226.8 215.743 226.136 216.58C224.204 219.009 222.86 221.787 222.131 224.814C221.791 226.215 221.608 227.641 221.608 229.084C221.6 229.955 221.658 230.825 221.782 231.687C221.832 232.94 222.661 233.445 224.279 233.188C224.32 233.097 224.353 232.998 224.395 232.906C224.967 231.605 226.742 232.608 226.543 233.81C226.468 234.258 226.302 234.656 226.07 235.004C224.727 238.777 225.025 242.964 226.369 246.72C227.679 250.402 230.101 253.403 231.652 256.919C231.801 257.259 231.403 257.64 231.104 257.342C225.954 252.035 221.973 243.793 223.35 236.323C223.209 236.323 223.068 236.323 222.927 236.298C220.878 235.991 219.933 233.976 219.576 232.144C218.399 226.099 220.945 219.822 224.926 215.386L224.934 215.378Z" fill="#C7D4D0"/>
<path d="M190.158 221.945C190.241 221.539 190.83 221.497 191.029 221.829C191.958 223.429 192.348 225.253 193.393 226.812C194.537 228.512 198.344 231.862 199.82 228.636C199.845 228.537 199.878 228.446 199.928 228.354C200.019 228.172 200.276 228.106 200.459 228.197C200.575 228.222 200.674 228.28 200.724 228.396C200.981 228.636 201.114 228.926 201.338 229.25C201.686 229.772 202.151 230.237 202.648 230.626C203.701 231.447 204.896 231.804 206.223 231.663C207.425 231.538 207.417 233.421 206.223 233.537C204.572 233.702 202.88 233.197 201.587 232.144C201.097 231.737 200.492 231.074 200.119 230.353C198.941 231.878 196.42 231.862 194.661 230.701C192.124 229.009 189.536 225.104 190.158 221.953V221.945Z" fill="#C7D4D0"/>
<path d="M106.061 179.027C106.111 178.563 106.808 178.38 106.932 178.911C107.554 181.473 108.11 184.035 109.213 186.448C110.241 188.695 113.169 193.239 115.226 189.383C115.507 188.853 116.212 189.06 116.378 189.541C116.378 189.541 116.387 189.541 116.395 189.541C116.403 189.599 116.403 189.649 116.42 189.707C116.42 189.715 116.42 189.732 116.42 189.74C116.445 189.897 116.47 190.055 116.47 190.204C116.735 192.46 117.855 194.98 119.588 196.398C121.612 198.048 125.858 198.736 126.339 194.848C126.505 193.513 128.296 193.488 128.437 194.848C128.669 197.07 129.665 201.68 133.015 200.229C133.911 199.839 134.591 200.959 133.787 201.547C130.394 203.985 128.18 201.108 127.085 198.023C125.883 199.441 124.008 200.212 121.918 199.881C117.689 199.209 116.395 195.644 115.607 192.086C114.305 193.106 111.842 192.949 110.44 191.838C106.998 189.101 105.588 183.181 106.053 179.027H106.061Z" fill="#C7D4D0"/>
<path d="M262.437 193.289C263.938 191.1 265.149 186.879 268.159 186.233C269.146 186.017 270.059 186.274 270.73 186.805C271.253 184.947 271.759 183.032 272.58 181.423C273.136 180.337 274.023 179.724 275.284 179.964C278.925 180.652 277.797 184.806 276.635 187.087C276.188 187.974 274.861 187.194 275.3 186.307C275.748 185.42 277.291 182.261 275.449 181.705C274.239 181.34 273.542 183.455 273.335 184.151C272.746 186.067 272.298 188.007 271.817 189.955C271.51 191.183 269.685 190.66 269.934 189.433C268.533 188.297 267.488 188.256 266.816 189.317C266.492 189.64 266.219 190.005 265.995 190.403C265.58 191.009 265.257 191.664 264.801 192.244C264.195 193.007 263.714 193.397 262.818 193.761C262.553 193.869 262.296 193.504 262.453 193.28L262.437 193.289Z" fill="#C7D4D0"/>
<path d="M90.2949 166.581C90.2949 166.581 135.246 190.751 182.76 159.301L172.393 151.208C172.393 151.208 170.618 151.938 167.5 152.974C155.756 156.855 124.937 165.122 97.8089 155.462C97.8089 155.462 95.014 159.177 92.6503 162.734C91.738 164.118 90.8921 165.478 90.2949 166.581Z" fill="#F8C164"/>
<path d="M90.2949 166.581C90.2949 166.581 135.246 190.751 182.76 159.301L172.393 151.208C172.393 151.208 170.618 151.938 167.5 152.974C167.765 155.23 167.923 161.291 162.54 165.006C156.005 169.516 121.819 177.161 92.6503 162.725C91.738 164.11 90.8921 165.47 90.2949 166.573V166.581Z" fill="#F89F68"/>
<path d="M109.702 160.669C109.702 160.669 104.203 151.084 103.556 150.163C102.917 149.243 93.8359 143.547 93.2637 144.011C90.7839 145.993 95.5527 150.429 95.5527 150.429C95.5527 150.429 88.0968 149.973 87.7816 150.686C87.4664 151.399 88.1465 153.969 88.1465 153.969C88.1465 153.969 84.7462 156.175 85.3516 156.963C85.957 157.75 86.7947 159.309 86.7947 159.309C86.7947 159.309 84.0578 161.316 84.4725 162.178C84.8871 163.04 86.9108 172.849 101.474 173.795L109.702 160.677V160.669Z" fill="#ED6B5E"/>
<path d="M184.941 151.573L169.556 172.319L109.71 160.677L101.482 173.795C101.482 173.795 173.081 205.726 183.033 206.522C192.994 207.318 211.298 177.485 211.298 177.485L184.941 151.573Z" fill="#ED6B5E"/>
<path d="M169.557 172.311L174.566 179.914" stroke="#1B2649" stroke-linecap="round" stroke-linejoin="round"/>
<path d="M169.556 166.606L204.132 193.778C204.132 193.778 207.557 187.874 211.522 179.392C211.663 179.093 211.795 178.795 211.936 178.488C213.794 174.466 215.751 169.906 217.493 165.155C217.576 164.923 217.667 164.69 217.742 164.45C219.94 158.405 221.789 152.071 222.701 146.125C222.751 145.81 222.793 145.504 222.834 145.188C224.227 135.031 222.751 126.151 215.337 122.071C211.455 119.932 205.832 122.983 199.853 128.348C199.645 128.539 199.438 128.729 199.231 128.912C195.316 132.51 191.277 137.038 187.487 141.698C187.313 141.905 187.147 142.104 186.981 142.311C184.211 145.736 181.59 149.218 179.26 152.427C179.069 152.676 178.878 152.941 178.712 153.19C173.272 160.719 169.548 166.606 169.548 166.606H169.556Z" fill="#9679B6"/>
<path d="M209.448 183.712L175.594 157.584" stroke="#1B2649" stroke-linecap="round" stroke-linejoin="round"/>
<path d="M199.239 128.92C201.761 130.869 204.307 132.784 206.911 134.666C212.177 138.48 217.493 142.245 222.71 146.134C222.76 145.818 222.801 145.512 222.843 145.197C222.76 145.122 222.677 145.064 222.594 144.998C215.072 139.384 207.334 134.044 199.87 128.348C199.662 128.539 199.455 128.729 199.248 128.912L199.239 128.92Z" fill="#FDFEFF"/>
<path d="M186.998 142.311C196.834 150.354 207.01 157.983 217.493 165.155C217.576 164.923 217.667 164.691 217.742 164.45C217.344 164.177 216.937 163.895 216.539 163.613C206.57 156.689 196.875 149.376 187.495 141.689C187.321 141.897 187.155 142.096 186.989 142.303L186.998 142.311Z" fill="#FDFEFF"/>
<path d="M178.721 153.198C181.889 155.943 185.09 158.637 188.291 161.299C195.839 167.551 203.568 173.645 211.514 179.408C211.655 179.11 211.787 178.811 211.928 178.504C203.892 172.634 195.988 166.589 188.325 160.213C185.264 157.667 182.245 155.072 179.268 152.444C179.077 152.692 178.887 152.958 178.721 153.206V153.198Z" fill="#FDFEFF"/>
<path d="M149.619 140.23C149.619 140.23 152.87 129.666 153.301 128.63C153.724 127.593 161.329 120.04 161.984 120.363C164.837 121.748 161.163 127.129 161.163 127.129C161.163 127.129 168.329 125.04 168.793 125.67C169.258 126.3 169.158 128.953 169.158 128.953C169.158 128.953 172.957 130.355 172.542 131.258C172.127 132.162 171.655 133.87 171.655 133.87C171.655 133.87 174.765 135.23 174.549 136.159C174.334 137.087 174.516 147.104 160.525 151.225L149.61 140.238L149.619 140.23Z" fill="#F89D77"/>
<path d="M74.0224 165.992L83.4771 168.065L149.618 140.23L160.533 151.216C160.533 151.216 104.908 190.303 93.2387 196.987C76.552 206.539 46.7946 182.824 74.0307 165.992H74.0224Z" fill="#F89D77"/>
<path d="M86.695 166.714C86.695 166.714 80.0601 169.607 74.4951 171.382" stroke="#1B2649" stroke-linecap="round" stroke-linejoin="round"/>
<circle cx="244" cy="63" r="10" fill="#B6B5FF"/>
<path d="M306.421 147.413L300.969 137.086L312.638 137.528L306.421 147.413Z" stroke="#C5E49D"/>
<circle cx="53" cy="79" r="6" fill="#FFE799"/>
<rect x="111.796" y="31.6066" width="9" height="9" transform="rotate(14.0796 111.796 31.6066)" stroke="#FFE799"/>
<path d="M37.7986 200.42L26.5435 204.224L28.8764 192.575L37.7986 200.42Z" fill="#9EE1AD"/>
</g>
</svg>
