<svg width="61" height="61" viewBox="0 0 61 61" fill="none" xmlns="http://www.w3.org/2000/svg">
<g clip-path="url(#clip0_266_149)">
<path d="M56.137 54.3272V22.0276C56.137 19.9977 54.4661 18.2849 52.4857 18.2849H7.61719C5.63678 18.2849 3.96582 19.9977 3.96582 22.0276V54.3272H56.137Z" fill="#57606F"/>
<path d="M9.18555 23.6346V54.3272H23.5847L24.8328 57.002H35.2712L36.6327 54.3272H50.9184V23.6346H9.18555Z" fill="#ECF0F1"/>
<path d="M23.5845 0.850525C16.3849 0.850525 10.5469 6.83467 10.5469 14.2144C10.5469 15.61 10.7532 16.995 11.1761 18.2743C11.8053 20.3043 12.847 22.1228 14.3014 23.6241C16.7047 26.0875 19.9332 27.684 23.5845 27.684C27.2359 27.684 30.5778 26.1827 32.8677 23.6241C34.3323 22.1228 35.3741 20.3043 35.993 18.2743C36.4159 16.995 36.6222 15.7052 36.6222 14.2144C36.6222 6.83467 30.7738 0.850525 23.5742 0.850525H23.5845Z" fill="#F76965"/>
<path d="M56.1373 54.1157H60.0981C60.0981 57.8585 57.1791 60.8505 53.5277 60.8505H6.57565C4.80154 60.8505 3.13057 60.0999 1.98565 58.9263C0.840735 57.7527 0.108398 56.04 0.108398 54.2214H23.5844L24.9459 56.8963H35.3843L36.7458 54.2214H56.1579V54.1157H56.1373Z" fill="#313A52"/>
<path d="M25.4618 6.83464V14.8593C25.4618 15.9272 24.6263 16.8893 23.4814 16.8893C22.3365 16.8893 21.501 16.0329 21.501 14.8593V6.83464C21.501 5.7668 22.3365 4.80469 23.4814 4.80469C24.0074 4.80469 24.5232 5.01614 24.8326 5.44962C25.2452 5.7668 25.4618 6.30601 25.4618 6.83464Z" fill="white"/>
<path d="M24.9464 20.1034C25.2559 20.4206 25.4725 20.9598 25.4725 21.4884C25.4725 22.0171 25.2662 22.5563 24.9464 22.884C24.637 23.2012 24.1109 23.4232 23.5849 23.4232C22.5431 23.4232 21.6045 22.5669 21.6045 21.3933C21.6045 20.8541 21.8108 20.3254 22.1305 20.0083C22.44 19.6911 22.966 19.4691 23.4817 19.4691C23.9975 19.4691 24.5235 19.7862 24.9464 20.114V20.1034Z" fill="white"/>
<path d="M34.0227 47.6981C34.755 47.6981 35.3739 48.3431 35.3739 49.0831C35.3739 49.8232 34.7447 50.4682 34.0227 50.4682C33.3006 50.4682 32.6611 49.8232 32.6611 49.0831C32.6611 48.2268 33.2903 47.6981 34.0227 47.6981Z" fill="#65B2FE"/>
<path d="M26.194 47.6981C26.9263 47.6981 27.5555 48.343 27.5555 49.0831C27.5555 49.8232 26.9263 50.4681 26.194 50.4681C25.4617 50.4681 24.8428 49.7175 24.8428 48.9668C24.8428 48.2161 25.472 47.6875 26.194 47.6875V47.6981Z" fill="#65B2FE"/>
<path d="M45.7087 34.3237H14.4039C13.6716 34.3237 13.0527 33.6787 13.0527 32.9281C13.0527 32.1774 13.6819 31.5325 14.4039 31.5325H45.7087C46.4411 31.5325 47.0703 32.1774 47.0703 32.9281C47.0703 33.6787 46.4411 34.3237 45.7087 34.3237Z" fill="#65B2FE"/>
<path d="M26.1935 38.2884H14.4039C13.6716 38.2884 13.0527 37.6435 13.0527 36.9034C13.0527 36.1633 13.6819 35.5184 14.4039 35.5184H26.1935C26.9259 35.5184 27.5551 36.1633 27.5551 36.9034C27.5551 37.6435 26.8227 38.2884 26.1935 38.2884Z" fill="#65B2FE"/>
<path d="M24.8326 42.3483H14.3942C13.6618 42.3483 13.043 41.7034 13.043 40.9633C13.043 40.2232 13.6722 39.5782 14.3942 39.5782H24.8326C25.5649 39.5782 26.1838 40.2232 26.1838 40.9633C26.1838 41.7034 25.5546 42.3483 24.8326 42.3483Z" fill="#65B2FE"/>
<path d="M23.5839 46.3025H14.4039C13.6716 46.3025 13.0527 45.6576 13.0527 44.9069C13.0527 44.1563 13.6819 43.6276 14.4039 43.6276H23.5839C24.3163 43.6276 24.9455 44.2726 24.9455 45.0126C24.9455 45.7527 24.2131 46.2919 23.5839 46.2919V46.3025Z" fill="#65B2FE"/>
<path d="M22.2327 50.373H14.4039C13.6716 50.373 13.0527 49.7281 13.0527 48.988C13.0527 48.2479 13.6819 47.603 14.4039 47.603H22.2327C22.9651 47.603 23.5839 48.2479 23.5839 48.988C23.5839 49.7281 22.9547 50.373 22.2327 50.373Z" fill="#65B2FE"/>
<path d="M45.7091 38.2884H34.0227C33.2903 38.2884 32.6611 37.6435 32.6611 36.9034C32.6611 36.1633 33.2903 35.5184 34.0227 35.5184H45.7091C46.4414 35.5184 47.0706 36.1633 47.0706 36.9034C47.0706 37.6435 46.4414 38.2884 45.7091 38.2884Z" fill="#65B2FE"/>
<path d="M45.7095 42.3483H35.2711C34.5388 42.3483 33.9199 41.7034 33.9199 40.9633C33.9199 40.2232 34.5491 39.5782 35.2711 39.5782H45.7095C46.4418 39.5782 47.071 40.2232 47.071 40.9633C47.071 41.7034 46.4418 42.3483 45.7095 42.3483Z" fill="#65B2FE"/>
<path d="M45.7089 46.3025H36.5289C35.7966 46.3025 35.1777 45.6576 35.1777 44.9069C35.1777 44.1563 35.8069 43.5219 36.5289 43.5219H45.7089C46.4413 43.5219 47.0705 44.1668 47.0705 44.9069C47.0705 45.647 46.4413 46.3025 45.7089 46.3025Z" fill="#65B2FE"/>
<path d="M45.7089 50.373H37.8801C37.1477 50.373 36.5186 49.7281 36.5186 48.988C36.5186 48.2479 37.1477 47.603 37.8801 47.603H45.7089C46.4412 47.603 47.0704 48.2479 47.0704 48.988C47.0704 49.7281 46.4412 50.373 45.7089 50.373Z" fill="#65B2FE"/>
</g>
<defs>
<clipPath id="clip0_266_149">
<rect width="60" height="60" fill="white" transform="translate(0.108398 0.850525)"/>
</clipPath>
</defs>
</svg>
