<svg width="58" height="59" viewBox="0 0 58 59" fill="none" xmlns="http://www.w3.org/2000/svg">
<g clip-path="url(#clip0_276_1983)">
<path d="M0.71875 29.739V58.739H57.7188V29.739H0.71875Z" fill="#FEBE76"/>
<path d="M51.8651 35.5643H34.3506V41.3897H51.8651V35.5643Z" fill="#596A97"/>
<path d="M57.7188 21.1162V29.8542H0.71875V16.8105H6.56076H15.3238L21.1542 21.1162H50.3527H57.7188Z" fill="#F9AF64"/>
<path d="M38.6806 54.4218H6.56111C5.74138 54.4218 5.03711 53.7196 5.03711 52.9137C5.03711 52.1078 5.74138 51.394 6.56111 51.394H38.6806C39.5003 51.394 40.2046 52.0963 40.2046 52.9137C40.2046 53.8462 39.5003 54.4218 38.6806 54.4218Z" fill="#E8A664"/>
<path d="M29.9176 50.1162H6.56111C5.74138 50.1162 5.03711 49.4139 5.03711 48.608C5.03711 47.8022 5.74138 47.0884 6.56111 47.0884H29.9176C30.7373 47.0884 31.4416 47.7906 31.4416 48.608C31.4416 49.4254 30.7373 50.1162 29.9176 50.1162Z" fill="#E8A664"/>
<path d="M22.6786 45.6954H6.56111C5.74138 45.6954 5.03711 44.9931 5.03711 44.1757C5.03711 43.3583 5.74138 42.6561 6.56111 42.6561H22.6786C23.4983 42.6561 24.191 43.3583 24.191 44.1757C24.191 44.9931 23.4868 45.6954 22.6786 45.6954Z" fill="#E8A664"/>
<path d="M40.1925 0.739014H6.56055V16.8105H15.3236L21.1656 21.2313H50.3641V10.9851C46.8542 7.49685 43.7023 4.2273 40.2041 0.739014H40.1925Z" fill="#EAEAEA"/>
<path d="M40.1924 0.739014C43.6907 4.2273 46.8541 7.38173 50.4679 10.9851H40.1924V0.739014Z" fill="#BEC3C7"/>
<path d="M28.5201 5.15979C29.3398 5.15979 30.0441 5.86205 30.0441 6.67944C30.0441 7.49683 29.3398 8.18758 28.5201 8.18758C27.7004 8.18758 26.9961 7.48532 26.9961 6.67944C26.9961 5.74693 27.7004 5.15979 28.5201 5.15979Z" fill="#A3C0DD"/>
<path d="M24.0748 8.07247H13.7993C12.9796 8.07247 12.4023 7.3702 12.4023 6.56433C12.4023 5.75845 13.1066 5.04468 13.7993 5.04468H24.0748C24.8945 5.04468 25.5873 5.74694 25.5873 6.56433C25.5873 7.38172 24.883 8.07247 24.0748 8.07247Z" fill="#A3C0DD"/>
<path d="M29.9177 12.3897H16.8367C16.0169 12.3897 15.3242 11.6874 15.3242 10.8816C15.3242 10.0757 16.0285 9.37341 16.8367 9.37341H30.0332C30.8529 9.37341 31.5456 10.0757 31.5456 10.8816C31.4302 11.8141 30.7259 12.3897 29.9062 12.3897H29.9177Z" fill="#A3C0DD"/>
<path d="M35.7593 16.8104H22.6783C21.8586 16.8104 21.1543 16.1082 21.1543 15.3023C21.1543 14.4964 21.8586 13.7827 22.6783 13.7827H35.8748C36.6945 13.7827 37.3988 14.4849 37.3988 15.3023C37.3988 16.1197 36.579 16.8104 35.7593 16.8104Z" fill="#A3C0DD"/>
<path d="M35.9813 19.3683L29.7079 9.59784L23.4346 19.3683H26.8437V35.5643H32.5722V19.3683H35.9813Z" fill="#FF6344"/>
</g>
<defs>
<clipPath id="clip0_276_1983">
<rect width="57" height="58" fill="white" transform="translate(0.71875 0.739014)"/>
</clipPath>
</defs>
</svg>
