<svg width="64" height="61" viewBox="0 0 64 61" fill="none" xmlns="http://www.w3.org/2000/svg">
<g clip-path="url(#clip0_271_896)">
<path d="M9.02133 5.06969V14.0378H0.0869141V5.06969C0.0869141 3.87631 0.557766 2.68292 1.39353 1.84401C2.22929 1.0051 3.30048 0.532471 4.60709 0.532471C6.9849 0.650627 9.00956 2.68292 9.00956 5.06969H9.02133Z" fill="#ACABDA"/>
<path d="M50.3387 52.8878H57.1307C57.1307 57.9094 53.7994 60.5325 49.8678 60.5325H17.3555C21.0517 60.178 24.3829 57.6613 24.3829 52.8878H50.3387Z" fill="#ACABDA"/>
<path d="M50.3391 6.74752C50.3391 3.40369 47.5964 0.650635 44.2651 0.650635H4.13672C6.63223 0.650635 8.6569 2.68293 8.6569 5.18785V52.8759C8.77461 57.6613 12.1059 60.2844 15.6844 60.5207H17.2382C20.9344 60.1662 24.2656 57.6495 24.2656 52.8759H50.2214V6.74752H50.3391Z" fill="#E4E4F5"/>
<path d="M63.0755 20.4891L52.8344 18.4568L50.3389 18.9295L42.7229 20.4891C42.7229 35.9086 42.252 34.2308 50.3389 42.4781H55.4594C63.6758 33.8763 63.0755 36.2631 63.0755 20.4891Z" fill="#80AF52"/>
<path d="M55.6944 23.0059C56.5302 23.0059 57.2483 23.7266 57.2483 24.5655C57.2483 25.4044 56.5302 26.1134 55.6944 26.1134C54.8587 26.1134 54.1406 25.3926 54.1406 24.5655C54.2583 23.7266 54.8587 23.0059 55.6944 23.0059Z" fill="#70993F"/>
<path d="M52.0104 36.5112C51.6573 36.5112 51.2923 36.393 50.9392 36.0386L47.7256 32.8129C47.1253 32.2103 47.1253 31.265 47.7256 30.6624C48.326 30.0598 49.2677 30.0598 49.868 30.6624L52.1281 32.931L57.6018 27.4368C58.2021 26.8342 59.1556 26.8342 59.7441 27.4368C60.3445 28.0394 60.3445 28.9846 59.7441 29.5872L53.1993 36.1567C52.7167 36.393 52.3635 36.5112 52.0104 36.5112Z" fill="white"/>
<path d="M51.2917 25.9953H48.3136C47.4778 25.9953 46.7598 25.2745 46.7598 24.4356C46.7598 23.5967 47.4778 22.8878 48.3136 22.8878H51.2917C52.1275 22.8878 52.8455 23.6085 52.8455 24.4356C52.7278 25.3927 52.0098 25.9953 51.2917 25.9953Z" fill="#70993F"/>
<path d="M35.4476 27.5431H14.6124C13.7766 27.5431 13.0586 26.8224 13.0586 25.9834C13.0586 25.1445 13.7766 24.4238 14.6124 24.4238H35.4476C36.2834 24.4238 37.0014 25.1445 37.0014 25.9834C37.0014 26.8224 36.2834 27.5431 35.4476 27.5431Z" fill="#CECECE"/>
<path d="M37.0014 31.9621H14.6124C13.7766 31.9621 13.0586 31.2414 13.0586 30.4143C13.0586 29.5872 13.7766 28.8546 14.6124 28.8546H37.0014C37.8372 28.8546 38.5552 29.5754 38.5552 30.4143C38.4375 31.3714 37.8372 31.9621 37.0014 31.9621Z" fill="#CECECE"/>
<path d="M38.4257 36.5112H14.6124C13.7766 36.5112 13.0586 35.7905 13.0586 34.9634C13.0586 34.1363 13.7766 33.4037 14.6124 33.4037H38.4257C39.2615 33.4037 39.9796 34.1244 39.9796 34.9634C39.9796 35.8023 39.2615 36.5112 38.4257 36.5112Z" fill="#CECECE"/>
<path d="M39.9796 40.9303H14.6124C13.7766 40.9303 13.0586 40.2095 13.0586 39.3706C13.0586 38.5317 13.7766 37.8228 14.6124 37.8228H39.9796C40.8153 37.8228 41.5216 38.5435 41.5216 39.3706C41.4039 40.3277 40.8035 40.9303 39.9796 40.9303Z" fill="#CECECE"/>
<path d="M44.382 45.4793H14.6124C13.7766 45.4793 13.0586 44.7586 13.0586 43.9197C13.0586 43.0807 13.7766 42.36 14.6124 42.36H44.382C45.2178 42.36 45.9358 43.0807 45.9358 43.9197C45.9358 44.7586 45.2178 45.4793 44.382 45.4793Z" fill="#CECECE"/>
<path d="M44.382 49.8984H14.6124C13.7766 49.8984 13.0586 49.1776 13.0586 48.3505C13.0586 47.5234 13.7766 46.7908 14.6124 46.7908H44.382C45.2178 46.7908 45.9358 47.5116 45.9358 48.3505C45.9358 49.3076 45.2178 49.8984 44.382 49.8984Z" fill="#CECECE"/>
<path d="M18.897 10.6939C17.0607 11.202 14.8712 13.4588 16.5545 15.0657C17.4138 15.881 18.1437 15.2666 19.0383 14.9476C20.133 14.5577 20.6863 15.3611 21.7457 15.302C22.452 15.2666 23.0994 15.0185 23.4408 14.3568C24.3942 12.419 21.2748 10.7176 19.7446 10.5994C19.4856 10.5758 19.2031 10.6112 18.9088 10.6939H18.897Z" fill="black"/>
<path d="M14.5182 11.3556C14.1768 11.0366 14.0473 10.4813 14.2827 10.0677C14.683 9.37058 15.4952 9.67779 15.8954 10.1622C16.0838 10.3867 16.2486 10.6585 16.2603 10.9539C16.2721 11.2493 16.1073 11.5683 15.813 11.651C15.813 11.651 14.8478 11.6746 14.5064 11.3438L14.5182 11.3556Z" fill="black"/>
<path d="M16.1081 8.66163C16.061 8.27171 16.0493 7.84635 16.2258 7.49188C16.4024 7.13741 16.8262 6.87746 17.2029 6.99562C17.5325 7.10196 17.7208 7.44461 17.8385 7.77545C17.9562 8.10629 18.0504 8.43713 18.121 8.77979C18.1917 9.14607 18.227 9.55962 18.0504 9.89046C17.3206 11.332 16.2023 9.41783 16.1081 8.66163Z" fill="black"/>
<path d="M19.9567 9.3588C19.4623 8.83891 19.2033 8.09453 19.2621 7.37377C19.2975 6.99567 19.4269 6.59394 19.733 6.35762C21.0043 5.32966 21.7223 8.49626 21.0396 9.26428C20.7336 9.59512 19.9567 9.3588 19.9567 9.3588Z" fill="black"/>
<path d="M22.2408 10.2922C21.8759 9.71327 22.1467 8.62622 22.5822 8.1536C22.7706 7.95273 23.0295 7.7755 23.312 7.81094C23.7005 7.84639 23.9477 8.24812 24.0536 8.62622C24.2891 9.40606 24.0889 10.6349 23.0531 10.6703C22.6528 10.6822 22.3939 10.5285 22.2526 10.2922H22.2408Z" fill="black"/>
<path d="M31.7752 17.9252C33.4231 18.4687 35.3065 20.5719 33.6821 21.8834C32.8581 22.5451 32.2225 21.9661 31.422 21.6471C30.445 21.2454 29.8917 21.907 28.9265 21.8007C28.2791 21.7298 27.7023 21.4817 27.4315 20.8791C26.6664 19.1304 29.6092 17.8188 31.0218 17.807C31.2572 17.807 31.5162 17.8543 31.7869 17.937L31.7752 17.9252Z" fill="black"/>
<path d="M34.5536 18.7286C35.0127 18.835 35.5188 18.7641 35.8837 18.4569C36.2486 18.1497 36.4017 17.6061 36.2016 17.1926C35.8484 16.4718 35.0127 16.7318 34.5889 17.1926C34.3888 17.4053 34.2122 17.6652 34.1769 17.9606C34.1416 18.256 34.5654 18.7286 34.5654 18.7286H34.5536Z" fill="black"/>
<path d="M34.6357 14.924C34.7181 14.5341 34.7534 14.1205 34.5651 13.7424C34.3767 13.3761 33.9059 13.0807 33.4586 13.1753C33.0701 13.258 32.8347 13.5888 32.6699 13.9078C32.5051 14.2269 32.3756 14.5577 32.2814 14.8885C32.1755 15.2548 32.1166 15.6566 32.2932 15.9992C33.0583 17.488 34.4827 15.6566 34.6357 14.9122V14.924Z" fill="black"/>
<path d="M31.1634 15.8219C31.646 15.2075 31.8226 14.4277 31.6343 13.7306C31.5283 13.3643 31.3047 12.998 30.928 12.8089C29.2918 12.0409 28.974 15.3021 29.9039 15.9283C30.3041 16.2 31.1634 15.8219 31.1634 15.8219Z" fill="black"/>
<path d="M28.2559 16.7081C28.6561 16.1528 28.456 15.0539 28.044 14.5458C27.8674 14.3332 27.6202 14.1441 27.3377 14.1559C26.9492 14.1677 26.6785 14.5577 26.549 14.9239C26.2665 15.692 26.396 16.9208 27.4201 17.0271C27.8203 17.0626 28.0793 16.9326 28.2441 16.7081H28.2559Z" fill="black"/>
</g>
<defs>
<clipPath id="clip0_271_896">
<rect width="63" height="60" fill="white" transform="translate(0.0869141 0.532471)"/>
</clipPath>
</defs>
</svg>
