<svg width="62" height="63" viewBox="0 0 62 63" fill="none" xmlns="http://www.w3.org/2000/svg">
<g clip-path="url(#clip0_271_1933)">
<path d="M55.9283 6.40234H6.35214C3.24951 6.5121 0.804688 9.06937 0.804688 12.2852V40.8212C0.804688 44.037 3.46878 46.704 6.68104 46.704C59.5791 46.704 56.038 46.704 56.2572 46.704C59.3599 46.5942 61.8047 44.037 61.8047 40.8212V12.2852C61.8047 9.06937 59.2502 6.40234 55.9283 6.40234Z" fill="#EBEAEA"/>
<path d="M13.4451 19.0569C17.3261 19.0569 20.5383 22.2727 20.5383 26.158C20.5383 27.1568 20.3191 27.7165 19.9792 28.6055H6.89995C6.57105 27.8263 6.34082 27.1678 6.34082 26.158C6.34082 22.2727 9.55308 19.0569 13.4341 19.0569H13.4451Z" fill="#4974B7"/>
<path d="M13.4457 11.9559C15.441 11.9559 16.9978 13.5144 16.9978 15.5119C16.9978 17.5094 15.441 19.0679 13.4457 19.0679C11.4503 19.0679 9.89355 17.5094 9.89355 15.5119C9.89355 13.6241 11.56 11.9559 13.4457 11.9559Z" fill="#FFD8A8"/>
<path d="M41.0624 27.2775C41.8408 27.2775 42.4986 27.947 42.4986 28.7263C42.4986 29.5055 41.8298 30.1641 41.0624 30.1641C40.295 30.1641 39.6152 29.4946 39.6152 28.7263C39.6152 27.8373 40.284 27.2775 41.0624 27.2775Z" fill="#D1D1D1"/>
<path d="M39.6261 13.3937H25.7684C24.9901 13.3937 24.3213 12.7242 24.3213 11.9449C24.3213 11.1657 24.9901 10.4962 25.7684 10.4962H39.6261C40.4045 10.4962 41.0733 11.1657 41.0733 11.9449C41.0733 12.7242 40.4045 13.3937 39.6261 13.3937Z" fill="#D1D1D1"/>
<path d="M54.9309 17.4985H25.7684C24.9901 17.4985 24.3213 16.829 24.3213 16.0607C24.3213 15.2924 24.9901 14.6119 25.7684 14.6119H54.9309C55.7093 14.6119 56.3781 15.2814 56.3781 16.0607C56.2684 16.9497 55.7093 17.4985 54.9309 17.4985Z" fill="#D1D1D1"/>
<path d="M54.9309 21.724H25.7684C24.9901 21.724 24.3213 21.0545 24.3213 20.2752C24.3213 19.496 24.9901 18.8375 25.7684 18.8375H54.9309C55.7093 18.8375 56.3781 19.507 56.3781 20.2752C56.2684 21.0545 55.7093 21.724 54.9309 21.724Z" fill="#D1D1D1"/>
<path d="M45.1628 25.8288H25.7577C24.9793 25.8288 24.3105 25.1593 24.3105 24.38C24.3105 23.6008 24.9793 22.9313 25.7577 22.9313H45.1628C45.9412 22.9313 46.61 23.6008 46.61 24.38C46.61 25.269 45.9412 25.8288 45.1628 25.8288Z" fill="#D1D1D1"/>
<path d="M36.8526 30.0543H25.7577C24.9793 30.0543 24.3105 29.3848 24.3105 28.6056C24.3105 27.8263 24.9793 27.1678 25.7577 27.1678H36.8526C37.631 27.1678 38.2998 27.8373 38.2998 28.6056C38.2998 29.3738 37.631 30.0543 36.8526 30.0543Z" fill="#D1D1D1"/>
<path d="M56.2573 3.62554H6.35221C5.57382 3.62554 4.91602 2.95604 4.91602 2.18777C4.91602 1.41949 5.58478 0.739014 6.35221 0.739014H56.2573C57.0357 0.739014 57.7045 1.40851 57.7045 2.18777C57.7045 2.96702 57.0357 3.62554 56.2573 3.62554Z" fill="#D7DEED"/>
<path d="M38.7696 28.8856L28.1172 20.2807V26.336C19.583 28.1991 14.8322 34.3525 14.5016 40.9594C14.3425 44.1218 15.224 47.3824 17.2076 50.2016C16.3505 47.0392 16.6933 43.7051 18.0035 40.7265C19.8034 36.6079 23.3664 33.1512 28.1172 31.3371V37.4782L38.7696 28.8733V28.8856Z" fill="#FFAE35"/>
<path d="M26.623 51.3704L37.2755 59.9752V53.92C45.8097 52.0568 50.5604 45.9035 50.891 39.2966C51.0502 36.1341 50.1686 32.8736 48.1851 30.0543C49.0421 33.2168 48.6993 36.5509 47.3892 39.5295C45.5893 43.6481 42.0262 47.1047 37.2755 48.9188V42.7778L26.623 51.3826V51.3704Z" fill="#FFAE35"/>
</g>
<defs>
<clipPath id="clip0_271_1933">
<rect width="61" height="62" fill="white" transform="translate(0.804688 0.739014)"/>
</clipPath>
</defs>
</svg>
