<svg width="400" height="401" viewBox="0 0 400 401" fill="none" xmlns="http://www.w3.org/2000/svg">
<g clip-path="url(#clip0_196_779)">
<path d="M334.504 370.896L332.078 313.904H279.874L307.785 373.637C307.785 373.637 328.196 392.831 364.387 379.023C349.567 375.239 336.55 371.666 334.514 370.896H334.504Z" fill="#FFDACC"/>
<path d="M327.721 314.221L288.566 330.295L279.874 313.904L327.721 314.221Z" fill="#482A28"/>
<path d="M66.9785 222.076C66.9785 222.076 275.613 166.359 289.147 177.427C302.68 188.494 356.825 314.853 356.825 314.853H266.784L236.131 265.102C236.131 265.102 94.0454 301.994 66.9785 283.558C39.9115 265.113 39.4579 234.208 66.9785 222.076Z" fill="url(#paint0_linear_196_779)"/>
<path d="M140.869 212.811C140.869 212.811 246.88 315.538 211.627 347.107C179.023 376.314 143.433 344.461 132.357 343.228C121.281 341.995 75.8391 366.691 75.8391 366.691L22.1377 314.842L66.9891 283.548C66.9891 283.548 43.5296 265.218 45.1541 246.888C48.4346 209.955 109.446 194.049 140.88 212.801L140.869 212.811Z" fill="url(#paint1_linear_196_779)"/>
<path d="M230.614 131.892L216.363 88.8768C215.297 83.7752 213.494 79.1375 210.783 75.1637C188.526 42.5833 85.8171 81.3088 85.8171 81.3088C85.8171 81.3088 40.0269 127.876 32.8752 165.769C29.8373 181.875 37.8012 193.195 49.8579 201.143C48.3179 221.17 52.4212 227.431 52.4212 227.431C52.4212 227.431 137.261 268.507 189.549 187.05C194.085 179.978 199.517 169.574 204.38 157.737C206.954 158.654 209.063 159.403 210.477 159.909C219.643 163.187 248.672 165.843 248.672 165.843L258.82 149.41L230.614 131.892Z" fill="url(#paint2_linear_196_779)"/>
<path d="M41.5356 347.001L23.0234 327.554L0.492188 342.785C0.492188 342.785 19.5213 368.451 37.5273 389.701L55.3644 380.32C48.8456 364.699 42.2635 349.362 41.5462 347.012L41.5356 347.001Z" fill="#0C090C"/>
<path d="M78.2858 393.854C77.3575 392.346 58.1807 381.627 53.9509 375.945L37.5166 389.69L44.1726 398.976C67.7058 400.926 81.9144 399.703 78.2858 393.854Z" fill="#0C090C"/>
<path d="M120.258 307.032C99.0032 284.107 67.295 283.833 66.9785 283.833V283.263C67.295 283.263 99.2458 283.527 120.669 306.642L120.258 307.032Z" fill="black"/>
<path d="M334.504 370.896L307.775 373.637L306.056 400.757C306.056 400.757 338.017 401.422 365.843 400.178L369.324 380.341C352.975 375.945 336.804 371.761 334.494 370.896H334.504Z" fill="#0C090C"/>
<path d="M399.154 393.822C398.173 392.346 369.102 380.277 369.102 380.277L358.28 390.987L350.221 400.705C373.796 401.896 402.973 399.556 399.154 393.832V393.822Z" fill="#0C090C"/>
<path d="M43.9298 352.862L57.6426 349.131L29.2044 321.789L23.0336 327.554C23.0336 327.554 20.9029 355.782 53.9718 375.945C50.0584 366.891 46.2926 358.353 43.9404 352.862H43.9298Z" fill="#FFDACC"/>
<path d="M136.958 52.9702C141.345 48.5864 141.345 41.4787 136.958 37.0949C132.571 32.711 125.458 32.711 121.071 37.0949C116.683 41.4787 116.683 48.5864 121.071 52.9702C125.458 57.3541 132.571 57.3541 136.958 52.9702Z" fill="#482A28"/>
<path d="M120.416 28.575C121.186 36.5014 128.243 42.3092 136.175 41.5503C144.108 40.7808 149.92 33.7293 149.16 25.8029C148.39 17.8765 144.783 0.663984 137.589 4.10016C124.425 10.3823 119.657 20.6486 120.416 28.5856V28.575Z" fill="#482A28"/>
<path d="M166.786 6.34527C162.451 1.4756 155.309 0.105342 148.801 0.569121C147.24 0.674525 145.679 0.874793 144.181 1.32803C142.43 1.85505 140.806 2.72991 139.139 3.5099C136.66 4.66935 134.034 5.64961 131.987 7.4731C129.941 9.29659 128.591 12.2268 129.55 14.7882C129.751 15.3257 130.046 15.8422 130.046 16.4114C130.046 16.97 129.772 17.476 129.54 17.9819C126.66 24.0848 128.559 31.305 130.89 37.6398C132.599 42.2881 134.877 47.2527 139.35 49.3924C140.109 49.7508 140.995 50.0248 141.765 49.6981C142.303 49.4767 142.683 49.0129 143.052 48.5597C144.656 46.5886 146.301 44.5649 147.135 42.1616C147.757 40.3698 147.915 38.462 148.348 36.6174C149.16 33.1812 150.953 30.0085 153.274 27.3418C154.687 25.7186 156.354 24.2324 158.4 23.5367C160.541 22.82 162.904 22.9675 165.13 22.9464C166.427 22.9359 168.041 23.0624 168.938 21.924C169.887 20.7224 170.13 18.8146 170.267 17.3389C170.425 15.4838 170.246 13.6076 169.74 11.8263C169.159 9.81308 168.168 7.9158 166.765 6.35581L166.786 6.34527Z" fill="#482A28"/>
<path d="M170.13 26.1929C168.126 23.2627 167.936 14.1452 167.936 14.1452C153.643 13.3863 147.261 16.6538 144.487 20.227C143.622 18.8884 142.198 17.2019 140.732 17.6657C138.38 18.4141 135.838 21.9029 140.11 26.3405L142.62 31.3893C142.167 32.085 141.84 32.7912 141.671 33.508C141.671 33.508 133.76 63.8433 131.682 67.1425C131.682 67.1425 137.125 99.354 157.24 101.473C170.267 102.853 168.748 82.1731 168.748 82.1731C168.949 74.2467 168.295 63.622 167.388 53.3661C168.748 53.0921 169.719 52.5861 170.12 51.9642C172.82 47.8219 172.124 29.1337 170.12 26.1929H170.13Z" fill="#FFDACC"/>
<path d="M168.021 63.0001C167.905 59.3215 167.799 58.1199 167.525 53.1869C167.525 53.1869 148.274 50.1724 142.905 40.1168C142.905 40.1168 155.215 63.6009 168.021 63.0106V63.0001Z" fill="#482A28"/>
<path d="M168.801 32.0112C168.759 33.0231 168.358 33.8242 167.894 33.8031C167.43 33.782 167.092 32.9493 167.134 31.948C167.177 30.9361 167.577 30.135 168.042 30.1561C168.506 30.1772 168.843 31.0099 168.801 32.0112Z" fill="#3B261C"/>
<path d="M161.734 31.7266C161.691 32.7385 161.291 33.5396 160.827 33.5185C160.362 33.4974 160.025 32.6647 160.067 31.6634C160.109 30.6515 160.51 29.8504 160.974 29.8715C161.438 29.8926 161.776 30.7253 161.734 31.7266Z" fill="#3B261C"/>
<path d="M162.736 23.4418C162.736 23.4418 158.548 20.4905 155.743 23.1573C152.926 25.824 154.656 26.4775 155.131 26.4459C155.606 26.4142 160.743 23.6843 162.177 25.4129C162.177 25.4129 164.16 25.571 162.736 23.4524V23.4418Z" fill="#482A28"/>
<path d="M171.375 23.1678C169.771 20.6592 166.195 23.1046 166.195 23.1046C164.603 25.1072 166.586 25.1072 166.586 25.1072C168.168 23.5051 173.969 27.2469 171.364 23.1678H171.375Z" fill="#482A28"/>
<path d="M106.471 51.5637C106.471 56.3596 110.363 60.2596 115.173 60.2596C119.983 60.2596 123.875 56.3701 123.875 51.5637C123.875 46.7573 119.983 42.8679 115.173 42.8679C110.363 42.8679 106.471 46.7573 106.471 51.5637Z" fill="#482A28"/>
<path d="M97.959 63.0106C97.959 67.1635 101.324 70.5259 105.48 70.5259C109.636 70.5259 113.001 67.1635 113.001 63.0106C113.001 58.8577 109.636 55.4953 105.48 55.4953C101.324 55.4953 97.959 58.8577 97.959 63.0106Z" fill="#482A28"/>
<path d="M87.5791 67.8592C87.5791 71.2427 90.3217 73.9937 93.7182 73.9937C97.1148 73.9937 99.8573 71.2532 99.8573 67.8592C99.8573 64.4652 97.1148 61.7247 93.7182 61.7247C90.3217 61.7247 87.5791 64.4652 87.5791 67.8592Z" fill="#482A28"/>
<path d="M162.788 18.0978C160.658 17.8765 158.411 17.476 156.438 18.3192C154.149 19.2995 152.683 21.7765 150.289 22.4616C149.255 22.7567 148.126 22.6724 147.145 22.2297C145.204 21.3443 142.757 19.2362 142.905 17.107C143.052 14.9779 145.616 12.8803 147.272 11.5312C149.793 9.46524 153.221 8.70633 156.47 8.94876C159.729 9.19119 162.841 10.3612 165.774 11.8052C166.849 12.3322 167.946 12.933 168.664 13.8817C169.244 14.6511 169.877 16.3376 168.864 17.0227C167.862 17.6973 166.47 18.0662 165.278 18.1611C164.444 18.2243 163.611 18.1822 162.788 18.0978Z" fill="#482A28"/>
<path d="M166.079 38.7255H157.166C157.166 38.7255 159.814 42.8995 163.611 43.0892C165.763 43.1946 166.069 38.7255 166.069 38.7255H166.079Z" fill="#BF5151"/>
<path d="M295.221 164.241L276.477 164.157L260.887 161.311C260.887 161.311 260.887 157.411 261.372 157.411C261.857 157.411 295.221 164.241 295.221 164.241Z" fill="#BAAB98"/>
<path d="M290.285 138.153C280.043 138.153 261.742 124.261 253.82 122.069C251.657 121.468 248.841 122.037 245.877 123.165C244.358 122.364 241.341 122.638 235.761 125.094C235.761 125.094 191.574 155.787 198.948 182.613C201.131 190.571 204.707 195.788 208.863 198.982C193.199 218.092 174.792 247.742 167.609 287.29C163.896 307.707 162.472 329.272 163.358 347.95C160.478 347.18 157.335 346.632 153.885 346.358C119.635 343.692 110.289 332.898 110.289 332.898C110.289 332.898 102.905 395.361 144.392 397.037C162.029 397.753 173.758 398.196 181.427 398.481C191.785 398.86 194.728 398.934 194.728 398.934L194.697 398.565L255.497 398.934L258.008 341.13C266.446 365.974 281.594 399.904 281.594 399.904L291.815 399.482C291.815 399.482 277.986 325.636 278.914 303.638C282.163 225.997 266.193 203.346 264.104 200.742L264.906 182.318C264.41 181.517 263.915 180.768 263.408 180.052C272.67 179.546 282.627 176.615 291.994 168.868L291.815 165.442L267.585 160.826L295.211 164.241C295.211 164.241 298.502 160.647 301.245 151.318C302.859 145.837 300.517 138.153 290.264 138.153H290.285Z" fill="url(#paint3_linear_196_779)"/>
<path d="M255.497 387.192C255.497 387.192 272.986 390.923 272.986 398.945H253.599L255.497 387.192Z" fill="#E6D9D1"/>
<path d="M283.303 390.807C283.303 390.807 300.855 393.442 300.992 399.904L281.604 400.315L283.303 390.807Z" fill="#E6D9D1"/>
<path d="M203.799 387.139C200.15 359.144 200.973 297.208 213.209 284.022C217.976 278.889 222.713 276.77 227.28 277.73C232.607 278.847 236.71 284.001 239.231 288.123C241.942 292.571 243.429 296.808 243.44 296.861L242.965 297.019C242.902 296.85 237.058 280.291 227.185 278.215C222.797 277.287 218.219 279.363 213.578 284.36C201.901 296.955 200.582 358.522 204.295 387.076L203.799 387.139Z" fill="#231F20"/>
<path d="M257.618 339.95L251.531 324.677L257.449 354.59L257.618 339.95Z" fill="#765B3E"/>
<path d="M240.646 191.203L240.481 191.625L263.819 200.699L263.983 200.276L240.646 191.203Z" fill="#231F20"/>
<path d="M262.184 139.84C262.184 139.84 258.64 139.271 254.526 139.397C254.526 139.397 257.079 134.116 262.184 139.84Z" fill="#4A3F32"/>
<path d="M293.84 138.522C293.84 138.522 289.716 141.442 293.84 145.837C297.964 150.222 301.255 151.318 301.255 151.318C301.255 151.318 306.835 140.809 293.84 138.522Z" fill="#735940"/>
<path d="M174.634 249.882L152.05 223.51L152.472 223.141L175.066 249.513L174.634 249.882Z" fill="black"/>
<path d="M356.824 303.364H278.925V303.933H356.824V303.364Z" fill="black"/>
<path d="M25.5321 299.923L25.1279 300.324L85.9199 361.496L86.3241 361.095L25.5321 299.923Z" fill="black"/>
<path d="M255.508 394.823H197.946V394.57C197.946 381.985 195.604 364.604 184.454 353.315C177.788 346.569 171.037 345.188 170.974 345.167L171.069 344.672C171.142 344.682 178.02 346.084 184.792 352.925C191.005 359.197 198.399 371.466 198.452 394.307H255.508V394.802V394.823Z" fill="#231F20"/>
<path d="M196.459 173.095L196.026 172.831C216.416 139.534 205.509 97.9943 205.393 97.5832L205.878 97.4567C205.995 97.8783 216.954 139.608 196.448 173.095H196.459Z" fill="#231F20"/>
<path d="M156.238 109.631C150.257 109.631 144.972 107.818 140.489 104.203C126.808 93.1984 124.952 68.9238 124.931 68.6814L125.426 68.6497C125.448 68.8922 127.283 92.956 140.795 103.823C146.312 108.261 153.063 109.937 160.858 108.788C165.679 108.081 169.466 105.731 172.124 101.799C180.974 88.7082 174.666 62.062 174.603 61.7879L175.088 61.672C175.151 61.946 181.512 88.803 172.535 102.073C169.793 106.121 165.89 108.545 160.932 109.273C159.318 109.504 157.757 109.631 156.238 109.631Z" fill="#231F20"/>
<path d="M48.9614 199.414C48.4129 205.675 48.4129 210.661 48.6766 214.561L78.8553 211.61L48.9614 199.414Z" fill="#503A29"/>
<path d="M238.895 301.846L238.736 301.372C241.394 300.486 247.766 291.105 247.829 291.021L248.24 291.306C247.977 291.696 241.711 300.919 238.895 301.857V301.846Z" fill="#231F20"/>
<path d="M260.856 181.98C258.493 181.675 247.628 179.187 247.164 179.071L247.28 178.586C247.396 178.607 258.588 181.179 260.919 181.485L260.856 181.98Z" fill="#231F20"/>
<path d="M290.919 201.586C290.919 201.586 281.678 185.933 280.771 185.153C280.286 184.731 277.565 183.899 274.347 183.519L274.432 183.488C274.432 183.488 253.43 179.662 252.955 181.886C252.481 184.099 260.445 188.22 260.466 188.231C260.466 188.231 260.466 188.231 260.455 188.241C260.107 188.515 234.844 208.395 235.646 211.968C236.141 214.181 243.43 210.84 249.569 207.109C243.736 211.852 235.962 218.556 236.69 220.063C237.935 222.624 244.57 219.325 250.445 215.362C246.542 219.62 243.23 223.784 243.694 225.238C244.738 228.453 254.042 221.465 260.476 215.383C260.519 215.436 260.571 215.488 260.613 215.541C255.772 220.948 250.846 226.703 251.394 227.125C253.799 228.938 261.078 223.847 266.805 218.682C283.387 212.664 290.919 201.575 290.919 201.575V201.586Z" fill="#FFDACC"/>
<path d="M252.691 132.925L252.195 132.894C252.195 132.799 252.364 130.606 254.073 129.689C255.476 128.93 257.459 129.289 259.98 130.733L259.727 131.165C257.375 129.816 255.55 129.468 254.305 130.132C252.839 130.923 252.691 132.915 252.691 132.925Z" fill="#231F20"/>
<path d="M251.352 156.23C255.045 156.23 258.039 153.238 258.039 149.548C258.039 145.857 255.045 142.865 251.352 142.865C247.658 142.865 244.664 145.857 244.664 149.548C244.664 153.238 247.658 156.23 251.352 156.23Z" fill="#E59899"/>
<path d="M50.3542 351.112L57.6326 349.131L29.1943 321.789L50.3542 351.112Z" fill="#482A28"/>
<path d="M137.641 181.727L126.397 213.549L119.076 212.6L137.641 181.727Z" fill="#482A28"/>
<path d="M99.815 237.528C71.5877 237.528 51.5459 227.42 51.2822 227.283L51.5459 226.777C51.9046 226.956 87.6106 244.97 130.911 232.669C131.133 232.606 152.999 226.029 166.122 214.571L166.491 214.993C153.274 226.535 131.281 233.144 131.07 233.217C120.015 236.358 109.446 237.528 99.8255 237.528H99.815Z" fill="black"/>
<path d="M161.133 119.802C159.656 119.802 158.464 118.611 158.464 117.136C158.464 115.66 159.666 114.469 161.133 114.469C162.599 114.469 163.801 115.66 163.801 117.136C163.801 118.611 162.599 119.802 161.133 119.802ZM161.133 114.964C159.941 114.964 158.96 115.934 158.96 117.136C158.96 118.337 159.93 119.307 161.133 119.307C162.335 119.307 163.306 118.337 163.306 117.136C163.306 115.934 162.335 114.964 161.133 114.964Z" fill="#231F20"/>
<path d="M161.628 131.481C160.151 131.481 158.959 130.29 158.959 128.814C158.959 127.339 160.161 126.148 161.628 126.148C163.094 126.148 164.296 127.349 164.296 128.814C164.296 130.28 163.094 131.481 161.628 131.481ZM161.628 126.643C160.425 126.643 159.455 127.613 159.455 128.814C159.455 130.016 160.425 130.986 161.628 130.986C162.83 130.986 163.801 130.016 163.801 128.814C163.801 127.613 162.83 126.643 161.628 126.643Z" fill="#231F20"/>
<path d="M162.113 143.171C160.636 143.171 159.444 141.979 159.444 140.504C159.444 139.028 160.647 137.837 162.113 137.837C163.579 137.837 164.782 139.039 164.782 140.504C164.782 141.969 163.579 143.171 162.113 143.171ZM162.113 138.333C160.921 138.333 159.94 139.302 159.94 140.504C159.94 141.705 160.911 142.675 162.113 142.675C163.316 142.675 164.286 141.705 164.286 140.504C164.286 139.302 163.316 138.333 162.113 138.333Z" fill="#231F20"/>
<path d="M187.028 231.689L195.646 226.809L191.163 224.332L187.028 231.689Z" fill="#C9B9A5"/>
<path d="M84.2242 92.0706C84.2242 92.0706 63.5917 117.684 58.5918 127.054" stroke="white" stroke-linecap="round" stroke-linejoin="round"/>
<path d="M127.978 17.7395C127.978 17.7395 122.662 23.0519 125.795 32.1061" stroke="white" stroke-linecap="round" stroke-linejoin="round"/>
<path d="M113.601 45.2184C113.601 45.2184 106.724 46.1565 109.846 53.3345" stroke="white" stroke-linecap="round" stroke-linejoin="round"/>
<path d="M165.479 30.8518C165.479 30.8518 166.734 35.3842 167.978 35.5317L165.943 37.566" stroke="#111111" stroke-width="0.7" stroke-linecap="round" stroke-linejoin="round"/>
<path d="M168.959 21.9135C171.321 18.7197 170.172 13.7552 170.172 13.7552C166.184 -4.75379 144.181 1.32803 144.181 1.32803C144.181 1.32803 133.126 5.09097 127.979 10.7196" stroke="#111111" stroke-width="0.7" stroke-linecap="round" stroke-linejoin="round"/>
<path d="M129.846 252.907L139.223 268.359" stroke="white" stroke-linecap="round" stroke-linejoin="round"/>
<path d="M138.76 252.907L144.857 261.803" stroke="white" stroke-linecap="round" stroke-linejoin="round"/>
<path d="M109.9 161.89L142.536 173.095L140.437 176.584L140.89 176.805L143.116 173.095L143.274 172.831L98.1382 157.326C100.364 155.65 111.461 146.828 113.539 136.151L113.043 136.056C110.786 147.682 97.5897 157.105 97.4526 157.2L97.0518 157.484L107.073 160.931C107.136 160.805 107.199 160.699 107.252 160.626L109.878 161.89H109.9Z" fill="#231F20"/>
<path d="M114.941 218.998L115.374 219.251L119.351 212.632C119.171 212.611 118.992 212.59 118.813 212.558L114.952 218.988L114.941 218.998Z" fill="#231F20"/>
<path d="M208.051 198.961C208.051 198.961 208.051 198.961 208.04 198.95C208.062 198.94 216.026 194.819 215.551 192.605C215.076 190.392 194.075 194.207 194.075 194.207L194.159 194.239C191.575 194.545 189.338 195.135 188.294 195.578L155.689 183.941L140.89 176.826L119.34 212.653C128.833 213.876 138 215.067 141.924 215.583C150.046 216.648 171.818 214.318 178.516 213.549C180.995 216.606 188.463 224.616 201.68 229.412C207.408 234.577 214.675 239.668 217.091 237.855C217.639 237.444 212.713 231.679 207.872 226.271C207.914 226.219 207.967 226.166 208.009 226.113C214.443 232.195 223.747 239.194 224.791 235.968C225.266 234.524 221.943 230.35 218.04 226.092C223.905 230.066 230.54 233.354 231.795 230.793C232.523 229.286 224.749 222.582 218.916 217.839C225.055 221.57 232.344 224.912 232.85 222.698C233.652 219.114 208.378 199.235 208.04 198.972L208.051 198.961Z" fill="#FFDACC"/>
<path d="M107.273 160.636C107.22 160.699 107.168 160.805 107.094 160.942L109.9 161.901L107.273 160.636Z" fill="#231F20"/>
<path d="M140.436 176.584L118.802 212.558C118.981 212.579 119.16 212.6 119.34 212.632L140.89 176.805L140.436 176.584Z" fill="#503A29"/>
</g>
<defs>
<linearGradient id="paint0_linear_196_779" x1="201.659" y1="175.972" x2="201.659" y2="314.853" gradientUnits="userSpaceOnUse">
<stop stop-color="#6B69B8"/>
<stop offset="0.32" stop-color="#4D4C8A"/>
<stop offset="0.67" stop-color="#403F7E"/>
<stop offset="0.98" stop-color="#313071"/>
</linearGradient>
<linearGradient id="paint1_linear_196_779" x1="120.469" y1="204.906" x2="120.469" y2="366.691" gradientUnits="userSpaceOnUse">
<stop stop-color="#6B69B8"/>
<stop offset="0.32" stop-color="#4D4C8A"/>
<stop offset="0.67" stop-color="#403F7E"/>
<stop offset="0.98" stop-color="#313071"/>
</linearGradient>
<linearGradient id="paint2_linear_196_779" x1="137.719" y1="73.3724" x2="106.243" y2="642.192" gradientUnits="userSpaceOnUse">
<stop offset="0.11" stop-color="#FFDD6D"/>
<stop offset="1" stop-color="#E33077"/>
</linearGradient>
<linearGradient id="paint3_linear_196_779" x1="205.751" y1="121.826" x2="205.751" y2="462.387" gradientUnits="userSpaceOnUse">
<stop offset="0.12" stop-color="#EFD09C"/>
<stop offset="1" stop-color="#E5BA7C"/>
</linearGradient>
<clipPath id="clip0_196_779">
<rect width="399" height="401" fill="white" transform="translate(0.492188 -6.10352e-05)"/>
</clipPath>
</defs>
</svg>
